<?xml version="1.0" standalone="yes"?><svg width="1125" height="2000"><g transform="translate(-650 1000)"><path d="M 1215,987 L 836,-994 L 1595,-994 L 1593,986 L 1215,987 " fill="none" stroke="#000000" stroke-width="0.777"/>
<path d="M 1215,975 L 1233,898 L 1236,889 L 1279,890 L 1287,975 L 1324,974 L 1315,893 L 1323,889 L 1355,890 L 1368,974 L 1414,974 L 1397,893 L 1403,889 L 1431,889 L 1439,893 L 1458,973 L 1496,975 L 1501,974 L 1478,896 L 1479,890 L 1585,889 L 1585,854 L 1466,852 L 1424,709 L 1424,704 L 1584,704 L 1584,677 L 1418,676 L 1413,673 L 1407,651 L 1410,648 L 1422,647 L 1585,647 L 1584,622 L 1399,622 L 1385,574 L 1585,573 L 1585,551 L 1378,549 L 1352,459 L 1584,458 L 1585,440 L 1346,439 L 1341,421 L 1585,420 L 1585,405 L 1335,404 L 1325,370 L 1572,368 L 1585,380 L 1585,-385 L 1575,-375 L 1541,-377 L 1569,-411 L 1584,-412 L 1585,-465 L 1556,-467 L 1585,-509 L 1585,-580 L 1570,-580 L 1566,-584 L 1585,-617 L 1585,-674 L 1573,-655 L 1247,-654 L 1232,-655 L 1231,-658 L 1233,-683 L 1585,-684 L 1585,-712 L 1232,-714 L 1236,-860 L 1584,-862 L 1584,-896 L 1238,-898 L 1238,-982 L 1199,-982 L 1200,-896 L 1155,-896 L 1148,-982 L 1109,-981 L 1118,-902 L 1116,-897 L 1111,-896 L 1079,-898 L 1064,-982 L 1019,-981 L 1035,-898 L 997,-897 L 974,-982 L 936,-982 L 932,-979 L 955,-898 L 848,-896 L 848,-862 L 967,-861 L 1010,-713 L 848,-711 L 847,-686 L 1017,-683 L 1026,-656 L 848,-654 L 848,-630 L 1031,-628 L 1036,-624 L 1047,-582 L 848,-580 L 847,-561 L 857,-558 L 1055,-558 L 1082,-467 L 848,-464 L 848,-448 L 1088,-446 L 1093,-430 L 848,-428 L 848,-413 L 1097,-412 L 1108,-375 L 860,-375 L 848,-388 L 848,377 L 857,368 L 892,370 L 862,405 L 848,405 L 848,458 L 877,460 L 853,493 L 847,508 L 848,572 L 868,575 L 848,610 L 848,667 L 859,648 L 1161,647 L 1202,648 L 1202,671 L 1201,676 L 848,678 L 848,704 L 1200,706 L 1198,849 L 1197,853 L 1159,854 L 853,855 L 847,857 L 847,884 L 848,889 L 1196,891 L 1195,973 L 1215,975 " fill="none" stroke="#000000" stroke-width="0.777"/>
<path d="M 1254,854 L 1231,704 L 1265,705 L 1267,711 L 1276,853 L 1254,854 " fill="none" stroke="#000000" stroke-width="0.777"/>
<path d="M 1330,854 L 1295,710 L 1298,704 L 1327,706 L 1348,842 L 1348,854 L 1330,854 " fill="none" stroke="#000000" stroke-width="0.777"/>
<path d="M 1409,854 L 1388,848 L 1361,705 L 1389,704 L 1394,710 L 1428,848 L 1428,853 L 1409,854 " fill="none" stroke="#000000" stroke-width="0.777"/>
<path d="M 1247,677 L 1229,648 L 1262,648 L 1263,676 L 1247,677 " fill="none" stroke="#000000" stroke-width="0.777"/>
<path d="M 1306,677 L 1289,648 L 1317,648 L 1321,675 L 1306,677 " fill="none" stroke="#000000" stroke-width="0.777"/>
<path d="M 1370,677 L 1349,648 L 1378,649 L 1384,674 L 1370,677 " fill="none" stroke="#000000" stroke-width="0.777"/>
<path d="M 1038,622 L 876,618 L 901,574 L 1177,573 L 1205,576 L 1202,621 L 1038,622 " fill="none" stroke="#000000" stroke-width="0.777"/>
<path d="M 1245,622 L 1227,616 L 1227,575 L 1230,573 L 1254,573 L 1258,578 L 1260,621 L 1245,622 " fill="none" stroke="#000000" stroke-width="0.777"/>
<path d="M 1299,622 L 1280,574 L 1302,573 L 1306,577 L 1312,621 L 1299,622 " fill="none" stroke="#000000" stroke-width="0.777"/>
<path d="M 1356,622 L 1334,576 L 1337,573 L 1355,573 L 1361,578 L 1370,621 L 1356,622 " fill="none" stroke="#000000" stroke-width="0.777"/>
<path d="M 867,551 L 852,548 L 911,459 L 937,459 L 888,544 L 880,551 L 867,551 " fill="none" stroke="#000000" stroke-width="0.777"/>
<path d="M 1060,551 L 962,460 L 1206,458 L 1205,549 L 1060,551 " fill="none" stroke="#000000" stroke-width="0.777"/>
<path d="M 1241,551 L 1225,458 L 1247,458 L 1250,462 L 1255,544 L 1254,550 L 1241,551 " fill="none" stroke="#000000" stroke-width="0.777"/>
<path d="M 1290,551 L 1277,548 L 1267,462 L 1269,458 L 1286,458 L 1289,463 L 1301,543 L 1301,550 L 1290,551 " fill="none" stroke="#000000" stroke-width="0.777"/>
<path d="M 1342,551 L 1311,464 L 1312,458 L 1330,458 L 1332,461 L 1353,547 L 1353,551 L 1342,551 " fill="none" stroke="#000000" stroke-width="0.777"/>
<path d="M 878,440 L 875,423 L 882,420 L 904,421 L 892,439 L 878,440 " fill="none" stroke="#000000" stroke-width="0.777"/>
<path d="M 938,440 L 937,421 L 960,421 L 952,438 L 938,440 " fill="none" stroke="#000000" stroke-width="0.777"/>
<path d="M 1090,440 L 975,437 L 984,422 L 1001,420 L 1188,420 L 1208,424 L 1206,439 L 1090,440 " fill="none" stroke="#000000" stroke-width="0.777"/>
<path d="M 1236,440 L 1224,421 L 1242,420 L 1247,424 L 1248,438 L 1236,440 " fill="none" stroke="#000000" stroke-width="0.777"/>
<path d="M 1275,440 L 1265,421 L 1281,421 L 1285,437 L 1282,440 L 1275,440 " fill="none" stroke="#000000" stroke-width="0.777"/>
<path d="M 1316,440 L 1303,422 L 1322,422 L 1326,437 L 1316,440 " fill="none" stroke="#000000" stroke-width="0.777"/>
<path d="M 906,406 L 914,373 L 920,368 L 941,369 L 939,376 L 918,405 L 906,406 " fill="none" stroke="#000000" stroke-width="0.777"/>
<path d="M 953,406 L 971,368 L 991,369 L 971,405 L 953,406 " fill="none" stroke="#000000" stroke-width="0.777"/>
<path d="M 1304,406 L 1293,372 L 1295,368 L 1309,369 L 1311,374 L 1317,404 L 1304,406 " fill="none" stroke="#000000" stroke-width="0.777"/>
<path d="M 1101,405 L 1005,380 L 1015,367 L 1209,368 L 1207,404 L 1101,405 " fill="none" stroke="#000000" stroke-width="0.777"/>
<path d="M 1235,405 L 1224,368 L 1243,368 L 1244,404 L 1235,405 " fill="none" stroke="#000000" stroke-width="0.777"/>
<path d="M 1271,405 L 1258,380 L 1260,368 L 1272,368 L 1274,371 L 1279,403 L 1271,405 " fill="none" stroke="#000000" stroke-width="0.777"/>
<path d="M 892,354 L 875,351 L 931,292 L 958,293 L 907,354 L 892,354 " fill="none" stroke="#000000" stroke-width="0.777"/>
<path d="M 944,354 L 933,350 L 970,303 L 981,292 L 996,292 L 998,294 L 995,299 L 962,345 L 955,353 L 944,354 " fill="none" stroke="#000000" stroke-width="0.777"/>
<path d="M 992,354 L 983,350 L 1020,294 L 1036,293 L 1032,305 L 1005,349 L 1000,354 L 992,354 " fill="none" stroke="#000000" stroke-width="0.777"/>
<path d="M 1115,353 L 1050,298 L 1056,292 L 1210,292 L 1209,352 L 1115,353 " fill="none" stroke="#000000" stroke-width="0.777"/>
<path d="M 1232,354 L 1222,350 L 1223,292 L 1235,292 L 1239,299 L 1242,352 L 1232,354 " fill="none" stroke="#000000" stroke-width="0.777"/>
<path d="M 1266,354 L 1248,292 L 1261,292 L 1271,350 L 1266,354 " fill="none" stroke="#000000" stroke-width="0.777"/>
<path d="M 1297,354 L 1287,344 L 1278,301 L 1279,292 L 1291,294 L 1304,348 L 1303,353 L 1297,354 " fill="none" stroke="#000000" stroke-width="0.777"/>
<path d="M 1442,353 L 1303,293 L 1500,292 L 1556,352 L 1442,353 " fill="none" stroke="#000000" stroke-width="0.777"/>
<path d="M 1572,339 L 1513,255 L 1573,306 L 1572,339 " fill="none" stroke="#000000" stroke-width="0.777"/>
<path d="M 861,336 L 920,84 L 921,280 L 861,336 " fill="none" stroke="#000000" stroke-width="0.777"/>
<path d="M 959,281 L 945,277 L 954,271 L 977,272 L 968,281 L 959,281 " fill="none" stroke="#000000" stroke-width="0.777"/>
<path d="M 1002,281 L 991,277 L 998,271 L 1013,271 L 1011,278 L 1002,281 " fill="none" stroke="#000000" stroke-width="0.777"/>
<path d="M 1040,281 L 1034,273 L 1042,270 L 1050,272 L 1048,278 L 1040,281 " fill="none" stroke="#000000" stroke-width="0.777"/>
<path d="M 1138,280 L 1062,277 L 1066,271 L 1199,271 L 1212,274 L 1211,278 L 1198,280 L 1138,280 " fill="none" stroke="#000000" stroke-width="0.777"/>
<path d="M 1235,280 L 1222,272 L 1236,272 L 1235,280 " fill="none" stroke="#000000" stroke-width="0.777"/>
<path d="M 1280,281 L 1274,272 L 1282,271 L 1286,274 L 1287,278 L 1280,281 " fill="none" stroke="#000000" stroke-width="0.777"/>
<path d="M 1391,281 L 1297,274 L 1479,271 L 1486,278 L 1456,281 L 1391,281 " fill="none" stroke="#000000" stroke-width="0.777"/>
<path d="M 1253,280 L 1246,274 L 1255,270 L 1260,277 L 1253,280 " fill="none" stroke="#000000" stroke-width="0.777"/>
<path d="M 1572,280 L 1513,216 L 1574,259 L 1572,280 " fill="none" stroke="#000000" stroke-width="0.777"/>
<path d="M 1500,268 L 1492,236 L 1500,243 L 1500,268 " fill="none" stroke="#000000" stroke-width="0.777"/>
<path d="M 934,267 L 942,77 L 943,237 L 942,259 L 934,267 " fill="none" stroke="#000000" stroke-width="0.777"/>
<path d="M 1143,261 L 1084,238 L 1212,238 L 1211,260 L 1143,261 " fill="none" stroke="#000000" stroke-width="0.777"/>
<path d="M 976,261 L 964,258 L 982,238 L 1006,239 L 987,261 L 976,261 " fill="none" stroke="#000000" stroke-width="0.777"/>
<path d="M 1014,261 L 1022,238 L 1038,240 L 1023,260 L 1014,261 " fill="none" stroke="#000000" stroke-width="0.777"/>
<path d="M 1050,261 L 1055,241 L 1069,237 L 1070,240 L 1059,259 L 1050,261 " fill="none" stroke="#000000" stroke-width="0.777"/>
<path d="M 1228,261 L 1221,239 L 1224,237 L 1232,238 L 1235,243 L 1236,259 L 1228,261 " fill="none" stroke="#000000" stroke-width="0.777"/>
<path d="M 1250,261 L 1244,255 L 1245,237 L 1252,239 L 1255,244 L 1257,258 L 1250,261 " fill="none" stroke="#000000" stroke-width="0.777"/>
<path d="M 1277,261 L 1267,238 L 1273,237 L 1277,240 L 1282,260 L 1277,261 " fill="none" stroke="#000000" stroke-width="0.777"/>
<path d="M 1380,261 L 1287,239 L 1448,238 L 1468,259 L 1380,261 " fill="none" stroke="#000000" stroke-width="0.777"/>
<path d="M 1479,250 L 1459,209 L 1480,226 L 1479,250 " fill="none" stroke="#000000" stroke-width="0.777"/>
<path d="M 954,247 L 975,67 L 975,227 L 954,247 " fill="none" stroke="#000000" stroke-width="0.777"/>
<path d="M 1572,231 L 1512,177 L 1519,178 L 1574,212 L 1572,231 " fill="none" stroke="#000000" stroke-width="0.777"/>
<path d="M 1011,229 L 1024,195 L 1031,190 L 1045,189 L 1047,192 L 1044,197 L 1018,227 L 1011,229 " fill="none" stroke="#000000" stroke-width="0.777"/>
<path d="M 1040,229 L 1036,220 L 1059,192 L 1071,190 L 1070,196 L 1052,221 L 1046,228 L 1040,229 " fill="none" stroke="#000000" stroke-width="0.777"/>
<path d="M 1070,230 L 1078,205 L 1088,192 L 1098,190 L 1098,195 L 1082,222 L 1076,229 L 1070,230 " fill="none" stroke="#000000" stroke-width="0.777"/>
<path d="M 1148,230 L 1090,227 L 1111,190 L 1213,191 L 1212,228 L 1148,230 " fill="none" stroke="#000000" stroke-width="0.777"/>
<path d="M 1228,230 L 1219,223 L 1218,190 L 1222,189 L 1230,190 L 1232,195 L 1233,229 L 1228,230 " fill="none" stroke="#000000" stroke-width="0.777"/>
<path d="M 1270,230 L 1257,196 L 1259,189 L 1266,193 L 1268,199 L 1273,220 L 1273,227 L 1270,230 " fill="none" stroke="#000000" stroke-width="0.777"/>
<path d="M 1362,230 L 1273,190 L 1398,190 L 1404,192 L 1438,228 L 1362,230 " fill="none" stroke="#000000" stroke-width="0.777"/>
<path d="M 1247,229 L 1241,224 L 1237,195 L 1240,189 L 1245,190 L 1248,201 L 1251,228 L 1247,229 " fill="none" stroke="#000000" stroke-width="0.777"/>
<path d="M 1497,222 L 1491,200 L 1501,207 L 1501,219 L 1497,222 " fill="none" stroke="#000000" stroke-width="0.777"/>
<path d="M 1449,219 L 1410,166 L 1448,196 L 1449,219 " fill="none" stroke="#000000" stroke-width="0.777"/>
<path d="M 986,217 L 1023,53 L 1024,182 L 986,217 " fill="none" stroke="#000000" stroke-width="0.777"/>
<path d="M 1480,206 L 1457,188 L 1459,176 L 1479,190 L 1480,206 " fill="none" stroke="#000000" stroke-width="0.777"/>
<path d="M 1572,191 L 1512,157 L 1513,3 L 1563,3 L 1572,4 L 1573,7 L 1572,191 " fill="none" stroke="#000000" stroke-width="0.777"/>
<path d="M 1047,184 L 1047,172 L 1065,173 L 1057,182 L 1047,184 " fill="none" stroke="#000000" stroke-width="0.777"/>
<path d="M 1076,183 L 1070,177 L 1078,171 L 1085,172 L 1085,176 L 1076,183 " fill="none" stroke="#000000" stroke-width="0.777"/>
<path d="M 1164,184 L 1115,179 L 1120,171 L 1131,170 L 1214,170 L 1212,183 L 1164,184 " fill="none" stroke="#000000" stroke-width="0.777"/>
<path d="M 1225,184 L 1218,173 L 1222,170 L 1230,174 L 1230,181 L 1225,184 " fill="none" stroke="#000000" stroke-width="0.777"/>
<path d="M 1332,184 L 1269,180 L 1267,171 L 1382,171 L 1393,179 L 1393,182 L 1389,183 L 1332,184 " fill="none" stroke="#000000" stroke-width="0.777"/>
<path d="M 1100,183 L 1098,176 L 1108,170 L 1109,177 L 1100,183 " fill="none" stroke="#000000" stroke-width="0.777"/>
<path d="M 1240,183 L 1238,170 L 1244,175 L 1244,181 L 1240,183 " fill="none" stroke="#000000" stroke-width="0.777"/>
<path d="M 1259,183 L 1256,170 L 1260,172 L 1263,180 L 1259,183 " fill="none" stroke="#000000" stroke-width="0.777"/>
<path d="M 1498,182 L 1492,163 L 1501,169 L 1501,179 L 1498,182 " fill="none" stroke="#000000" stroke-width="0.777"/>
<path d="M 1448,181 L 1410,141 L 1448,167 L 1448,181 " fill="none" stroke="#000000" stroke-width="0.777"/>
<path d="M 1402,175 L 1392,149 L 1404,159 L 1402,175 " fill="none" stroke="#000000" stroke-width="0.777"/>
<path d="M 1033,173 L 1030,51 L 1042,47 L 1042,165 L 1033,173 " fill="none" stroke="#000000" stroke-width="0.777"/>
<path d="M 1479,169 L 1459,144 L 1480,156 L 1479,169 " fill="none" stroke="#000000" stroke-width="0.777"/>
<path d="M 1061,167 L 1067,151 L 1082,152 L 1069,166 L 1061,167 " fill="none" stroke="#000000" stroke-width="0.777"/>
<path d="M 1087,167 L 1082,163 L 1087,156 L 1094,151 L 1100,151 L 1097,160 L 1087,167 " fill="none" stroke="#000000" stroke-width="0.777"/>
<path d="M 1111,167 L 1111,156 L 1117,151 L 1122,151 L 1117,164 L 1111,167 " fill="none" stroke="#000000" stroke-width="0.777"/>
<path d="M 1169,167 L 1124,164 L 1133,151 L 1214,151 L 1214,166 L 1169,167 " fill="none" stroke="#000000" stroke-width="0.777"/>
<path d="M 1224,167 L 1217,157 L 1218,152 L 1222,150 L 1229,154 L 1230,158 L 1228,166 L 1224,167 " fill="none" stroke="#000000" stroke-width="0.777"/>
<path d="M 1238,167 L 1232,154 L 1235,150 L 1241,154 L 1242,166 L 1238,167 " fill="none" stroke="#000000" stroke-width="0.777"/>
<path d="M 1255,167 L 1249,151 L 1256,153 L 1259,165 L 1255,167 " fill="none" stroke="#000000" stroke-width="0.777"/>
<path d="M 1322,167 L 1261,152 L 1362,151 L 1369,154 L 1379,166 L 1322,167 " fill="none" stroke="#000000" stroke-width="0.777"/>
<path d="M 1384,158 L 1373,132 L 1386,146 L 1384,158 " fill="none" stroke="#000000" stroke-width="0.777"/>
<path d="M 1048,157 L 1063,41 L 1063,145 L 1048,157 " fill="none" stroke="#000000" stroke-width="0.777"/>
<path d="M 1498,151 L 1490,2 L 1500,2 L 1501,144 L 1498,151 " fill="none" stroke="#000000" stroke-width="0.777"/>
<path d="M 1447,148 L 1409,115 L 1415,115 L 1445,133 L 1449,139 L 1447,148 " fill="none" stroke="#000000" stroke-width="0.777"/>
<path d="M 1079,147 L 1094,122 L 1112,119 L 1091,143 L 1079,147 " fill="none" stroke="#000000" stroke-width="0.777"/>
<path d="M 1099,147 L 1111,126 L 1123,119 L 1123,123 L 1108,144 L 1099,147 " fill="none" stroke="#000000" stroke-width="0.777"/>
<path d="M 1123,147 L 1122,140 L 1136,120 L 1140,119 L 1138,130 L 1128,145 L 1123,147 " fill="none" stroke="#000000" stroke-width="0.777"/>
<path d="M 1175,147 L 1147,120 L 1215,121 L 1214,146 L 1175,147 " fill="none" stroke="#000000" stroke-width="0.777"/>
<path d="M 1224,147 L 1217,138 L 1217,123 L 1221,119 L 1227,124 L 1228,145 L 1224,147 " fill="none" stroke="#000000" stroke-width="0.777"/>
<path d="M 1236,147 L 1230,120 L 1235,121 L 1237,126 L 1239,146 L 1236,147 " fill="none" stroke="#000000" stroke-width="0.777"/>
<path d="M 1251,147 L 1242,123 L 1244,119 L 1248,120 L 1252,130 L 1255,145 L 1251,147 " fill="none" stroke="#000000" stroke-width="0.777"/>
<path d="M 1310,147 L 1252,120 L 1334,121 L 1359,144 L 1352,147 L 1310,147 " fill="none" stroke="#000000" stroke-width="0.777"/>
<path d="M 1402,145 L 1392,127 L 1401,133 L 1404,140 L 1402,145 " fill="none" stroke="#000000" stroke-width="0.777"/>
<path d="M 1364,140 L 1341,105 L 1366,125 L 1364,140 " fill="none" stroke="#000000" stroke-width="0.777"/>
<path d="M 1479,140 L 1459,1 L 1480,2 L 1479,140 " fill="none" stroke="#000000" stroke-width="0.777"/>
<path d="M 1068,139 L 1070,37 L 1094,32 L 1094,115 L 1068,139 " fill="none" stroke="#000000" stroke-width="0.777"/>
<path d="M 1383,130 L 1373,113 L 1385,122 L 1386,129 L 1383,130 " fill="none" stroke="#000000" stroke-width="0.777"/>
<path d="M 1447,124 L 1411,-1 L 1448,0 L 1450,107 L 1447,124 " fill="none" stroke="#000000" stroke-width="0.777"/>
<path d="M 1143,117 L 1147,107 L 1150,97 L 1184,44 L 1192,38 L 1212,3 L 1186,35 L 1148,91 L 1136,105 L 1129,108 L 1130,114 L 1123,116 L 1122,111 L 1127,109 L 1151,75 L 1132,93 L 1125,104 L 1112,104 L 1116,98 L 1127,94 L 1121,91 L 1119,85 L 1119,24 L 1136,18 L 1120,20 L 1119,17 L 1163,6 L 1168,9 L 1206,-2 L 1166,2 L 1121,12 L 1120,-3 L 1130,-4 L 1120,-6 L 1118,-54 L 1117,-6 L 1096,-6 L 1097,-70 L 1106,-63 L 1115,-61 L 1118,-55 L 1123,-57 L 1133,-51 L 1109,-67 L 1109,-74 L 1166,-37 L 1169,-31 L 1210,-8 L 1212,-4 L 1208,-2 L 1212,-2 L 1218,4 L 1220,37 L 1229,75 L 1225,86 L 1226,88 L 1230,83 L 1233,88 L 1231,93 L 1225,90 L 1219,94 L 1217,80 L 1216,92 L 1210,94 L 1164,93 L 1164,88 L 1156,94 L 1156,101 L 1143,117 " fill="none" stroke="#000000" stroke-width="0.777"/>
<path d="M 1124,90 L 1127,83 L 1124,90 " fill="none" stroke="#000000" stroke-width="0.777"/>
<path d="M 1167,84 L 1165,86 L 1167,84 " fill="none" stroke="#000000" stroke-width="0.777"/>
<path d="M 1153,73 L 1153,73 " fill="none" stroke="#000000" stroke-width="0.777"/>
<path d="M 1177,66 L 1177,66 " fill="none" stroke="#000000" stroke-width="0.777"/>
<path d="M 1159,65 L 1159,65 " fill="none" stroke="#000000" stroke-width="0.777"/>
<path d="M 1142,17 L 1142,17 " fill="none" stroke="#000000" stroke-width="0.777"/>
<path d="M 1161,11 L 1161,11 " fill="none" stroke="#000000" stroke-width="0.777"/>
<path d="M 1140,-47 L 1140,-47 " fill="none" stroke="#000000" stroke-width="0.777"/>
<path d="M 1182,117 L 1151,114 L 1158,108 L 1214,108 L 1216,113 L 1215,116 L 1208,117 L 1182,117 " fill="none" stroke="#000000" stroke-width="0.777"/>
<path d="M 1222,117 L 1219,108 L 1226,111 L 1222,117 " fill="none" stroke="#000000" stroke-width="0.777"/>
<path d="M 1244,117 L 1242,108 L 1248,114 L 1244,117 " fill="none" stroke="#000000" stroke-width="0.777"/>
<path d="M 1290,117 L 1248,110 L 1325,108 L 1329,113 L 1290,117 " fill="none" stroke="#000000" stroke-width="0.777"/>
<path d="M 1402,117 L 1391,103 L 1403,109 L 1402,117 " fill="none" stroke="#000000" stroke-width="0.777"/>
<path d="M 1108,116 L 1108,108 L 1119,110 L 1116,115 L 1108,116 " fill="none" stroke="#000000" stroke-width="0.777"/>
<path d="M 1232,116 L 1229,108 L 1236,113 L 1232,116 " fill="none" stroke="#000000" stroke-width="0.777"/>
<path d="M 1098,115 L 1103,29 L 1107,32 L 1108,19 L 1116,18 L 1118,21 L 1112,24 L 1117,28 L 1118,40 L 1117,91 L 1108,103 L 1107,38 L 1105,102 L 1098,115 " fill="none" stroke="#000000" stroke-width="0.777"/>
<path d="M 1107,37 L 1107,37 " fill="none" stroke="#000000" stroke-width="0.777"/>
<path d="M 1364,115 L 1341,90 L 1364,106 L 1364,115 " fill="none" stroke="#000000" stroke-width="0.777"/>
<path d="M 1336,112 L 1330,95 L 1336,99 L 1336,112 " fill="none" stroke="#000000" stroke-width="0.777"/>
<path d="M 1186,106 L 1156,103 L 1162,95 L 1214,96 L 1216,100 L 1214,106 L 1186,106 " fill="none" stroke="#000000" stroke-width="0.777"/>
<path d="M 1222,106 L 1217,98 L 1221,96 L 1225,98 L 1225,104 L 1222,106 " fill="none" stroke="#000000" stroke-width="0.777"/>
<path d="M 1241,106 L 1238,95 L 1244,100 L 1241,106 " fill="none" stroke="#000000" stroke-width="0.777"/>
<path d="M 1284,106 L 1246,96 L 1314,97 L 1321,104 L 1284,106 " fill="none" stroke="#000000" stroke-width="0.777"/>
<path d="M 1384,106 L 1372,90 L 1386,99 L 1387,103 L 1384,106 " fill="none" stroke="#000000" stroke-width="0.777"/>
<path d="M 1230,105 L 1227,97 L 1232,96 L 1233,103 L 1230,105 " fill="none" stroke="#000000" stroke-width="0.777"/>
<path d="M 1324,100 L 1318,84 L 1325,90 L 1324,100 " fill="none" stroke="#000000" stroke-width="0.777"/>
<path d="M 1402,99 L 1390,14 L 1391,0 L 1396,-2 L 1403,2 L 1402,99 " fill="none" stroke="#000000" stroke-width="0.777"/>
<path d="M 1277,94 L 1237,74 L 1241,92 L 1236,92 L 1229,58 L 1229,53 L 1232,55 L 1231,49 L 1219,8 L 1219,1 L 1223,-4 L 1221,-10 L 1217,-7 L 1209,-10 L 1124,-71 L 1119,-77 L 1121,-82 L 1143,-65 L 1121,-84 L 1121,-98 L 1150,-70 L 1128,-93 L 1125,-100 L 1189,-100 L 1195,-85 L 1196,-90 L 1192,-99 L 1196,-101 L 1206,-60 L 1206,-55 L 1203,-55 L 1204,-49 L 1213,-20 L 1210,-65 L 1209,-61 L 1201,-99 L 1270,-100 L 1261,-81 L 1275,-101 L 1278,-101 L 1279,-98 L 1253,-58 L 1246,-48 L 1243,-50 L 1222,-11 L 1239,-30 L 1283,-95 L 1292,-102 L 1292,-107 L 1304,-123 L 1314,-122 L 1303,-114 L 1304,-109 L 1293,-101 L 1294,-98 L 1283,-83 L 1302,-101 L 1306,-110 L 1312,-113 L 1318,-122 L 1330,-123 L 1328,-117 L 1317,-114 L 1322,-112 L 1320,-108 L 1306,-102 L 1310,-98 L 1294,-81 L 1309,-95 L 1313,-95 L 1314,-32 L 1298,-25 L 1311,-28 L 1313,-24 L 1280,-16 L 1267,-17 L 1226,-5 L 1270,-9 L 1277,-14 L 1305,-18 L 1313,-17 L 1311,-13 L 1307,-13 L 1314,-9 L 1310,-3 L 1314,2 L 1314,50 L 1302,46 L 1333,65 L 1337,70 L 1335,73 L 1263,26 L 1270,27 L 1227,4 L 1248,22 L 1322,74 L 1327,82 L 1320,81 L 1292,60 L 1312,78 L 1314,88 L 1311,89 L 1282,62 L 1310,92 L 1277,94 " fill="none" stroke="#000000" stroke-width="0.777"/>
<path d="M 1236,68 L 1236,68 " fill="none" stroke="#000000" stroke-width="0.777"/>
<path d="M 1235,64 L 1235,64 " fill="none" stroke="#000000" stroke-width="0.777"/>
<path d="M 1281,61 L 1281,61 " fill="none" stroke="#000000" stroke-width="0.777"/>
<path d="M 1296,43 L 1296,43 " fill="none" stroke="#000000" stroke-width="0.777"/>
<path d="M 1304,-11 L 1302,-13 L 1302,-10 L 1304,-11 " fill="none" stroke="#000000" stroke-width="0.777"/>
<path d="M 1215,-12 L 1215,-12 " fill="none" stroke="#000000" stroke-width="0.777"/>
<path d="M 1292,-10 L 1292,-10 " fill="none" stroke="#000000" stroke-width="0.777"/>
<path d="M 1290,-22 L 1288,-23 L 1290,-22 " fill="none" stroke="#000000" stroke-width="0.777"/>
<path d="M 1246,-52 L 1246,-52 " fill="none" stroke="#000000" stroke-width="0.777"/>
<path d="M 1250,-61 L 1250,-61 " fill="none" stroke="#000000" stroke-width="0.777"/>
<path d="M 1157,-63 L 1157,-63 " fill="none" stroke="#000000" stroke-width="0.777"/>
<path d="M 1278,-65 L 1278,-65 " fill="none" stroke="#000000" stroke-width="0.777"/>
<path d="M 1197,-75 L 1197,-75 " fill="none" stroke="#000000" stroke-width="0.777"/>
<path d="M 1209,-79 L 1208,-98 L 1206,-89 L 1209,-79 " fill="none" stroke="#000000" stroke-width="0.777"/>
<path d="M 1291,-77 L 1291,-77 " fill="none" stroke="#000000" stroke-width="0.777"/>
<path d="M 1217,-89 L 1217,-89 " fill="none" stroke="#000000" stroke-width="0.777"/>
<path d="M 1364,93 L 1340,72 L 1362,83 L 1366,88 L 1364,93 " fill="none" stroke="#000000" stroke-width="0.777"/>
<path d="M 1334,91 L 1331,82 L 1337,88 L 1334,91 " fill="none" stroke="#000000" stroke-width="0.777"/>
<path d="M 1385,89 L 1370,26 L 1373,-2 L 1386,0 L 1385,89 " fill="none" stroke="#000000" stroke-width="0.777"/>
<path d="M 860,85 L 863,68 L 916,58 L 922,60 L 921,70 L 860,85 " fill="none" stroke="#000000" stroke-width="0.777"/>
<path d="M 1364,79 L 1342,-2 L 1366,-2 L 1367,69 L 1364,79 " fill="none" stroke="#000000" stroke-width="0.777"/>
<path d="M 937,66 L 932,59 L 934,54 L 940,53 L 943,56 L 943,63 L 937,66 " fill="none" stroke="#000000" stroke-width="0.777"/>
<path d="M 956,62 L 953,51 L 975,47 L 975,57 L 956,62 " fill="none" stroke="#000000" stroke-width="0.777"/>
<path d="M 1335,62 L 1328,49 L 1328,-1 L 1332,-3 L 1336,-1 L 1335,62 " fill="none" stroke="#000000" stroke-width="0.777"/>
<path d="M 1323,56 L 1316,-1 L 1320,-3 L 1326,-2 L 1326,53 L 1323,56 " fill="none" stroke="#000000" stroke-width="0.777"/>
<path d="M 988,54 L 987,44 L 1024,38 L 1020,46 L 988,54 " fill="none" stroke="#000000" stroke-width="0.777"/>
<path d="M 867,50 L 861,35 L 922,30 L 920,42 L 867,50 " fill="none" stroke="#000000" stroke-width="0.777"/>
<path d="M 1034,43 L 1030,37 L 1033,34 L 1041,34 L 1042,39 L 1034,43 " fill="none" stroke="#000000" stroke-width="0.777"/>
<path d="M 936,40 L 932,30 L 934,27 L 942,27 L 943,35 L 936,40 " fill="none" stroke="#000000" stroke-width="0.777"/>
<path d="M 1050,38 L 1049,31 L 1064,30 L 1062,35 L 1050,38 " fill="none" stroke="#000000" stroke-width="0.777"/>
<path d="M 960,36 L 954,25 L 975,23 L 976,29 L 973,33 L 960,36 " fill="none" stroke="#000000" stroke-width="0.777"/>
<path d="M 1072,33 L 1070,26 L 1090,21 L 1094,25 L 1092,29 L 1072,33 " fill="none" stroke="#000000" stroke-width="0.777"/>
<path d="M 986,32 L 1013,18 L 1023,18 L 1024,21 L 1021,26 L 986,32 " fill="none" stroke="#000000" stroke-width="0.777"/>
<path d="M 1099,28 L 1099,20 L 1106,20 L 1099,28 " fill="none" stroke="#000000" stroke-width="0.777"/>
<path d="M 1035,24 L 1030,18 L 1042,14 L 1041,23 L 1035,24 " fill="none" stroke="#000000" stroke-width="0.777"/>
<path d="M 870,22 L 860,3 L 918,1 L 922,4 L 922,17 L 870,22 " fill="none" stroke="#000000" stroke-width="0.777"/>
<path d="M 1050,22 L 1048,14 L 1063,14 L 1061,20 L 1050,22 " fill="none" stroke="#000000" stroke-width="0.777"/>
<path d="M 1073,18 L 1067,11 L 1094,10 L 1090,16 L 1073,18 " fill="none" stroke="#000000" stroke-width="0.777"/>
<path d="M 936,17 L 932,4 L 938,0 L 942,3 L 943,14 L 936,17 " fill="none" stroke="#000000" stroke-width="0.777"/>
<path d="M 959,16 L 955,0 L 975,1 L 975,13 L 959,16 " fill="none" stroke="#000000" stroke-width="0.777"/>
<path d="M 1102,14 L 1101,7 L 1105,10 L 1102,14 " fill="none" stroke="#000000" stroke-width="0.777"/>
<path d="M 1112,14 L 1111,6 L 1107,0 L 1114,-3 L 1118,3 L 1112,6 L 1117,11 L 1112,14 " fill="none" stroke="#000000" stroke-width="0.777"/>
<path d="M 1004,12 L 984,11 L 984,3 L 992,-1 L 1024,1 L 1024,8 L 1021,11 L 1004,12 " fill="none" stroke="#000000" stroke-width="0.777"/>
<path d="M 1035,10 L 1030,1 L 1039,-2 L 1042,7 L 1035,10 " fill="none" stroke="#000000" stroke-width="0.777"/>
<path d="M 1054,9 L 1047,0 L 1061,-2 L 1062,6 L 1054,9 " fill="none" stroke="#000000" stroke-width="0.777"/>
<path d="M 1072,8 L 1066,0 L 1071,-3 L 1094,-1 L 1091,6 L 1072,8 " fill="none" stroke="#000000" stroke-width="0.777"/>
<path d="M 1100,6 L 1096,-1 L 1102,-3 L 1105,3 L 1100,6 " fill="none" stroke="#000000" stroke-width="0.777"/>
<path d="M 1320,-4 L 1325,-11 L 1326,-7 L 1320,-4 " fill="none" stroke="#000000" stroke-width="0.777"/>
<path d="M 1331,-4 L 1328,-10 L 1333,-13 L 1337,-7 L 1331,-4 " fill="none" stroke="#000000" stroke-width="0.777"/>
<path d="M 1355,-5 L 1340,-12 L 1366,-14 L 1366,-6 L 1355,-5 " fill="none" stroke="#000000" stroke-width="0.777"/>
<path d="M 1036,-5 L 1030,-20 L 1032,-105 L 1042,-99 L 1042,-17 L 1041,-6 L 1036,-5 " fill="none" stroke="#000000" stroke-width="0.777"/>
<path d="M 1056,-5 L 1046,-15 L 1046,-96 L 1061,-90 L 1063,-84 L 1062,-6 L 1056,-5 " fill="none" stroke="#000000" stroke-width="0.777"/>
<path d="M 1080,-5 L 1066,-9 L 1068,-85 L 1094,-72 L 1094,-8 L 1080,-5 " fill="none" stroke="#000000" stroke-width="0.777"/>
<path d="M 1379,-5 L 1372,-16 L 1386,-15 L 1386,-7 L 1379,-5 " fill="none" stroke="#000000" stroke-width="0.777"/>
<path d="M 1396,-5 L 1391,-16 L 1402,-17 L 1404,-8 L 1396,-5 " fill="none" stroke="#000000" stroke-width="0.777"/>
<path d="M 1020,-6 L 985,-11 L 986,-130 L 1024,-110 L 1024,-6 L 1020,-6 " fill="none" stroke="#000000" stroke-width="0.777"/>
<path d="M 1426,-6 L 1410,-17 L 1425,-20 L 1449,-19 L 1450,-10 L 1447,-7 L 1426,-6 " fill="none" stroke="#000000" stroke-width="0.777"/>
<path d="M 1470,-7 L 1459,-21 L 1481,-22 L 1480,-8 L 1470,-7 " fill="none" stroke="#000000" stroke-width="0.777"/>
<path d="M 1494,-7 L 1490,-21 L 1493,-24 L 1500,-24 L 1501,-12 L 1494,-7 " fill="none" stroke="#000000" stroke-width="0.777"/>
<path d="M 964,-8 L 952,-118 L 955,-147 L 973,-138 L 976,-129 L 976,-18 L 974,-9 L 964,-8 " fill="none" stroke="#000000" stroke-width="0.777"/>
<path d="M 1542,-9 L 1511,-12 L 1512,-24 L 1567,-29 L 1573,-27 L 1572,-10 L 1542,-9 " fill="none" stroke="#000000" stroke-width="0.777"/>
<path d="M 911,-9 L 860,-198 L 922,-165 L 922,-23 L 920,-10 L 911,-9 " fill="none" stroke="#000000" stroke-width="0.777"/>
<path d="M 938,-9 L 932,-27 L 932,-144 L 935,-159 L 942,-154 L 943,-138 L 943,-26 L 942,-10 L 938,-9 " fill="none" stroke="#000000" stroke-width="0.777"/>
<path d="M 1322,-14 L 1318,-20 L 1326,-19 L 1322,-14 " fill="none" stroke="#000000" stroke-width="0.777"/>
<path d="M 1333,-15 L 1328,-18 L 1334,-22 L 1337,-18 L 1333,-15 " fill="none" stroke="#000000" stroke-width="0.777"/>
<path d="M 1348,-17 L 1340,-21 L 1366,-25 L 1364,-18 L 1348,-17 " fill="none" stroke="#000000" stroke-width="0.777"/>
<path d="M 1374,-20 L 1372,-27 L 1386,-27 L 1386,-22 L 1374,-20 " fill="none" stroke="#000000" stroke-width="0.777"/>
<path d="M 1393,-22 L 1392,-30 L 1404,-30 L 1403,-24 L 1393,-22 " fill="none" stroke="#000000" stroke-width="0.777"/>
<path d="M 1319,-25 L 1318,-30 L 1331,-34 L 1337,-32 L 1333,-27 L 1328,-29 L 1319,-25 " fill="none" stroke="#000000" stroke-width="0.777"/>
<path d="M 1421,-25 L 1410,-33 L 1450,-37 L 1446,-28 L 1421,-25 " fill="none" stroke="#000000" stroke-width="0.777"/>
<path d="M 1344,-30 L 1340,-35 L 1362,-41 L 1367,-38 L 1362,-33 L 1344,-30 " fill="none" stroke="#000000" stroke-width="0.777"/>
<path d="M 1462,-29 L 1458,-40 L 1480,-43 L 1480,-33 L 1462,-29 " fill="none" stroke="#000000" stroke-width="0.777"/>
<path d="M 1320,-33 L 1316,-40 L 1317,-102 L 1325,-109 L 1326,-41 L 1324,-34 L 1320,-33 " fill="none" stroke="#000000" stroke-width="0.777"/>
<path d="M 1494,-33 L 1490,-43 L 1499,-46 L 1501,-37 L 1494,-33 " fill="none" stroke="#000000" stroke-width="0.777"/>
<path d="M 1331,-36 L 1328,-104 L 1330,-114 L 1335,-117 L 1337,-45 L 1335,-38 L 1331,-36 " fill="none" stroke="#000000" stroke-width="0.777"/>
<path d="M 1376,-36 L 1371,-41 L 1385,-46 L 1385,-39 L 1376,-36 " fill="none" stroke="#000000" stroke-width="0.777"/>
<path d="M 1516,-36 L 1511,-46 L 1514,-49 L 1573,-57 L 1574,-45 L 1570,-42 L 1516,-36 " fill="none" stroke="#000000" stroke-width="0.777"/>
<path d="M 1342,-39 L 1366,-146 L 1366,-47 L 1342,-39 " fill="none" stroke="#000000" stroke-width="0.777"/>
<path d="M 1395,-40 L 1390,-46 L 1400,-50 L 1405,-48 L 1402,-42 L 1395,-40 " fill="none" stroke="#000000" stroke-width="0.777"/>
<path d="M 1415,-44 L 1412,-53 L 1446,-62 L 1450,-58 L 1445,-50 L 1415,-44 " fill="none" stroke="#000000" stroke-width="0.777"/>
<path d="M 1374,-48 L 1370,-65 L 1371,-152 L 1385,-164 L 1387,-58 L 1385,-52 L 1374,-48 " fill="none" stroke="#000000" stroke-width="0.777"/>
<path d="M 1460,-54 L 1459,-64 L 1475,-69 L 1481,-67 L 1479,-58 L 1460,-54 " fill="none" stroke="#000000" stroke-width="0.777"/>
<path d="M 1394,-55 L 1391,-171 L 1402,-181 L 1403,-58 L 1394,-55 " fill="none" stroke="#000000" stroke-width="0.777"/>
<path d="M 1412,-60 L 1410,-190 L 1448,-225 L 1450,-72 L 1412,-60 " fill="none" stroke="#000000" stroke-width="0.777"/>
<path d="M 1495,-60 L 1490,-69 L 1493,-73 L 1500,-73 L 1501,-64 L 1495,-60 " fill="none" stroke="#000000" stroke-width="0.777"/>
<path d="M 1518,-66 L 1512,-77 L 1568,-91 L 1574,-89 L 1574,-78 L 1568,-75 L 1518,-66 " fill="none" stroke="#000000" stroke-width="0.777"/>
<path d="M 1105,-70 L 1097,-81 L 1104,-77 L 1105,-70 " fill="none" stroke="#000000" stroke-width="0.777"/>
<path d="M 1460,-74 L 1479,-254 L 1481,-81 L 1460,-74 " fill="none" stroke="#000000" stroke-width="0.777"/>
<path d="M 1091,-78 L 1066,-96 L 1067,-100 L 1091,-86 L 1094,-80 L 1091,-78 " fill="none" stroke="#000000" stroke-width="0.777"/>
<path d="M 1115,-78 L 1108,-91 L 1118,-83 L 1115,-78 " fill="none" stroke="#000000" stroke-width="0.777"/>
<path d="M 1494,-84 L 1490,-267 L 1496,-273 L 1500,-273 L 1501,-88 L 1494,-84 " fill="none" stroke="#000000" stroke-width="0.777"/>
<path d="M 1103,-86 L 1098,-101 L 1105,-92 L 1103,-86 " fill="none" stroke="#000000" stroke-width="0.777"/>
<path d="M 1117,-94 L 1106,-102 L 1100,-102 L 1096,-108 L 1097,-120 L 1102,-118 L 1106,-105 L 1109,-110 L 1114,-105 L 1117,-94 " fill="none" stroke="#000000" stroke-width="0.777"/>
<path d="M 1514,-90 L 1512,-288 L 1567,-340 L 1573,-342 L 1573,-110 L 1570,-106 L 1514,-90 " fill="none" stroke="#000000" stroke-width="0.777"/>
<path d="M 1093,-96 L 1066,-120 L 1070,-122 L 1083,-113 L 1093,-102 L 1093,-96 " fill="none" stroke="#000000" stroke-width="0.777"/>
<path d="M 1060,-98 L 1047,-114 L 1062,-105 L 1063,-100 L 1060,-98 " fill="none" stroke="#000000" stroke-width="0.777"/>
<path d="M 1278,-102 L 1283,-117 L 1292,-124 L 1294,-120 L 1285,-113 L 1287,-109 L 1278,-102 " fill="none" stroke="#000000" stroke-width="0.777"/>
<path d="M 1153,-103 L 1112,-112 L 1177,-113 L 1187,-110 L 1186,-104 L 1153,-103 " fill="none" stroke="#000000" stroke-width="0.777"/>
<path d="M 1194,-103 L 1191,-114 L 1187,-124 L 1194,-122 L 1194,-103 " fill="none" stroke="#000000" stroke-width="0.777"/>
<path d="M 1204,-103 L 1200,-124 L 1206,-122 L 1204,-103 " fill="none" stroke="#000000" stroke-width="0.777"/>
<path d="M 1213,-103 L 1209,-113 L 1277,-113 L 1272,-103 L 1224,-103 L 1216,-106 L 1213,-103 " fill="none" stroke="#000000" stroke-width="0.777"/>
<path d="M 1040,-110 L 1032,-124 L 1041,-118 L 1043,-113 L 1040,-110 " fill="none" stroke="#000000" stroke-width="0.777"/>
<path d="M 1092,-112 L 1068,-146 L 1094,-122 L 1092,-112 " fill="none" stroke="#000000" stroke-width="0.777"/>
<path d="M 1146,-115 L 1102,-122 L 1177,-124 L 1184,-120 L 1184,-115 L 1146,-115 " fill="none" stroke="#000000" stroke-width="0.777"/>
<path d="M 1212,-115 L 1207,-122 L 1214,-124 L 1216,-117 L 1212,-115 " fill="none" stroke="#000000" stroke-width="0.777"/>
<path d="M 1248,-115 L 1217,-121 L 1250,-124 L 1283,-122 L 1278,-115 L 1248,-115 " fill="none" stroke="#000000" stroke-width="0.777"/>
<path d="M 1061,-119 L 1047,-139 L 1061,-129 L 1061,-119 " fill="none" stroke="#000000" stroke-width="0.777"/>
<path d="M 1022,-121 L 984,-146 L 985,-154 L 989,-154 L 1021,-133 L 1024,-127 L 1022,-121 " fill="none" stroke="#000000" stroke-width="0.777"/>
<path d="M 1336,-123 L 1336,-123 " fill="none" stroke="#000000" stroke-width="0.777"/>
<path d="M 1156,-126 L 1073,-153 L 1174,-153 L 1181,-128 L 1156,-126 " fill="none" stroke="#000000" stroke-width="0.777"/>
<path d="M 1201,-126 L 1194,-148 L 1198,-155 L 1203,-146 L 1204,-128 L 1201,-126 " fill="none" stroke="#000000" stroke-width="0.777"/>
<path d="M 1211,-127 L 1205,-146 L 1206,-154 L 1209,-155 L 1214,-153 L 1216,-142 L 1216,-129 L 1211,-127 " fill="none" stroke="#000000" stroke-width="0.777"/>
<path d="M 1252,-126 L 1218,-152 L 1222,-155 L 1298,-152 L 1285,-127 L 1252,-126 " fill="none" stroke="#000000" stroke-width="0.777"/>
<path d="M 1293,-126 L 1301,-146 L 1308,-154 L 1312,-154 L 1313,-150 L 1304,-136 L 1293,-126 " fill="none" stroke="#000000" stroke-width="0.777"/>
<path d="M 1313,-127 L 1310,-132 L 1326,-152 L 1336,-152 L 1323,-134 L 1313,-127 " fill="none" stroke="#000000" stroke-width="0.777"/>
<path d="M 1188,-127 L 1180,-154 L 1184,-154 L 1187,-149 L 1190,-135 L 1188,-127 " fill="none" stroke="#000000" stroke-width="0.777"/>
<path d="M 1330,-127 L 1340,-148 L 1348,-153 L 1359,-153 L 1338,-128 L 1330,-127 " fill="none" stroke="#000000" stroke-width="0.777"/>
<path d="M 1040,-134 L 1032,-151 L 1042,-141 L 1040,-134 " fill="none" stroke="#000000" stroke-width="0.777"/>
<path d="M 1060,-139 L 1046,-157 L 1048,-165 L 1062,-153 L 1060,-139 " fill="none" stroke="#000000" stroke-width="0.777"/>
<path d="M 1022,-148 L 986,-188 L 1022,-160 L 1022,-148 " fill="none" stroke="#000000" stroke-width="0.777"/>
<path d="M 972,-150 L 953,-176 L 975,-163 L 975,-153 L 972,-150 " fill="none" stroke="#000000" stroke-width="0.777"/>
<path d="M 1041,-157 L 1031,-182 L 1042,-172 L 1041,-157 " fill="none" stroke="#000000" stroke-width="0.777"/>
<path d="M 1119,-158 L 1056,-173 L 1163,-174 L 1169,-171 L 1172,-162 L 1163,-158 L 1119,-158 " fill="none" stroke="#000000" stroke-width="0.777"/>
<path d="M 1181,-158 L 1175,-166 L 1174,-171 L 1177,-174 L 1181,-173 L 1183,-168 L 1184,-160 L 1181,-158 " fill="none" stroke="#000000" stroke-width="0.777"/>
<path d="M 1196,-158 L 1192,-171 L 1195,-174 L 1201,-167 L 1200,-159 L 1196,-158 " fill="none" stroke="#000000" stroke-width="0.777"/>
<path d="M 1210,-158 L 1203,-172 L 1206,-174 L 1212,-174 L 1215,-170 L 1214,-158 L 1210,-158 " fill="none" stroke="#000000" stroke-width="0.777"/>
<path d="M 1260,-158 L 1220,-174 L 1309,-173 L 1302,-158 L 1260,-158 " fill="none" stroke="#000000" stroke-width="0.777"/>
<path d="M 1314,-158 L 1316,-171 L 1326,-173 L 1322,-163 L 1314,-158 " fill="none" stroke="#000000" stroke-width="0.777"/>
<path d="M 1336,-158 L 1341,-172 L 1352,-172 L 1341,-159 L 1336,-158 " fill="none" stroke="#000000" stroke-width="0.777"/>
<path d="M 1358,-158 L 1352,-161 L 1362,-173 L 1378,-172 L 1368,-160 L 1358,-158 " fill="none" stroke="#000000" stroke-width="0.777"/>
<path d="M 941,-170 L 934,-190 L 942,-185 L 941,-170 " fill="none" stroke="#000000" stroke-width="0.777"/>
<path d="M 1022,-173 L 986,-225 L 1022,-193 L 1022,-173 " fill="none" stroke="#000000" stroke-width="0.777"/>
<path d="M 1108,-178 L 1040,-188 L 1162,-190 L 1167,-180 L 1108,-178 " fill="none" stroke="#000000" stroke-width="0.777"/>
<path d="M 1177,-178 L 1170,-187 L 1172,-191 L 1179,-185 L 1180,-179 L 1177,-178 " fill="none" stroke="#000000" stroke-width="0.777"/>
<path d="M 1194,-178 L 1191,-191 L 1198,-187 L 1198,-180 L 1194,-178 " fill="none" stroke="#000000" stroke-width="0.777"/>
<path d="M 1209,-178 L 1205,-190 L 1212,-190 L 1214,-187 L 1214,-178 L 1209,-178 " fill="none" stroke="#000000" stroke-width="0.777"/>
<path d="M 1266,-178 L 1220,-190 L 1318,-188 L 1313,-178 L 1266,-178 " fill="none" stroke="#000000" stroke-width="0.777"/>
<path d="M 1326,-178 L 1327,-188 L 1336,-190 L 1333,-181 L 1326,-178 " fill="none" stroke="#000000" stroke-width="0.777"/>
<path d="M 1352,-178 L 1351,-187 L 1357,-190 L 1364,-189 L 1359,-180 L 1352,-178 " fill="none" stroke="#000000" stroke-width="0.777"/>
<path d="M 1376,-178 L 1370,-181 L 1378,-190 L 1394,-189 L 1389,-181 L 1376,-178 " fill="none" stroke="#000000" stroke-width="0.777"/>
<path d="M 919,-183 L 859,-221 L 860,-237 L 870,-234 L 918,-201 L 922,-196 L 922,-186 L 919,-183 " fill="none" stroke="#000000" stroke-width="0.777"/>
<path d="M 973,-183 L 953,-213 L 975,-198 L 973,-183 " fill="none" stroke="#000000" stroke-width="0.777"/>
<path d="M 1152,-196 L 996,-235 L 1147,-236 L 1151,-233 L 1160,-202 L 1158,-197 L 1152,-196 " fill="none" stroke="#000000" stroke-width="0.777"/>
<path d="M 1172,-196 L 1159,-233 L 1163,-237 L 1169,-234 L 1174,-213 L 1176,-198 L 1172,-196 " fill="none" stroke="#000000" stroke-width="0.777"/>
<path d="M 1192,-196 L 1183,-221 L 1181,-234 L 1185,-238 L 1192,-234 L 1196,-199 L 1192,-196 " fill="none" stroke="#000000" stroke-width="0.777"/>
<path d="M 1208,-196 L 1201,-207 L 1199,-235 L 1202,-237 L 1212,-235 L 1214,-202 L 1212,-197 L 1208,-196 " fill="none" stroke="#000000" stroke-width="0.777"/>
<path d="M 1304,-196 L 1222,-236 L 1343,-236 L 1324,-199 L 1321,-196 L 1304,-196 " fill="none" stroke="#000000" stroke-width="0.777"/>
<path d="M 1339,-197 L 1334,-200 L 1354,-234 L 1366,-237 L 1367,-233 L 1354,-211 L 1344,-198 L 1339,-197 " fill="none" stroke="#000000" stroke-width="0.777"/>
<path d="M 1368,-196 L 1361,-201 L 1383,-231 L 1390,-237 L 1400,-236 L 1400,-231 L 1368,-196 " fill="none" stroke="#000000" stroke-width="0.777"/>
<path d="M 1396,-197 L 1415,-234 L 1421,-237 L 1439,-235 L 1405,-198 L 1396,-197 " fill="none" stroke="#000000" stroke-width="0.777"/>
<path d="M 940,-207 L 934,-229 L 942,-223 L 940,-207 " fill="none" stroke="#000000" stroke-width="0.777"/>
<path d="M 973,-214 L 953,-256 L 975,-238 L 976,-222 L 973,-214 " fill="none" stroke="#000000" stroke-width="0.777"/>
<path d="M 919,-222 L 860,-287 L 863,-288 L 921,-240 L 922,-225 L 919,-222 " fill="none" stroke="#000000" stroke-width="0.777"/>
<path d="M 940,-244 L 933,-276 L 938,-274 L 943,-265 L 943,-249 L 940,-244 " fill="none" stroke="#000000" stroke-width="0.777"/>
<path d="M 1066,-244 L 966,-267 L 1139,-268 L 1146,-247 L 1133,-244 L 1066,-244 " fill="none" stroke="#000000" stroke-width="0.777"/>
<path d="M 1161,-244 L 1152,-268 L 1161,-269 L 1163,-264 L 1166,-246 L 1161,-244 " fill="none" stroke="#000000" stroke-width="0.777"/>
<path d="M 1187,-244 L 1179,-249 L 1176,-265 L 1179,-269 L 1189,-265 L 1187,-244 " fill="none" stroke="#000000" stroke-width="0.777"/>
<path d="M 1207,-244 L 1198,-268 L 1208,-269 L 1213,-265 L 1214,-247 L 1207,-244 " fill="none" stroke="#000000" stroke-width="0.777"/>
<path d="M 1286,-244 L 1222,-267 L 1361,-268 L 1348,-244 L 1286,-244 " fill="none" stroke="#000000" stroke-width="0.777"/>
<path d="M 1370,-244 L 1364,-249 L 1373,-266 L 1389,-268 L 1378,-247 L 1370,-244 " fill="none" stroke="#000000" stroke-width="0.777"/>
<path d="M 1402,-244 L 1410,-267 L 1427,-267 L 1410,-245 L 1402,-244 " fill="none" stroke="#000000" stroke-width="0.777"/>
<path d="M 1438,-244 L 1427,-247 L 1445,-267 L 1470,-267 L 1453,-248 L 1446,-244 L 1438,-244 " fill="none" stroke="#000000" stroke-width="0.777"/>
<path d="M 920,-262 L 860,-346 L 922,-289 L 920,-262 " fill="none" stroke="#000000" stroke-width="0.777"/>
<path d="M 1429,-278 L 1428,-288 L 1442,-287 L 1438,-280 L 1429,-278 " fill="none" stroke="#000000" stroke-width="0.777"/>
<path d="M 1470,-278 L 1456,-281 L 1463,-287 L 1488,-288 L 1488,-284 L 1482,-279 L 1470,-278 " fill="none" stroke="#000000" stroke-width="0.777"/>
<path d="M 1044,-278 L 949,-281 L 948,-288 L 1115,-288 L 1134,-287 L 1136,-284 L 1136,-279 L 1044,-278 " fill="none" stroke="#000000" stroke-width="0.777"/>
<path d="M 1154,-278 L 1147,-287 L 1155,-288 L 1159,-285 L 1160,-280 L 1154,-278 " fill="none" stroke="#000000" stroke-width="0.777"/>
<path d="M 1181,-278 L 1175,-288 L 1185,-287 L 1187,-281 L 1181,-278 " fill="none" stroke="#000000" stroke-width="0.777"/>
<path d="M 1205,-278 L 1196,-288 L 1212,-288 L 1212,-278 L 1205,-278 " fill="none" stroke="#000000" stroke-width="0.777"/>
<path d="M 1295,-278 L 1221,-284 L 1223,-288 L 1339,-288 L 1371,-285 L 1367,-278 L 1295,-278 " fill="none" stroke="#000000" stroke-width="0.777"/>
<path d="M 1391,-278 L 1387,-287 L 1402,-287 L 1399,-279 L 1391,-278 " fill="none" stroke="#000000" stroke-width="0.777"/>
<path d="M 1090,-299 L 877,-360 L 1113,-360 L 1130,-301 L 1090,-299 " fill="none" stroke="#000000" stroke-width="0.777"/>
<path d="M 1231,-299 L 1222,-303 L 1224,-360 L 1411,-360 L 1379,-299 L 1231,-299 " fill="none" stroke="#000000" stroke-width="0.777"/>
<path d="M 1408,-299 L 1427,-355 L 1433,-361 L 1449,-360 L 1450,-357 L 1423,-315 L 1414,-302 L 1408,-299 " fill="none" stroke="#000000" stroke-width="0.777"/>
<path d="M 1149,-299 L 1128,-358 L 1130,-361 L 1144,-359 L 1155,-304 L 1153,-299 L 1149,-299 " fill="none" stroke="#000000" stroke-width="0.777"/>
<path d="M 1178,-299 L 1162,-360 L 1178,-359 L 1184,-301 L 1178,-299 " fill="none" stroke="#000000" stroke-width="0.777"/>
<path d="M 1204,-299 L 1194,-306 L 1191,-358 L 1195,-361 L 1210,-359 L 1212,-300 L 1204,-299 " fill="none" stroke="#000000" stroke-width="0.777"/>
<path d="M 1445,-299 L 1474,-356 L 1483,-361 L 1500,-360 L 1454,-300 L 1445,-299 " fill="none" stroke="#000000" stroke-width="0.777"/>
<path d="M 1489,-299 L 1475,-302 L 1523,-357 L 1529,-361 L 1558,-359 L 1502,-299 L 1489,-299 " fill="none" stroke="#000000" stroke-width="0.777"/>
<path d="M 1132,-375 L 1117,-411 L 1132,-412 L 1134,-409 L 1140,-376 L 1132,-375 " fill="none" stroke="#000000" stroke-width="0.777"/>
<path d="M 1168,-375 L 1159,-378 L 1154,-406 L 1156,-412 L 1172,-410 L 1176,-378 L 1174,-375 L 1168,-375 " fill="none" stroke="#000000" stroke-width="0.777"/>
<path d="M 1200,-375 L 1187,-408 L 1192,-413 L 1205,-413 L 1210,-408 L 1210,-376 L 1200,-375 " fill="none" stroke="#000000" stroke-width="0.777"/>
<path d="M 1322,-375 L 1225,-408 L 1227,-412 L 1439,-411 L 1420,-375 L 1322,-375 " fill="none" stroke="#000000" stroke-width="0.777"/>
<path d="M 1452,-375 L 1442,-378 L 1460,-410 L 1484,-412 L 1462,-376 L 1452,-375 " fill="none" stroke="#000000" stroke-width="0.777"/>
<path d="M 1502,-375 L 1515,-412 L 1541,-411 L 1515,-376 L 1502,-375 " fill="none" stroke="#000000" stroke-width="0.777"/>
<path d="M 1120,-428 L 1108,-446 L 1127,-445 L 1129,-430 L 1120,-428 " fill="none" stroke="#000000" stroke-width="0.777"/>
<path d="M 1161,-428 L 1150,-446 L 1168,-445 L 1170,-428 L 1161,-428 " fill="none" stroke="#000000" stroke-width="0.777"/>
<path d="M 1197,-428 L 1187,-447 L 1208,-446 L 1209,-429 L 1197,-428 " fill="none" stroke="#000000" stroke-width="0.777"/>
<path d="M 1338,-428 L 1225,-441 L 1227,-447 L 1458,-445 L 1449,-428 L 1338,-428 " fill="none" stroke="#000000" stroke-width="0.777"/>
<path d="M 1486,-428 L 1483,-446 L 1506,-446 L 1507,-443 L 1498,-428 L 1486,-428 " fill="none" stroke="#000000" stroke-width="0.777"/>
<path d="M 1542,-428 L 1541,-446 L 1569,-446 L 1556,-428 L 1542,-428 " fill="none" stroke="#000000" stroke-width="0.777"/>
<path d="M 1196,-465 L 1178,-557 L 1204,-559 L 1207,-550 L 1209,-467 L 1196,-465 " fill="none" stroke="#000000" stroke-width="0.777"/>
<path d="M 1113,-465 L 1080,-552 L 1081,-557 L 1104,-557 L 1122,-470 L 1122,-465 L 1113,-465 " fill="none" stroke="#000000" stroke-width="0.777"/>
<path d="M 1156,-465 L 1131,-553 L 1131,-557 L 1135,-559 L 1154,-558 L 1156,-555 L 1165,-466 L 1156,-465 " fill="none" stroke="#000000" stroke-width="0.777"/>
<path d="M 1349,-465 L 1229,-557 L 1519,-556 L 1470,-466 L 1349,-465 " fill="none" stroke="#000000" stroke-width="0.777"/>
<path d="M 1509,-465 L 1548,-555 L 1556,-558 L 1581,-557 L 1522,-465 L 1509,-465 " fill="none" stroke="#000000" stroke-width="0.777"/>
<path d="M 1086,-580 L 1073,-584 L 1062,-625 L 1064,-629 L 1090,-628 L 1098,-581 L 1086,-580 " fill="none" stroke="#000000" stroke-width="0.777"/>
<path d="M 1140,-580 L 1120,-628 L 1148,-628 L 1153,-583 L 1140,-580 " fill="none" stroke="#000000" stroke-width="0.777"/>
<path d="M 1187,-580 L 1176,-584 L 1173,-628 L 1202,-629 L 1206,-620 L 1206,-581 L 1187,-580 " fill="none" stroke="#000000" stroke-width="0.777"/>
<path d="M 1382,-580 L 1230,-625 L 1236,-628 L 1257,-629 L 1557,-629 L 1532,-581 L 1382,-580 " fill="none" stroke="#000000" stroke-width="0.777"/>
<path d="M 1070,-654 L 1049,-683 L 1079,-682 L 1083,-655 L 1070,-654 " fill="none" stroke="#000000" stroke-width="0.777"/>
<path d="M 1130,-654 L 1112,-683 L 1142,-681 L 1145,-658 L 1140,-654 L 1130,-654 " fill="none" stroke="#000000" stroke-width="0.777"/>
<path d="M 1188,-654 L 1170,-684 L 1204,-682 L 1204,-655 L 1188,-654 " fill="none" stroke="#000000" stroke-width="0.777"/>
<path d="M 1059,-712 L 1039,-717 L 1005,-860 L 1044,-859 L 1073,-715 L 1059,-712 " fill="none" stroke="#000000" stroke-width="0.777"/>
<path d="M 1122,-712 L 1106,-715 L 1084,-856 L 1088,-861 L 1119,-861 L 1122,-857 L 1138,-714 L 1122,-712 " fill="none" stroke="#000000" stroke-width="0.777"/>
<path d="M 1189,-712 L 1157,-847 L 1157,-860 L 1160,-861 L 1200,-860 L 1201,-856 L 1204,-712 L 1189,-712 " fill="none" stroke="#000000" stroke-width="0.777"/>
</g></svg>
