<?xml version="1.0" standalone="no"?>
<!DOCTYPE svg PUBLIC "-//W3C//DTD SVG 20010904//EN"
 "http://www.w3.org/TR/2001/REC-SVG-20010904/DTD/svg10.dtd">
<svg version="1.0" xmlns="http://www.w3.org/2000/svg"
 width="1125.000000pt" height="2000.000000pt" viewBox="0 0 1125.000000 2000.000000"
 preserveAspectRatio="xMidYMid meet">
<metadata>
Created by potrace 1.16, written by Peter Selinger 2001-2019
</metadata>
<g transform="translate(0.000000,2000.000000) scale(0.100000,-0.100000)"
fill="#000000" stroke="none">
<path d="M5652 19869 c-2072 0 -3773 -3 -3779 -6 -10 -4 -13 -1994 -13 -9904
l0 -9899 3795 0 3795 0 0 9899 c0 9017 -1 9899 -16 9905 -9 3 -1711 6 -3782 5z
m-2 -120 c91 0 171 -3 179 -8 12 -8 13 -73 7 -418 -7 -367 -6 -411 8 -423 13
-10 62 -12 226 -8 116 3 213 8 217 11 3 4 14 123 24 264 10 142 23 328 29 413
7 85 14 158 16 162 3 5 90 8 194 8 104 0 191 -3 193 -7 3 -5 -4 -75 -14 -158
-10 -82 -23 -195 -29 -250 -6 -55 -18 -158 -26 -230 -8 -71 -16 -145 -18 -162
-4 -25 0 -35 14 -43 11 -6 87 -8 196 -4 98 3 180 7 183 9 2 2 17 82 32 177 16
95 41 252 55 348 15 96 30 202 35 235 5 33 11 66 14 73 3 10 54 12 227 10
l223 -3 -3 -30 c-2 -16 -17 -100 -33 -185 -16 -85 -34 -171 -39 -190 -5 -19
-16 -71 -24 -115 -8 -44 -24 -124 -36 -177 -11 -53 -23 -103 -26 -111 -3 -8 2
-22 11 -31 14 -14 43 -16 193 -16 97 0 183 4 191 9 7 5 17 26 21 47 5 22 14
57 19 79 6 22 15 58 20 80 5 22 20 83 34 135 13 52 34 138 46 190 12 52 33
140 47 195 14 55 28 106 30 113 2 9 53 12 209 12 166 0 207 -3 211 -14 3 -8
-20 -99 -51 -202 -32 -104 -59 -198 -62 -209 -3 -11 -14 -49 -24 -85 -11 -36
-29 -96 -41 -135 -11 -38 -27 -89 -34 -113 -8 -23 -14 -53 -14 -66 0 -13 8
-27 18 -31 9 -3 224 -3 477 1 253 4 486 4 518 0 l57 -7 0 -175 0 -174 -590 0
c-551 0 -590 -1 -598 -17 -5 -10 -29 -81 -52 -158 -23 -77 -46 -156 -50 -175
-4 -19 -36 -129 -70 -245 -34 -115 -65 -223 -70 -240 -5 -16 -18 -61 -30 -100
-12 -38 -31 -101 -42 -140 -11 -38 -24 -83 -28 -100 -5 -16 -25 -84 -44 -150
-20 -66 -35 -131 -34 -145 l3 -25 800 -2 800 -3 0 -135 0 -135 -837 0 c-823 0
-838 0 -858 -20 -11 -11 -22 -32 -26 -47 -3 -16 -12 -48 -19 -73 -7 -25 -18
-64 -25 -87 -7 -23 -10 -49 -7 -57 6 -14 95 -16 892 -16 l886 0 -3 -125 -3
-125 -926 0 -926 0 -10 -22 c-6 -13 -20 -54 -32 -93 -11 -38 -39 -132 -62
-208 -22 -76 -38 -145 -35 -153 5 -12 148 -14 1001 -14 l995 0 0 -110 0 -110
-1028 0 c-967 0 -1030 -1 -1044 -17 -8 -10 -25 -56 -37 -103 -13 -47 -34 -123
-47 -170 -13 -47 -31 -107 -39 -135 -8 -27 -30 -102 -49 -165 -19 -63 -49
-161 -67 -218 -20 -65 -28 -107 -22 -113 6 -6 459 -10 1169 -12 l1159 -2 3
-87 3 -88 -1189 0 c-935 0 -1192 -3 -1205 -12 -9 -7 -25 -47 -35 -88 -13 -50
-16 -79 -9 -87 7 -10 264 -13 1223 -13 l1214 0 0 -75 0 -75 -1244 0 c-983 0
-1246 -3 -1253 -12 -5 -7 -21 -51 -36 -98 -14 -47 -36 -120 -49 -162 -18 -63
-20 -80 -9 -90 9 -10 270 -13 1236 -13 l1224 0 66 65 65 64 0 -3828 0 -3828
-48 51 -48 51 -172 0 c-138 0 -172 -3 -172 -14 0 -7 12 -29 28 -49 15 -20 70
-87 123 -149 53 -62 106 -123 117 -134 13 -14 38 -24 69 -28 26 -3 59 -4 73
-3 l25 2 3 -262 2 -263 -145 0 c-132 0 -145 -2 -145 -17 0 -10 46 -79 101
-153 55 -74 120 -165 145 -202 l44 -67 0 -356 0 -355 -22 -1 c-13 0 -50 -1
-82 0 -33 0 -68 -5 -78 -10 -17 -9 -17 -12 4 -51 13 -22 28 -48 33 -57 6 -9
40 -68 78 -132 l67 -116 0 -289 0 -289 -56 95 c-31 52 -61 98 -68 102 -6 4
-770 8 -1698 8 -927 0 -1693 -3 -1702 -6 -14 -5 -16 -27 -16 -140 0 -121 2
-134 19 -144 13 -6 591 -10 1767 -10 961 0 1748 -1 1750 -3 2 -1 3 -50 4 -107
1 -58 1 -120 1 -138 l-1 -32 -1756 0 c-965 0 -1760 -3 -1766 -6 -7 -5 -9 -60
-5 -173 4 -91 11 -407 17 -701 6 -294 12 -551 13 -570 l2 -35 1745 -5 1745 -5
0 -175 0 -175 -1729 -2 c-1173 -1 -1732 -5 -1739 -12 -7 -7 -10 -116 -9 -313
1 -167 5 -354 9 -415 l6 -113 -197 0 -198 0 4 427 3 428 -223 3 -222 2 -10
-22 c-5 -13 -16 -140 -25 -283 -8 -143 -20 -326 -27 -407 l-12 -148 -192 0
c-106 0 -195 4 -198 8 -2 4 -1 28 4 52 5 25 14 99 20 165 6 66 20 194 31 285
10 91 24 201 30 244 11 73 11 80 -6 93 -14 10 -63 13 -190 13 -152 0 -174 -2
-186 -17 -9 -10 -27 -90 -42 -183 -15 -91 -42 -262 -61 -380 -19 -118 -36
-228 -38 -245 l-3 -30 -227 -3 c-179 -2 -228 0 -228 10 0 7 5 31 11 53 5 22
14 65 19 95 5 30 19 98 30 150 12 52 25 119 31 148 5 28 13 76 19 105 5 28 20
100 33 159 13 59 20 113 16 120 -6 10 -56 13 -193 14 -159 1 -187 -1 -199 -15
-7 -9 -28 -77 -46 -151 -18 -74 -37 -151 -42 -170 -5 -19 -36 -142 -69 -273
-33 -131 -60 -241 -60 -243 0 -2 -94 -4 -210 -4 -182 0 -210 2 -210 15 0 9 9
44 19 78 11 34 33 107 50 162 17 55 37 125 45 155 8 30 24 87 36 125 12 39 25
84 30 100 4 17 20 68 34 114 16 52 23 88 17 94 -6 6 -232 10 -543 11 l-533 1
0 175 0 175 596 3 596 2 12 43 c7 23 21 74 33 112 11 39 28 97 38 130 10 33
28 96 40 140 12 44 25 91 30 105 4 14 18 59 31 100 12 41 35 113 49 160 15 47
37 119 48 160 12 41 28 100 36 130 8 30 37 131 65 223 28 93 49 173 46 178 -4
5 -328 9 -804 9 -627 0 -801 3 -808 13 -6 6 -11 67 -12 134 -1 67 2 124 7 127
6 3 374 6 818 7 445 0 827 3 849 7 40 7 40 8 66 87 14 44 32 98 39 121 6 22
10 49 8 60 -3 19 -26 19 -891 24 l-888 5 -2 120 -2 120 926 3 c867 2 927 3
941 20 8 9 25 55 37 102 13 47 27 94 31 105 4 11 22 69 40 129 30 102 31 110
15 122 -13 10 -224 13 -994 13 -537 1 -982 1 -988 1 -10 0 -13 27 -13 104 0
85 3 105 16 110 9 3 477 6 1040 6 l1024 0 9 23 c5 12 18 54 29 92 11 39 30
106 42 150 12 44 35 125 51 180 17 55 34 111 39 125 5 14 20 63 34 110 13 47
34 118 46 158 13 44 19 77 13 83 -5 5 -494 10 -1173 11 l-1165 3 0 85 0 85
1194 3 c812 1 1198 5 1207 13 7 5 18 33 24 62 7 29 17 60 21 69 5 9 6 24 3 32
-6 14 -129 16 -1228 18 l-1221 3 0 68 c0 38 4 72 9 75 6 3 564 6 1240 7 677 1
1236 3 1243 4 7 0 30 61 53 134 22 72 45 146 50 163 6 17 10 40 10 52 l0 22
-1238 0 -1237 0 -59 -65 c-32 -36 -62 -63 -66 -60 -4 3 -8 1724 -8 3824 -1
2101 2 3822 7 3825 4 3 27 -17 50 -44 l43 -50 169 0 c106 0 170 4 174 10 4 6
0 21 -8 33 -8 12 -50 63 -92 112 -43 50 -104 118 -135 153 l-58 62 -70 0 -70
0 -7 163 c-3 89 -5 207 -3 262 l3 100 147 3 c123 2 148 5 148 17 0 8 -39 70
-87 138 -48 67 -107 146 -131 176 -24 30 -52 72 -63 93 -19 36 -19 57 -17 381
l3 342 80 3 c44 1 90 4 103 7 12 3 22 9 22 14 0 5 -46 85 -102 178 l-103 168
-2 267 c-1 148 2 279 5 293 6 22 13 14 56 -68 27 -50 53 -98 59 -104 7 -10
362 -13 1713 -13 1204 0 1705 3 1709 11 4 6 6 68 6 137 -1 70 -6 131 -12 137
-7 7 -615 12 -1772 15 l-1762 5 0 130 0 130 1756 3 c1657 2 1757 3 1771 20 12
14 13 51 7 247 -4 127 -13 399 -19 605 -5 206 -10 427 -10 490 0 77 -4 120
-12 128 -9 9 -411 12 -1749 12 -1575 0 -1737 1 -1743 16 -3 9 -6 84 -6 169 0
110 3 155 13 162 7 6 674 10 1742 12 952 2 1734 6 1738 10 4 5 3 176 -2 382
-6 206 -11 391 -11 411 0 26 5 38 18 41 9 3 91 5 182 6z"/>
<path d="M6039 18540 c-136 0 -210 -4 -214 -11 -4 -6 -9 -119 -11 -252 -2
-133 -8 -452 -14 -708 -5 -256 -6 -479 -1 -495 l7 -29 162 -3 c93 -1 170 2
181 7 15 8 19 28 25 108 3 54 17 260 31 458 14 198 25 397 25 442 0 46 4 102
10 125 5 24 13 108 18 188 6 92 5 150 -1 158 -7 9 -63 12 -218 12z"/>
<path d="M6802 18538 l-182 2 -10 -24 c-5 -14 -14 -78 -20 -143 -5 -65 -15
-156 -20 -203 -6 -47 -15 -128 -20 -180 -5 -52 -14 -129 -20 -170 -5 -41 -14
-122 -20 -180 -5 -58 -16 -157 -24 -220 -8 -63 -20 -167 -27 -231 -6 -64 -9
-124 -6 -133 5 -14 26 -16 139 -16 73 0 143 3 156 6 13 4 22 14 22 26 0 10 16
116 35 235 20 119 40 248 45 287 6 39 15 98 20 131 6 33 14 94 20 135 5 41 19
131 30 200 12 69 31 184 42 255 11 72 21 150 22 175 l1 45 -183 3z"/>
<path d="M7589 18540 c-117 0 -170 -4 -181 -12 -9 -7 -19 -31 -23 -53 -4 -22
-10 -58 -15 -80 -5 -22 -18 -92 -30 -155 -12 -63 -26 -135 -31 -160 -5 -25
-13 -70 -19 -100 -5 -30 -16 -84 -24 -120 -8 -36 -38 -175 -65 -310 -28 -135
-62 -298 -76 -364 -20 -90 -23 -122 -14 -132 9 -11 45 -14 159 -14 131 0 149
2 155 18 4 9 11 35 16 57 4 22 19 90 33 150 15 61 47 191 72 290 26 99 57 225
69 280 13 55 33 138 45 185 12 47 26 105 31 130 5 25 21 88 35 140 14 52 29
109 34 125 5 17 12 47 16 69 5 28 3 41 -7 47 -8 5 -89 9 -180 9z"/>
<path d="M5966 16770 c-83 0 -157 -4 -165 -9 -11 -7 -15 -42 -19 -141 -4 -106
-2 -134 9 -141 8 -5 82 -9 164 -9 83 0 155 4 161 8 7 4 14 60 18 135 6 94 4
132 -4 143 -10 11 -44 14 -164 14z"/>
<path d="M6565 16770 c-66 -1 -127 -5 -136 -10 -12 -7 -20 -37 -28 -107 -7
-54 -14 -111 -16 -127 -3 -16 0 -35 6 -42 9 -11 44 -14 139 -14 90 0 130 4
137 13 6 6 15 39 21 72 6 33 14 91 18 129 5 53 3 70 -7 77 -8 5 -68 9 -134 9z"/>
<path d="M7200 16769 c-63 0 -124 -4 -136 -9 -13 -5 -25 -24 -32 -52 -7 -23
-19 -80 -28 -126 -9 -45 -13 -89 -10 -97 4 -12 31 -15 140 -15 119 0 136 2
145 18 5 10 19 56 31 102 12 47 25 102 27 124 4 26 1 41 -8 47 -8 5 -66 8
-129 8z"/>
<path d="M3881 16220 l-1621 0 0 -22 c0 -13 14 -48 31 -78 17 -30 51 -93 76
-140 25 -47 63 -118 85 -158 22 -39 48 -77 58 -82 12 -7 541 -10 1518 -10
1299 0 1501 2 1512 15 6 8 9 22 6 32 -3 10 -6 109 -8 221 -2 182 -4 204 -19
213 -11 5 -656 9 -1638 9z"/>
<path d="M5946 16220 c-99 0 -147 -4 -158 -12 -13 -11 -17 -48 -21 -228 -3
-129 -1 -223 4 -233 9 -15 28 -17 150 -17 135 0 140 1 149 23 6 12 16 117 24
232 8 137 10 214 3 223 -7 8 -50 12 -151 12z"/>
<path d="M6491 16220 c-64 0 -121 -4 -127 -8 -6 -4 -18 -63 -27 -132 -9 -69
-22 -169 -28 -223 -6 -54 -8 -105 -5 -113 4 -11 30 -14 120 -14 109 0 116 1
130 23 8 12 21 69 30 127 8 58 22 152 31 209 12 78 13 106 4 117 -9 11 -40 14
-128 14z"/>
<path d="M7064 16220 c-76 0 -125 -4 -129 -11 -4 -6 -13 -40 -21 -77 -8 -37
-28 -135 -45 -219 -18 -83 -29 -159 -26 -167 5 -13 26 -16 116 -16 89 0 112 3
129 18 13 11 28 50 41 107 12 50 26 106 32 125 5 19 18 75 29 125 14 64 16 93
8 102 -7 9 -45 13 -134 13z"/>
<path d="M2169 15513 c-76 1 -138 -2 -146 -8 -11 -8 -4 -25 36 -90 27 -44 58
-91 68 -105 10 -14 49 -72 87 -130 37 -58 137 -210 222 -339 84 -128 162 -240
171 -247 13 -9 54 -13 141 -14 104 0 122 2 122 16 0 8 -12 36 -26 62 -15 26
-50 88 -80 137 -30 50 -85 140 -124 200 -39 61 -77 125 -86 144 -9 19 -27 49
-40 66 -13 18 -24 36 -24 40 0 5 -6 16 -14 24 -7 9 -25 36 -38 61 -14 25 -42
73 -62 107 -20 34 -45 65 -56 68 -11 3 -79 7 -151 8z"/>
<path d="M4095 15510 c-962 0 -1446 -3 -1450 -10 -4 -6 14 -47 38 -93 25 -45
59 -109 77 -142 18 -33 44 -80 57 -104 14 -23 46 -84 72 -133 25 -49 51 -97
56 -106 6 -10 45 -82 88 -162 42 -80 83 -153 91 -162 12 -17 83 -18 1224 -18
l1211 0 7 22 c3 12 4 94 0 182 -4 89 -7 280 -8 426 0 146 -5 273 -10 283 -8
16 -88 17 -1453 17z"/>
<path d="M5914 15508 c-98 2 -134 -1 -142 -10 -7 -9 -13 -128 -16 -333 -4
-176 -7 -377 -9 -447 -1 -69 1 -129 4 -132 3 -3 14 -6 25 -7 10 -1 63 -1 116
-1 82 2 97 5 102 20 3 9 10 91 15 182 6 91 17 263 26 383 9 120 15 246 13 280
l-3 62 -131 3z"/>
<path d="M6395 15510 c-63 0 -116 -4 -120 -9 -3 -5 -14 -94 -25 -198 -11 -103
-24 -224 -30 -268 -6 -44 -14 -118 -19 -165 -5 -47 -15 -127 -21 -179 -6 -52
-7 -98 -3 -102 4 -4 15 -8 23 -9 8 -1 50 -2 92 -1 63 1 79 4 87 19 5 9 14 53
19 97 6 44 21 143 33 220 11 77 23 151 25 165 2 14 10 70 18 125 8 55 22 140
30 189 8 49 12 95 9 102 -4 11 -32 14 -118 14z"/>
<path d="M6917 15510 c-80 0 -118 -4 -124 -12 -6 -7 -23 -76 -38 -153 -15 -77
-31 -162 -35 -190 -4 -27 -20 -102 -35 -165 -15 -63 -30 -135 -35 -160 -4 -25
-15 -80 -24 -123 -10 -43 -16 -91 -14 -105 3 -27 4 -27 73 -25 39 1 82 2 97 3
21 0 28 7 36 33 6 17 24 88 42 157 17 69 40 157 50 195 11 39 22 90 25 114 3
24 17 86 31 139 14 52 28 100 31 106 4 6 11 31 16 56 4 25 11 64 14 88 l5 42
-115 0z"/>
<path d="M2279 14400 c-101 0 -138 -3 -142 -12 -2 -7 5 -25 17 -40 12 -15 39
-50 61 -79 22 -28 50 -55 63 -60 13 -5 70 -9 127 -9 57 0 110 3 119 6 9 3 16
12 16 20 0 8 -16 38 -36 67 -20 28 -48 64 -62 80 -26 27 -26 27 -163 27z"/>
<path d="M2881 14398 c-92 3 -120 1 -124 -10 -2 -7 9 -39 26 -71 17 -32 45
-71 64 -87 33 -29 37 -30 138 -30 57 0 106 4 110 10 3 5 -10 40 -29 77 -20 37
-43 77 -51 88 -14 18 -30 20 -134 23z"/>
<path d="M4398 14400 c-1021 0 -1148 -2 -1148 -15 0 -9 14 -45 32 -81 18 -36
43 -74 56 -85 24 -18 56 -19 1118 -19 1008 0 1094 1 1109 17 14 13 16 31 13
90 -2 51 -8 77 -18 83 -9 6 -468 10 -1162 10z"/>
<path d="M5863 14398 c-107 3 -112 2 -118 -19 -4 -13 -7 -54 -7 -92 0 -38 3
-71 5 -74 3 -2 48 -7 100 -10 77 -4 97 -2 110 11 9 9 18 43 22 79 4 35 5 73 3
83 -3 17 -14 19 -115 22z"/>
<path d="M6249 14400 c-76 0 -90 -3 -98 -19 -6 -10 -11 -51 -12 -91 -1 -52 2
-74 12 -81 8 -5 43 -9 79 -9 36 0 70 4 76 8 6 4 16 30 22 57 6 28 13 63 15 79
3 17 3 36 0 43 -4 9 -30 13 -94 13z"/>
<path d="M6660 14400 c-50 0 -81 -4 -88 -13 -6 -6 -13 -26 -17 -42 -3 -17 -11
-49 -17 -72 -8 -33 -8 -46 2 -58 9 -11 32 -15 79 -15 44 0 74 5 88 15 13 9 25
31 29 53 3 20 11 51 17 69 8 24 7 35 -2 47 -10 12 -33 16 -91 16z"/>
<path d="M2557 14055 c-59 0 -115 -4 -123 -8 -8 -4 -14 -13 -14 -20 0 -7 33
-53 73 -104 39 -50 97 -123 127 -162 30 -39 66 -74 80 -79 14 -5 68 -6 120 -3
75 5 95 9 98 21 1 9 -49 89 -113 177 -63 89 -121 165 -127 170 -7 4 -61 7
-121 8z"/>
<path d="M3028 14056 c-19 2 -31 -3 -37 -15 -8 -14 13 -52 103 -187 l112 -169
102 -3 c97 -3 102 -2 102 18 0 11 -19 51 -41 88 -23 37 -68 111 -101 165 l-59
97 -77 1 c-42 1 -89 3 -104 5z"/>
<path d="M6538 14055 c-7 3 -21 0 -30 -7 -12 -9 -27 -65 -49 -174 -18 -88 -30
-168 -26 -177 5 -14 20 -17 75 -17 44 0 73 5 80 13 6 7 27 78 46 158 20 81 36
158 36 173 0 25 -2 26 -59 26 -33 0 -65 2 -73 5z"/>
<path d="M4512 14048 c-902 2 -1063 0 -1068 -12 -3 -8 22 -67 56 -132 34 -66
76 -143 93 -172 19 -31 41 -55 54 -58 12 -3 452 -4 977 -2 525 1 958 6 962 10
4 4 6 72 5 150 -1 79 -6 159 -10 178 l-7 35 -1062 3z"/>
<path d="M5849 14048 c-69 2 -99 -1 -107 -10 -5 -7 -13 -85 -17 -173 -4 -100
-2 -165 4 -174 7 -12 30 -14 103 -12 51 1 94 4 97 6 2 2 7 42 12 88 6 47 8
127 7 178 l-3 94 -96 3z"/>
<path d="M6207 14050 c-57 0 -78 -4 -88 -16 -7 -9 -17 -46 -21 -83 -3 -36 -11
-106 -17 -154 -5 -49 -7 -95 -4 -103 4 -10 24 -14 78 -14 71 0 73 1 83 28 5
16 20 92 32 170 13 77 20 147 17 156 -5 13 -22 16 -80 16z"/>
<path d="M2418 13538 c-128 2 -157 0 -168 -13 -10 -12 8 -35 118 -147 71 -73
171 -178 223 -233 52 -55 122 -128 156 -162 l61 -63 136 0 c116 0 136 2 136
15 0 9 -76 102 -168 208 -92 106 -179 205 -193 221 -13 17 -51 62 -85 100
l-60 71 -156 3z"/>
<path d="M2943 13540 c-58 0 -96 -5 -107 -13 -17 -12 -13 -19 46 -91 34 -43
83 -104 107 -135 25 -31 74 -94 110 -141 35 -47 94 -120 130 -162 62 -72 69
-77 106 -78 22 0 56 -3 76 -6 26 -4 40 -2 53 11 16 16 16 19 -2 46 -10 16 -49
72 -88 125 -38 53 -86 116 -106 141 -21 24 -38 48 -38 53 0 4 -15 26 -32 48
-18 22 -55 72 -83 112 -27 39 -58 76 -67 81 -9 5 -57 9 -105 9z"/>
<path d="M3422 13540 c-58 0 -83 -4 -92 -15 -10 -12 -2 -30 49 -102 33 -49
114 -171 180 -273 66 -102 129 -195 141 -208 19 -20 29 -23 93 -20 60 3 72 6
75 21 2 10 -37 82 -86 160 -49 78 -100 162 -115 187 -14 25 -43 77 -65 116
-22 38 -54 85 -70 102 -29 31 -33 32 -110 32z"/>
<path d="M4654 13534 c-688 1 -928 -2 -931 -10 -2 -7 9 -38 26 -70 17 -33 41
-77 54 -99 13 -22 47 -83 74 -135 28 -52 72 -137 99 -189 40 -76 55 -96 83
-108 28 -12 152 -14 781 -11 412 2 751 6 755 10 4 4 6 139 6 300 -1 162 -6
297 -11 302 -5 5 -387 10 -936 10z"/>
<path d="M5825 13540 c-38 -1 -78 -5 -87 -11 -16 -9 -18 -26 -17 -137 0 -70
-3 -202 -7 -294 -6 -155 -5 -167 13 -175 10 -5 45 -8 78 -6 41 1 63 7 71 18 7
9 15 78 19 158 4 78 8 171 10 207 1 36 6 100 10 144 6 62 5 80 -6 87 -8 5 -45
9 -84 9z"/>
<path d="M6158 13539 c-24 -1 -56 -4 -71 -6 -17 -3 -31 -13 -36 -26 -4 -12
-12 -62 -16 -112 -4 -49 -9 -106 -11 -125 -2 -19 -11 -89 -20 -155 -10 -66
-18 -136 -18 -155 l-1 -35 55 -7 c37 -5 59 -3 67 5 7 7 23 80 37 162 13 83 29
184 35 225 6 41 16 104 21 140 6 36 8 71 5 78 -3 7 -21 11 -47 11z"/>
<path d="M6470 13540 c-25 0 -54 -6 -64 -13 -13 -10 -26 -53 -46 -153 -15 -76
-38 -186 -50 -244 -12 -58 -26 -123 -30 -144 -4 -22 -6 -46 -3 -53 3 -8 23
-13 58 -13 33 0 57 5 64 14 7 8 19 43 27 78 8 34 19 80 24 101 6 20 14 54 19
75 5 20 16 69 25 107 8 39 24 104 36 145 19 70 19 76 3 88 -9 6 -38 12 -63 12z"/>
<path d="M7920 13534 c-624 1 -1153 0 -1175 -2 -22 -2 -43 -6 -47 -10 -4 -4
-23 -69 -42 -144 -20 -75 -42 -152 -50 -170 -8 -18 -20 -53 -26 -78 -7 -25
-17 -61 -23 -80 -5 -19 -13 -45 -18 -58 -5 -13 -9 -33 -9 -46 0 -13 7 -27 16
-30 9 -3 412 -6 897 -5 485 0 922 4 970 7 l88 7 112 116 c62 64 146 154 187
199 41 45 117 123 168 173 51 50 91 97 90 105 -3 13 -144 15 -1138 16z"/>
<path d="M9220 13388 c-9 1 -78 -59 -160 -140 -80 -79 -213 -208 -295 -288
l-150 -145 3 -120 c1 -66 5 -126 7 -134 4 -10 11 -10 33 5 15 9 54 40 87 68
33 28 88 75 121 106 34 30 92 83 130 116 38 34 106 92 152 130 45 38 85 78 88
89 2 11 3 85 2 165 -3 121 -6 145 -18 148z"/>
<path d="M2108 13360 c-17 0 -18 -63 -18 -1180 l0 -1180 23 -9 c12 -5 56 -16
97 -26 41 -9 95 -23 120 -31 25 -8 74 -23 110 -34 36 -12 106 -32 157 -45 50
-14 98 -22 107 -19 14 6 16 98 16 971 0 812 -2 968 -14 991 -8 15 -70 79 -138
142 -67 63 -175 165 -238 226 -63 62 -135 130 -160 153 -25 22 -53 41 -62 41z"/>
<path d="M3090 12807 c-52 -1 -105 -3 -117 -5 -14 -2 -23 -10 -23 -21 0 -10
17 -30 38 -45 36 -24 45 -26 154 -26 64 0 119 4 122 9 4 5 3 16 0 24 -3 9 -22
27 -42 41 -35 24 -45 25 -132 23z"/>
<path d="M3519 12806 c-35 2 -75 -1 -89 -5 -14 -4 -24 -14 -22 -22 2 -8 11
-22 20 -33 9 -10 28 -22 41 -28 14 -5 55 -11 93 -14 67 -5 68 -5 68 20 0 14
-11 37 -24 52 -20 24 -32 28 -87 30z"/>
<path d="M3899 12806 c-30 3 -62 0 -71 -6 -10 -6 -18 -17 -18 -24 0 -7 14 -25
31 -42 24 -23 40 -29 77 -30 26 -1 55 0 65 3 10 2 17 14 17 27 0 12 -11 33
-24 45 -16 15 -40 24 -77 27z"/>
<path d="M4875 12803 c-396 2 -728 1 -737 -1 -10 -2 -18 -12 -18 -22 0 -10 10
-31 23 -45 l22 -26 715 0 c657 1 716 3 728 18 6 9 12 22 12 28 0 6 -6 19 -12
28 -12 15 -76 17 -733 20z"/>
<path d="M5853 12801 c-10 2 -46 3 -81 1 l-63 -3 3 -42 3 -42 63 -3 c38 -2 69
2 78 9 8 6 14 26 14 44 0 23 -5 34 -17 36z"/>
<path d="M6303 12810 c-20 0 -41 -8 -54 -21 -13 -13 -19 -30 -17 -47 3 -25 7
-27 51 -30 27 -2 55 2 62 8 7 6 16 23 20 38 5 19 2 30 -11 39 -10 7 -33 13
-51 13z"/>
<path d="M7408 12809 l-907 2 -16 -25 c-9 -14 -15 -35 -13 -48 l3 -23 909 -3
910 -2 33 32 c18 18 33 37 33 44 0 6 -10 14 -22 16 -13 3 -431 6 -930 7z"/>
<path d="M6034 12800 c-49 0 -56 -3 -66 -26 -8 -18 -9 -30 -2 -42 6 -9 28 -20
48 -24 21 -5 45 -4 55 2 10 5 21 22 24 37 3 15 3 33 0 40 -3 8 -24 13 -59 13z"/>
<path d="M9215 12797 c-11 1 -37 -11 -58 -27 -22 -16 -59 -46 -83 -67 -24 -21
-61 -52 -81 -69 -21 -17 -83 -65 -138 -107 -55 -41 -127 -97 -160 -124 -33
-27 -65 -60 -72 -73 -7 -14 -13 -47 -13 -75 0 -27 3 -60 6 -72 4 -13 13 -23
22 -23 9 0 43 19 77 42 33 23 120 87 193 143 74 55 144 107 157 115 13 8 55
37 95 64 39 28 73 59 76 70 3 12 4 62 2 111 -3 82 -5 90 -23 92z"/>
<path d="M8495 12683 c-8 4 -28 -5 -45 -19 -16 -14 -34 -42 -40 -62 -6 -20
-10 -82 -8 -136 2 -66 7 -101 15 -103 7 -3 28 11 48 29 l37 34 4 126 c3 105 2
127 -11 131z"/>
<path d="M2844 12670 c-6 0 -15 -7 -18 -16 -3 -9 -6 -428 -6 -932 0 -504 4
-922 8 -927 4 -6 24 -16 44 -22 26 -8 39 -8 47 0 8 8 11 277 11 905 0 641 -3
899 -11 915 -6 12 -23 34 -37 50 -14 15 -31 27 -38 27z"/>
<path d="M4933 12612 c-363 2 -668 1 -679 0 -10 -2 -23 -7 -27 -11 -4 -4 17
-54 46 -112 52 -99 56 -104 93 -112 22 -4 311 -7 644 -5 l605 3 3 106 c2 80
-1 109 -11 117 -10 8 -202 12 -674 14z"/>
<path d="M3257 12610 c-69 0 -118 -4 -122 -10 -4 -6 16 -36 43 -68 28 -31 72
-78 99 -104 l48 -46 114 -4 c78 -2 116 1 118 8 2 7 -22 42 -54 80 -32 37 -74
85 -94 106 l-37 38 -115 0z"/>
<path d="M3644 12610 c-40 0 -76 -5 -79 -10 -4 -6 15 -41 42 -78 26 -37 63
-84 82 -105 l34 -38 75 3 c42 2 77 8 78 13 2 6 -21 44 -52 85 -30 41 -67 87
-82 103 -23 25 -32 27 -98 27z"/>
<path d="M4003 12610 c-34 0 -64 -4 -67 -9 -3 -5 20 -49 53 -97 32 -49 67 -96
77 -105 10 -9 44 -19 75 -23 42 -4 58 -3 62 7 3 7 -22 58 -55 112 -32 55 -65
103 -71 107 -7 4 -40 8 -74 8z"/>
<path d="M5784 12610 c-52 0 -66 -3 -72 -17 -4 -10 -7 -60 -7 -111 0 -72 3
-95 15 -102 8 -5 27 -10 41 -10 14 0 40 5 56 11 30 10 31 11 37 99 4 49 5 99
1 110 -5 17 -15 20 -71 20z"/>
<path d="M6003 12610 c-26 0 -45 -5 -48 -12 -2 -7 -9 -40 -15 -72 -5 -33 -10
-79 -10 -102 0 -28 5 -44 15 -48 8 -3 29 -3 46 1 19 4 35 16 44 34 8 15 15 43
15 61 0 18 5 50 11 71 8 28 7 42 -2 53 -7 8 -29 14 -56 14z"/>
<path d="M6268 12610 c-24 0 -48 -4 -54 -8 -7 -4 -17 -34 -24 -67 -6 -33 -16
-78 -20 -100 -5 -22 -5 -44 -1 -48 4 -4 24 -10 43 -12 25 -4 40 0 50 13 9 9
25 57 37 106 12 49 20 95 17 102 -3 9 -21 14 -48 14z"/>
<path d="M7305 12610 c-481 0 -876 -3 -878 -7 -3 -5 -16 -49 -31 -100 -14 -50
-26 -98 -26 -106 0 -8 14 -17 31 -21 17 -3 241 -6 498 -6 256 0 605 3 776 7
l309 6 103 105 c56 58 100 109 97 114 -3 4 -398 8 -879 8z"/>
<path d="M8286 12500 c-6 0 -50 -38 -98 -85 -48 -47 -95 -96 -103 -109 -13
-19 -14 -41 -9 -120 6 -80 10 -96 24 -96 9 0 55 33 102 73 47 39 91 82 97 95
6 13 11 65 11 117 0 51 -3 100 -6 109 -3 9 -11 16 -18 16z"/>
<path d="M3043 12470 l-23 0 0 -864 c0 -699 2 -866 13 -874 7 -6 38 -18 68
-26 30 -8 71 -20 92 -26 22 -6 45 -9 53 -6 11 4 13 130 14 763 0 417 -3 780
-6 807 -7 45 -14 55 -98 137 -60 59 -98 89 -113 89z"/>
<path d="M9225 12307 c-5 1 -35 -11 -65 -28 -30 -18 -73 -46 -95 -63 -22 -17
-65 -48 -95 -67 -30 -20 -86 -56 -125 -79 -38 -24 -101 -64 -139 -89 -38 -25
-74 -55 -82 -66 -8 -14 -11 -41 -7 -87 5 -54 9 -68 22 -68 9 0 41 16 71 35 30
19 84 51 120 71 36 21 85 51 110 69 25 17 77 48 115 69 39 21 95 55 125 75
l55 36 0 94 c0 54 -4 96 -10 98z"/>
<path d="M3608 12292 c-29 1 -79 2 -110 0 -37 -2 -58 -7 -58 -15 0 -7 30 -43
67 -82 36 -38 115 -120 175 -182 106 -108 111 -112 161 -118 29 -4 68 -5 87
-3 24 2 36 9 38 21 2 10 -19 44 -49 80 -29 34 -80 92 -114 128 -33 36 -79 88
-102 116 -40 48 -46 51 -95 55z"/>
<path d="M3895 12293 c-22 2 -48 2 -58 0 -13 -3 -16 -10 -11 -26 4 -12 12 -29
18 -38 6 -9 30 -38 54 -65 24 -27 71 -86 105 -131 34 -45 70 -93 79 -106 12
-18 29 -26 64 -30 26 -3 54 -3 61 0 7 3 13 13 13 23 0 10 -38 67 -84 127 -45
60 -100 134 -120 164 -20 31 -47 61 -59 67 -12 6 -40 12 -62 15z"/>
<path d="M4204 12295 c-18 1 -37 -1 -44 -5 -8 -5 -9 -16 -5 -31 4 -13 19 -39
33 -58 14 -19 41 -57 59 -84 18 -27 33 -52 33 -56 1 -3 24 -40 53 -80 40 -58
59 -77 85 -83 20 -5 40 -5 52 2 11 6 20 15 20 21 0 6 -19 43 -42 82 -23 40
-45 75 -50 78 -5 3 -21 30 -36 60 -15 30 -42 75 -60 102 -18 26 -41 47 -50 48
-9 1 -31 2 -48 4z"/>
<path d="M4985 12299 c-308 0 -566 -3 -572 -6 -7 -2 -13 -11 -13 -20 0 -8 38
-85 85 -170 47 -85 85 -159 85 -163 0 -4 9 -15 21 -26 20 -18 46 -19 514 -22
348 -2 500 0 515 8 20 10 20 17 16 183 -2 95 -7 179 -10 188 -4 9 -24 19 -44
23 -20 3 -289 5 -597 5z"/>
<path d="M5783 12295 c-21 2 -47 1 -58 -2 -11 -3 -23 -8 -27 -11 -3 -4 -9 -77
-13 -162 -4 -85 -6 -168 -6 -184 1 -17 4 -32 6 -34 3 -3 26 -7 53 -10 35 -3
53 0 64 11 12 12 16 54 21 198 4 101 5 185 3 187 -3 2 -22 5 -43 7z"/>
<path d="M6200 12298 c-14 2 -32 -3 -41 -10 -8 -7 -21 -31 -27 -53 -6 -22 -15
-60 -21 -85 -5 -25 -15 -76 -22 -115 -6 -38 -15 -79 -19 -91 -5 -11 -4 -28 1
-37 6 -9 20 -17 33 -17 13 0 30 8 39 18 9 9 21 37 27 62 7 25 16 72 22 105 5
33 16 74 24 91 9 18 14 51 12 80 -3 44 -6 49 -28 52z"/>
<path d="M7119 12297 c-479 2 -760 -1 -771 -7 -9 -6 -26 -43 -37 -83 -12 -39
-30 -99 -40 -132 -10 -33 -24 -81 -31 -107 -7 -26 -10 -54 -7 -63 6 -13 76
-15 604 -14 329 0 620 4 647 8 44 7 57 16 120 82 39 41 117 123 174 183 57 59
101 113 99 120 -3 8 -201 12 -758 13z"/>
<path d="M5971 12290 c-22 0 -43 -6 -48 -12 -4 -7 -13 -53 -19 -103 -7 -49
-18 -130 -25 -178 -11 -76 -11 -90 1 -98 8 -5 25 -9 36 -9 12 0 27 7 34 15 7
8 23 86 35 172 13 87 24 163 25 168 1 6 2 18 1 28 -1 13 -10 17 -40 17z"/>
<path d="M8471 12220 c-4 0 -20 -13 -36 -30 -25 -26 -29 -38 -33 -110 -5 -79
-4 -80 20 -80 14 0 37 13 56 33 30 31 32 38 32 104 0 55 -3 72 -16 77 -9 3
-19 6 -23 6z"/>
<path d="M7986 12189 c-12 10 -36 -8 -138 -106 -68 -66 -148 -143 -179 -172
-32 -28 -62 -64 -68 -80 -7 -15 -11 -61 -9 -102 3 -68 5 -74 23 -71 11 2 36
19 55 37 19 18 65 59 101 92 36 33 74 67 85 76 10 9 45 37 77 62 37 30 57 54
58 68 0 12 3 58 5 103 4 63 1 84 -10 93z"/>
<path d="M3363 12170 c-6 0 -14 -7 -17 -16 -3 -9 -6 -349 -6 -757 1 -568 4
-746 13 -758 7 -9 37 -22 67 -28 30 -7 78 -21 105 -31 28 -10 81 -28 118 -39
38 -11 75 -17 83 -14 12 5 14 100 12 652 l-3 646 -80 75 c-44 41 -125 119
-180 173 -56 53 -106 97 -112 97z"/>
<path d="M8296 12059 c-11 9 -32 -3 -102 -57 -49 -38 -97 -79 -107 -90 -16
-17 -18 -30 -12 -86 4 -36 12 -66 17 -66 5 0 19 5 31 11 12 7 51 34 87 62 36
28 73 59 83 70 12 14 17 36 17 82 0 41 -5 67 -14 74z"/>
<path d="M9215 11907 c-11 2 -78 -30 -150 -71 -71 -41 -166 -92 -210 -114 -44
-23 -109 -57 -145 -77 -36 -20 -73 -44 -83 -53 -18 -16 -18 -52 -16 -777 1
-449 6 -767 11 -778 9 -18 25 -18 296 -12 158 4 295 12 305 17 16 8 17 61 15
936 -3 919 -3 927 -23 929z"/>
<path d="M3967 11835 c-45 0 -73 -5 -80 -13 -8 -10 1 -24 36 -60 l47 -47 81
-4 c51 -2 85 1 92 8 8 8 1 22 -28 52 -22 22 -49 46 -60 52 -11 6 -51 12 -88
12z"/>
<path d="M4265 11833 c-11 2 -31 2 -45 0 -14 -3 -29 -9 -34 -13 -6 -6 2 -26
19 -50 16 -23 37 -46 47 -51 10 -6 38 -9 61 -7 30 2 43 8 45 20 2 10 -14 35
-35 57 -21 22 -47 41 -58 44z"/>
<path d="M5145 11838 c-387 2 -463 1 -480 -11 -19 -15 -19 -15 0 -57 10 -23
29 -48 40 -56 18 -12 100 -14 476 -12 l454 3 3 56 c2 46 0 58 -15 65 -10 5
-225 10 -478 12z"/>
<path d="M5753 11839 c-4 -1 -18 -4 -31 -6 -12 -2 -27 -13 -33 -24 -6 -11 -11
-34 -11 -51 -1 -20 6 -36 18 -45 12 -9 32 -12 53 -9 19 3 38 11 43 18 4 7 8
32 8 55 0 32 -5 45 -19 53 -11 5 -23 9 -28 9z"/>
<path d="M6821 11838 c-536 2 -600 1 -615 -13 -8 -9 -20 -34 -26 -56 -6 -23
-9 -48 -6 -56 5 -12 82 -14 578 -11 514 3 576 5 603 20 17 9 43 33 59 53 21
28 25 40 17 48 -9 9 -172 13 -610 15z"/>
<path d="M4502 11830 c-19 0 -35 -6 -38 -14 -3 -8 0 -25 7 -38 6 -13 19 -31
28 -42 9 -10 27 -22 40 -27 13 -5 32 -7 42 -4 11 4 19 15 19 27 0 11 -10 34
-22 51 -12 18 -27 35 -33 39 -5 4 -25 8 -43 8z"/>
<path d="M5903 11828 c-17 2 -34 -1 -37 -7 -3 -5 -9 -29 -12 -53 -5 -32 -2
-47 9 -56 10 -9 22 -10 40 -3 19 7 28 20 32 45 4 18 5 42 3 53 -2 12 -13 19
-35 21z"/>
<path d="M6091 11830 c-16 0 -34 -6 -40 -14 -7 -8 -13 -33 -14 -56 -1 -30 3
-45 15 -53 13 -9 21 -7 36 6 10 10 25 35 32 56 7 21 9 44 6 50 -4 6 -20 11
-35 11z"/>
<path d="M8482 11818 c-14 2 -33 -7 -52 -27 -25 -25 -30 -37 -30 -79 0 -28 3
-57 6 -66 3 -9 14 -16 23 -16 9 0 31 13 49 30 31 28 33 33 30 92 -3 57 -5 63
-26 66z"/>
<path d="M7975 11810 c-7 0 -39 -20 -72 -44 -32 -24 -70 -55 -84 -68 -14 -13
-54 -44 -90 -70 -35 -25 -81 -62 -101 -81 -34 -31 -38 -40 -38 -85 0 -35 4
-52 15 -56 9 -3 48 20 97 56 46 34 106 78 133 98 28 20 73 54 102 75 40 30 53
45 55 69 2 17 1 48 -1 69 -2 22 -8 37 -16 37z"/>
<path d="M7523 11747 c-7 3 -34 -15 -59 -40 -44 -41 -48 -48 -55 -112 -5 -42
-5 -74 2 -86 5 -11 13 -19 18 -19 4 0 31 22 60 49 l52 49 -3 77 c-2 51 -7 80
-15 82z"/>
<path d="M3833 11728 c-14 2 -22 -4 -27 -20 -3 -13 -6 -287 -6 -610 l0 -588
23 -14 c12 -8 39 -18 60 -21 l37 -7 -2 590 -3 590 -31 39 c-17 21 -40 39 -51
41z"/>
<path d="M8289 11688 c-9 2 -59 -25 -110 -60 l-94 -63 -3 -62 c-3 -58 -1 -63
18 -63 11 0 53 18 93 40 40 23 82 52 95 66 19 22 22 35 20 83 -2 42 -7 57 -19
59z"/>
<path d="M4113 11669 c-26 0 -54 -3 -60 -6 -7 -2 -13 -10 -13 -17 0 -7 29 -41
64 -74 l64 -62 76 0 c42 0 76 4 76 9 0 6 -23 35 -52 66 -28 31 -64 63 -79 71
-16 8 -50 14 -76 13z"/>
<path d="M4366 11670 c-19 0 -39 -6 -45 -13 -8 -11 -1 -27 30 -71 23 -32 52
-61 66 -67 13 -5 40 -9 59 -9 20 0 34 5 34 13 0 6 -9 26 -19 43 -11 17 -36 48
-55 68 -28 27 -45 36 -70 36z"/>
<path d="M4608 11670 c-16 0 -31 -7 -34 -15 -4 -9 -1 -28 6 -44 6 -16 26 -45
45 -65 26 -29 40 -36 69 -36 20 0 36 5 36 11 0 5 -12 31 -26 57 -14 26 -35 57
-47 70 -12 13 -32 22 -49 22z"/>
<path d="M5188 11668 c-291 1 -449 -1 -453 -8 -3 -5 8 -36 25 -67 17 -32 38
-64 45 -72 12 -12 81 -15 390 -19 206 -2 391 -1 411 2 l35 7 -3 77 -3 77 -447
3z"/>
<path d="M5736 11670 c-17 0 -36 -4 -42 -8 -7 -4 -15 -33 -19 -65 -6 -48 -4
-61 10 -77 10 -11 30 -20 45 -20 15 0 34 8 43 18 9 10 20 40 23 65 5 38 3 51
-11 67 -11 12 -31 20 -49 20z"/>
<path d="M5884 11668 c-17 2 -35 -3 -41 -10 -6 -7 -13 -39 -17 -70 -5 -44 -3
-60 10 -72 8 -9 19 -16 24 -16 4 0 18 8 29 18 18 14 23 29 24 82 l2 65 -31 3z"/>
<path d="M6046 11670 c-7 0 -20 -8 -29 -17 -8 -10 -19 -46 -23 -80 l-7 -63 35
0 c32 0 35 2 51 55 9 31 17 64 17 74 0 11 -7 22 -16 25 -9 3 -21 6 -28 6z"/>
<path d="M6721 11670 c-435 0 -561 -3 -568 -12 -5 -7 -17 -37 -26 -67 -9 -29
-17 -59 -17 -66 0 -9 24 -16 75 -20 41 -4 272 -5 513 -3 286 3 444 9 457 16
11 6 46 37 79 70 32 33 55 65 52 71 -5 8 -170 11 -565 11z"/>
<path d="M7341 11580 c-10 0 -44 -25 -75 -55 l-57 -54 3 -72 c2 -47 7 -74 16
-77 7 -2 39 23 72 55 59 58 59 58 60 118 1 33 1 66 1 73 -1 6 -9 12 -20 12z"/>
<path d="M3983 11570 c-6 0 -13 -17 -17 -37 -3 -21 -6 -270 -6 -553 0 -283 4
-521 9 -528 4 -7 26 -18 47 -24 21 -5 56 -12 77 -15 l38 -5 -2 521 -2 522 -31
32 c-17 18 -47 45 -67 60 -20 15 -40 27 -46 27z"/>
<path d="M8481 11510 c-9 -1 -28 -7 -43 -15 -20 -12 -28 -25 -33 -57 -3 -24
-5 -351 -3 -728 l3 -685 45 0 45 0 6 75 c4 41 7 368 8 727 0 358 -2 658 -5
667 -3 9 -14 16 -23 16z"/>
<path d="M7974 11477 c-6 2 -33 -12 -60 -30 -27 -19 -97 -64 -156 -101 -59
-37 -121 -80 -137 -95 -25 -23 -31 -37 -31 -70 0 -35 3 -41 21 -41 11 0 55 21
97 46 42 26 103 64 135 85 31 21 73 46 92 55 20 9 40 25 46 36 5 10 9 40 7 65
-2 26 -8 48 -14 50z"/>
<path d="M4289 11470 c-36 0 -51 -4 -56 -16 -4 -11 14 -35 58 -78 35 -33 83
-84 107 -113 37 -46 47 -52 90 -57 26 -4 68 -10 94 -14 47 -8 48 -8 30 12 -9
11 -50 53 -89 93 -40 40 -73 79 -73 86 0 7 -12 25 -27 39 -16 15 -41 32 -56
37 -16 6 -51 11 -78 11z"/>
<path d="M4494 11470 c-13 0 -25 -4 -29 -10 -3 -5 16 -33 42 -63 26 -29 66
-78 88 -109 22 -30 54 -65 71 -77 16 -11 40 -21 52 -21 12 0 22 5 22 11 0 6
-5 20 -11 31 -6 12 -30 44 -53 72 -22 29 -54 73 -70 98 -18 30 -41 51 -59 58
-17 5 -40 10 -53 10z"/>
<path d="M4728 11470 c-21 0 -28 -5 -28 -19 0 -11 11 -32 24 -48 13 -15 36
-51 51 -78 15 -28 43 -69 62 -92 19 -24 40 -43 47 -43 8 0 19 6 25 14 10 11 6
26 -19 69 -17 30 -39 62 -50 72 -11 10 -17 21 -15 26 3 4 -6 25 -20 46 -15 20
-32 41 -38 45 -7 4 -24 8 -39 8z"/>
<path d="M5247 11468 c-343 2 -398 0 -403 -13 -3 -8 8 -35 25 -60 17 -25 31
-50 31 -55 0 -5 16 -38 35 -73 l35 -64 83 -6 c45 -4 192 -7 327 -7 135 0 251
4 259 9 10 7 13 27 11 78 -1 37 -3 95 -4 128 l-1 60 -398 3z"/>
<path d="M5736 11470 c-19 0 -39 -7 -48 -17 -12 -14 -16 -46 -16 -130 -1 -103
0 -113 19 -123 11 -6 30 -8 42 -4 12 4 25 12 29 18 4 6 8 38 8 71 1 33 5 80
10 105 5 27 4 52 -1 62 -6 12 -21 18 -43 18z"/>
<path d="M5856 11470 c-13 0 -28 -6 -33 -12 -6 -7 -13 -40 -17 -73 -4 -33 -10
-88 -13 -122 -6 -63 -6 -63 20 -63 17 0 32 9 43 24 10 17 15 43 13 80 -1 30 3
61 9 68 6 8 12 28 14 44 1 16 -1 35 -6 42 -4 7 -18 12 -30 12z"/>
<path d="M6011 11470 c-10 0 -24 -6 -33 -12 -8 -8 -20 -45 -27 -88 -7 -41 -17
-95 -23 -118 -9 -36 -8 -46 3 -53 8 -5 19 -9 24 -9 6 0 15 4 21 8 6 4 18 30
27 57 9 28 19 68 22 90 4 22 11 52 17 68 8 20 7 31 -2 42 -7 8 -20 15 -29 15z"/>
<path d="M6595 11470 l-495 0 -15 -23 c-8 -13 -26 -69 -41 -126 -14 -56 -23
-110 -20 -118 6 -14 49 -15 414 -9 322 6 412 10 429 21 11 8 45 40 75 72 29
32 74 78 101 103 26 25 47 53 47 63 0 16 -31 17 -495 17z"/>
<path d="M7517 11449 c-6 0 -25 -9 -42 -19 -16 -11 -37 -30 -47 -42 -10 -13
-18 -41 -18 -65 0 -23 5 -45 11 -49 6 -3 30 7 52 24 28 19 46 43 55 68 7 21
10 49 7 61 -3 13 -11 23 -18 22z"/>
<path d="M7140 11397 c-8 2 -26 -12 -38 -30 -13 -17 -27 -36 -30 -42 -4 -5
-29 -28 -57 -50 -27 -22 -65 -55 -82 -74 -27 -27 -33 -42 -33 -77 0 -23 3 -49
6 -58 3 -9 11 -16 17 -16 6 0 40 28 77 63 36 34 86 78 111 98 l44 37 0 73 c0
58 -3 74 -15 76z"/>
<path d="M8287 11400 c-12 0 -40 -9 -62 -21 -22 -12 -63 -34 -92 -50 l-51 -29
-4 -633 c-3 -420 0 -637 6 -646 8 -10 33 -12 107 -9 52 3 101 8 107 12 9 5 12
182 12 692 l0 684 -23 0z"/>
<path d="M4182 11390 c-6 0 -13 -45 -17 -102 -3 -57 -5 -279 -3 -495 3 -378 4
-393 23 -407 11 -9 28 -16 38 -16 10 0 40 -9 67 -21 26 -11 70 -21 96 -22 l49
-2 3 413 2 413 -53 52 c-30 29 -86 82 -124 120 -39 37 -76 67 -81 67z"/>
<path d="M7333 11300 c-20 -1 -43 -15 -76 -48 -42 -42 -48 -53 -45 -82 2 -24
9 -36 21 -38 10 -2 41 16 72 43 49 42 55 51 55 86 0 36 -2 39 -27 39z"/>
<path d="M7972 11239 c-4 0 -14 -4 -22 -10 -8 -5 -53 -31 -100 -57 -47 -26
-119 -65 -160 -86 -41 -21 -81 -43 -87 -48 -10 -8 -13 -125 -13 -524 l0 -514
24 -6 c13 -3 102 -2 197 3 l174 8 7 50 c3 28 7 297 7 598 1 361 -3 555 -9 568
-6 10 -14 19 -18 18z"/>
<path d="M4931 11170 c-10 0 -24 -7 -31 -15 -9 -11 -8 -20 10 -45 12 -17 30
-30 42 -30 17 0 19 -5 15 -27 -3 -18 3 -39 19 -64 13 -21 31 -42 41 -48 10 -5
15 -12 11 -16 -3 -4 54 -96 128 -205 74 -109 134 -202 134 -205 0 -4 14 -27
32 -53 17 -26 35 -49 38 -52 4 -3 9 -13 13 -22 4 -11 12 -15 22 -12 11 5 18 0
22 -15 3 -11 9 -21 13 -21 4 0 31 -46 60 -102 29 -57 67 -123 84 -148 18 -25
36 -52 40 -60 4 -8 -6 1 -23 20 -18 19 -57 67 -89 105 -32 39 -67 86 -79 105
-12 20 -33 46 -47 59 -14 13 -31 40 -37 60 -6 20 -41 77 -78 126 -37 50 -88
118 -114 152 -25 34 -52 74 -60 90 -9 15 -29 41 -46 57 -17 17 -31 35 -31 43
0 7 -14 28 -31 47 -16 19 -39 38 -49 41 -10 3 -21 19 -25 35 -4 16 -15 41 -26
55 -11 14 -27 25 -35 25 -8 0 -17 7 -20 15 -4 8 -16 15 -28 15 -17 0 -18 2 -6
10 11 7 12 15 4 37 -8 23 -16 29 -47 31 -27 2 -39 -1 -43 -13 -4 -9 1 -24 11
-35 10 -11 25 -20 34 -20 9 0 22 -12 29 -27 6 -15 12 -32 12 -38 0 -5 12 -23
26 -38 14 -16 36 -32 49 -37 16 -6 22 -15 19 -27 -4 -12 10 -36 40 -68 25 -28
46 -55 46 -61 0 -6 7 -17 15 -24 9 -7 14 -15 12 -17 -2 -2 -25 18 -51 43 -25
26 -46 50 -46 54 0 3 -12 20 -27 37 -16 16 -38 36 -51 42 -12 7 -21 18 -20 26
2 7 -17 34 -40 59 -34 36 -51 46 -75 46 -18 0 -42 -3 -54 -6 -13 -4 -23 -12
-23 -20 0 -7 12 -25 28 -39 15 -14 45 -30 67 -36 22 -5 47 -12 55 -15 10 -4 6
-9 -15 -19 -17 -7 -38 -16 -47 -19 -17 -5 -18 -30 -18 -335 l0 -330 35 -17
c19 -9 41 -14 49 -11 8 3 31 -3 51 -13 l36 -19 -28 -3 c-15 -2 -32 2 -38 9 -5
7 -30 14 -55 15 -39 3 -45 0 -48 -18 -2 -13 6 -25 23 -34 21 -11 32 -12 57 -2
25 9 33 9 42 -2 6 -7 58 -22 116 -34 58 -11 124 -24 147 -27 24 -4 45 -11 49
-16 3 -5 9 -9 15 -9 5 0 9 7 9 15 0 8 8 15 18 15 10 0 63 -14 118 -31 54 -17
137 -40 184 -51 46 -10 87 -21 89 -24 3 -3 -22 -2 -54 0 -33 3 -109 12 -170
21 -60 8 -129 15 -152 15 -23 0 -57 9 -75 19 -19 11 -81 27 -148 37 -63 10
-128 17 -144 16 -16 -1 -44 6 -62 14 -18 9 -39 14 -46 12 -9 -3 -13 -27 -15
-71 0 -38 3 -70 9 -73 6 -4 24 -8 39 -9 16 -1 41 -3 57 -5 15 -2 -2 -6 -38 -9
l-65 -6 -5 -240 -6 -240 -2 237 c-2 222 -3 238 -21 248 -11 5 -34 7 -51 3 -17
-3 -34 -12 -37 -20 -5 -11 -9 -11 -24 3 -13 12 -28 15 -54 10 l-35 -7 0 -314
c0 -204 4 -316 10 -320 6 -4 25 2 43 12 17 11 37 29 43 41 7 15 14 18 21 11 7
-7 23 -4 52 11 31 16 43 28 48 51 5 25 8 28 15 15 5 -9 17 -16 26 -16 9 0 35
14 56 30 22 17 44 30 49 30 5 0 4 -7 -4 -16 -7 -8 -33 -26 -58 -39 -25 -12
-55 -32 -65 -44 -11 -12 -26 -21 -33 -21 -8 0 -32 -12 -54 -27 -30 -22 -39
-34 -37 -53 2 -15 10 -26 21 -28 11 -2 34 13 58 37 23 23 44 39 48 37 3 -2 18
4 32 13 14 9 52 34 85 55 32 21 124 82 204 134 80 53 148 101 152 106 4 6 6
16 4 22 -3 6 5 16 17 22 12 7 58 32 102 57 44 25 119 66 167 92 48 25 103 59
123 75 19 16 35 34 35 39 0 5 -10 14 -22 19 -22 8 -22 9 5 9 15 1 27 7 27 14
0 8 11 19 25 25 23 11 25 17 26 79 1 38 3 100 5 138 2 39 10 100 18 136 7 36
18 74 23 85 6 10 16 51 23 89 7 39 18 103 26 144 8 40 14 82 14 92 0 10 -6 19
-14 19 -7 0 -18 6 -24 13 -7 8 -8 24 -3 43 l8 29 13 -27 c7 -16 19 -28 26 -28
7 0 18 16 24 35 9 28 9 39 0 50 -7 8 -19 15 -26 15 -8 0 -19 -9 -26 -19 -12
-19 -12 -19 -23 2 -6 12 -21 24 -34 25 -13 2 -28 -2 -32 -10 -5 -7 -9 -29 -9
-48 0 -20 4 -40 10 -46 6 -6 6 -15 0 -24 -8 -12 -12 -13 -19 -2 -4 8 -6 34 -3
58 3 27 0 50 -8 59 -10 13 -51 15 -254 15 -132 0 -247 -4 -255 -9 -9 -6 -11
-16 -6 -32 7 -21 4 -20 -19 9 -15 17 -34 32 -43 32 -10 0 -12 6 -8 20 3 10 0
32 -8 47 -8 15 -27 41 -41 56 -14 15 -26 37 -26 48 0 10 -9 28 -20 39 -11 11
-28 20 -39 20z m-195 -270 c4 0 30 -21 58 -47 28 -26 53 -52 55 -58 2 -5 15
-21 30 -35 14 -14 44 -46 66 -70 l40 -44 -43 37 c-23 20 -58 55 -78 77 -20 22
-42 40 -48 40 -7 0 -21 10 -32 23 -11 12 -28 34 -37 50 -10 15 -14 27 -11 27z
m433 -56 c10 -17 22 -41 26 -55 5 -17 0 -14 -19 14 -14 21 -26 46 -26 55 0 11
6 7 19 -14z m-138 -111 c7 -7 10 -15 7 -18 -3 -3 -9 2 -12 12 -6 14 -5 15 5 6z
m238 -73 c6 0 11 -4 11 -10 0 -5 -2 -10 -4 -10 -3 0 -8 5 -11 10 -3 6 -1 10 4
10z m-175 -10 c2 0 10 -8 17 -17 13 -16 12 -17 -3 -4 -10 7 -18 15 -18 17 0 2
2 4 4 4z m-174 -482 c14 0 19 -2 13 -5 -7 -2 -19 -2 -25 0 -7 3 -2 5 12 5z
m190 -60 c14 0 19 -2 13 -5 -7 -2 -19 -2 -25 0 -7 3 -2 5 12 5z m-205 -579 c6
0 3 -4 -5 -9 -8 -6 -23 -15 -32 -21 -10 -5 -18 -6 -18 -1 0 5 10 14 23 20 12
6 27 11 32 11z"/>
<path d="M5324 11170 l-314 0 0 -24 c0 -13 8 -33 18 -45 17 -21 21 -21 316
-19 l299 3 10 28 c6 19 5 32 -3 42 -10 13 -63 15 -326 15z"/>
<path d="M5719 11168 c-13 2 -30 -3 -37 -10 -6 -6 -12 -25 -12 -40 0 -20 6
-31 22 -37 12 -4 30 -6 40 -3 10 2 21 16 25 30 3 14 1 32 -4 41 -6 9 -21 17
-34 19z"/>
<path d="M5935 11170 c-16 0 -25 -8 -29 -26 -4 -14 -4 -35 -1 -45 5 -14 14
-19 28 -17 12 2 28 16 35 31 11 22 11 31 2 43 -7 7 -23 14 -35 14z"/>
<path d="M6399 11166 l-387 7 -17 -26 c-10 -16 -14 -34 -10 -47 7 -21 9 -21
387 -18 l380 3 25 29 c13 16 21 32 16 37 -4 4 -182 11 -394 15z"/>
<path d="M7515 11168 c-11 1 -33 -6 -50 -16 -16 -10 -36 -26 -42 -34 -7 -8
-16 -28 -19 -45 -4 -19 -1 -33 8 -41 11 -9 23 -7 54 9 21 11 47 30 57 41 11
13 17 33 15 52 -2 22 -9 32 -23 34z"/>
<path d="M4584 11160 c-61 0 -65 -1 -62 -21 2 -12 15 -31 30 -42 22 -16 35
-18 82 -13 39 5 56 12 56 22 0 8 -9 23 -20 34 -16 16 -33 20 -86 20z"/>
<path d="M5825 11158 c-17 2 -34 0 -38 -4 -4 -4 -7 -20 -7 -35 0 -15 4 -31 10
-34 5 -3 22 0 37 7 20 9 28 21 28 38 0 21 -5 26 -30 28z"/>
<path d="M4478 11148 c-15 3 -16 -30 -18 -413 0 -303 2 -421 11 -431 6 -8 25
-14 42 -14 17 0 36 8 43 18 12 15 13 15 14 -10 0 -14 5 -28 11 -30 9 -3 9 -10
0 -26 -7 -13 -9 -31 -6 -41 4 -12 18 -20 40 -23 19 -2 42 0 50 5 8 4 15 15 15
23 0 8 -15 20 -32 26 -33 12 -33 12 -8 18 19 5 26 14 32 45 4 22 7 157 7 300
1 186 -3 275 -12 312 -8 28 -28 69 -46 92 -18 23 -37 39 -42 35 -5 -3 -10
-146 -11 -327 l-2 -322 -6 320 c-4 208 -10 329 -17 346 -7 15 -21 33 -32 41
-11 8 -19 22 -18 33 1 11 -5 21 -15 23z m89 -775 c2 -7 2 -21 0 -30 -3 -10 -5
-4 -5 12 0 17 2 24 5 18z"/>
<path d="M7142 11150 c-10 0 -29 -12 -43 -26 -13 -15 -40 -37 -59 -49 -19 -13
-59 -45 -87 -72 -33 -31 -53 -58 -53 -71 0 -13 6 -25 14 -28 8 -3 51 21 97 53
45 32 97 72 116 90 25 24 33 39 33 67 0 28 -4 36 -18 36z"/>
<path d="M6860 11115 c-6 4 -23 -6 -39 -22 -19 -20 -30 -43 -35 -76 -5 -32 -3
-53 4 -62 9 -11 17 -12 31 -5 10 6 24 20 30 32 6 11 13 45 15 74 2 29 -1 56
-6 59z"/>
<path d="M5356 11060 c-275 0 -285 -1 -291 -20 -4 -13 3 -32 21 -55 16 -22 33
-34 41 -30 8 3 127 5 264 5 l249 0 12 25 c8 19 8 31 0 50 l-12 25 -284 0z"/>
<path d="M5716 11060 c-13 0 -29 -6 -35 -14 -7 -8 -11 -30 -9 -48 3 -30 6 -33
37 -33 30 0 36 4 42 29 5 16 4 37 -2 48 -5 10 -20 18 -33 18z"/>
<path d="M5906 11060 c-7 0 -17 -5 -24 -12 -7 -7 -12 -29 -12 -50 0 -25 5 -41
15 -44 8 -4 22 -1 29 6 8 6 18 25 21 41 4 18 2 36 -5 44 -7 8 -18 15 -24 15z"/>
<path d="M6335 11060 c-314 0 -366 -2 -371 -15 -3 -8 -7 -29 -8 -47 l-1 -33
330 -3 c222 -1 339 1 357 9 14 6 36 21 48 34 13 14 20 31 17 39 -6 14 -51 16
-372 16z"/>
<path d="M7341 11060 c-9 0 -36 -14 -61 -31 -25 -16 -51 -37 -57 -46 -7 -9
-13 -29 -13 -44 0 -15 4 -31 10 -34 5 -3 24 2 42 11 18 9 47 27 64 40 17 13
34 35 37 50 3 15 3 34 0 41 -3 7 -13 13 -22 13z"/>
<path d="M5799 11050 c-11 0 -22 -6 -25 -14 -3 -8 -4 -29 -2 -48 2 -27 7 -33
27 -33 19 0 26 7 32 29 5 16 4 37 -2 48 -5 10 -19 18 -30 18z"/>
<path d="M6739 10998 c-9 2 -30 -13 -48 -33 -28 -32 -30 -40 -25 -78 4 -23 8
-44 10 -45 1 -2 16 4 33 14 17 10 35 30 41 45 6 15 10 42 8 60 -2 21 -9 35
-19 37z"/>
<path d="M7522 10990 c-4 -1 -23 -8 -42 -16 -19 -8 -45 -25 -57 -36 l-23 -21
0 -451 c0 -248 4 -457 9 -465 5 -7 28 -15 53 -18 34 -4 47 -1 58 12 13 15 15
93 18 484 2 256 1 476 -3 488 -3 13 -9 23 -13 23z"/>
<path d="M6272 10940 c-263 0 -322 -3 -331 -14 -7 -8 -15 -31 -18 -53 -4 -21
-16 -60 -29 -88 l-22 -50 5 45 c3 25 9 50 14 55 4 6 11 30 15 53 6 37 4 42
-13 42 -10 0 -24 -5 -31 -12 -7 -7 -12 -29 -12 -50 0 -21 -4 -46 -9 -56 -5 -9
-17 -55 -26 -102 -10 -47 -20 -106 -22 -132 -3 -31 -1 -48 6 -48 6 0 11 5 11
12 0 6 3 9 6 5 3 -3 -6 -45 -21 -94 -14 -48 -30 -99 -35 -113 -4 -14 -18 -63
-30 -110 -12 -47 -26 -99 -31 -116 -5 -17 -9 -49 -9 -72 0 -23 5 -42 10 -42 6
0 10 -9 10 -20 0 -11 5 -20 12 -20 9 0 9 -3 0 -12 -7 -7 -12 -21 -12 -32 0
-19 -1 -19 -13 -2 -11 15 -18 16 -34 8 -11 -6 -23 -9 -26 -6 -3 3 -16 0 -28
-7 -13 -6 -65 -46 -117 -88 -52 -42 -135 -105 -185 -140 -51 -35 -93 -63 -95
-62 -1 1 -16 -6 -33 -15 -17 -8 -56 -36 -87 -60 -32 -25 -108 -82 -170 -127
-63 -45 -123 -89 -135 -97 -12 -8 -39 -27 -60 -43 -32 -24 -38 -35 -35 -60 2
-17 8 -32 14 -34 7 -2 18 2 25 9 8 7 37 31 64 53 28 22 60 49 72 61 12 12 36
32 55 44 18 12 6 -3 -27 -34 -33 -30 -90 -79 -127 -108 -50 -39 -70 -62 -78
-88 -5 -20 -6 -49 -2 -65 5 -17 14 -30 21 -30 6 0 80 68 164 150 83 83 142
139 130 125 -11 -14 -52 -58 -89 -99 -38 -41 -89 -92 -112 -115 -24 -23 -48
-49 -54 -60 -7 -13 -6 -21 3 -27 8 -5 151 -9 319 -9 168 0 310 4 316 8 7 4 16
24 22 44 5 20 8 39 5 41 -2 3 5 19 15 36 l20 32 6 -26 c5 -19 2 -31 -8 -39 -8
-6 -18 -27 -21 -47 -5 -28 -3 -38 9 -42 9 -4 23 -4 31 -1 8 4 16 20 16 38 1
17 3 38 4 46 0 8 7 29 14 45 7 17 19 73 26 125 8 52 20 113 26 136 7 23 9 49
5 60 -6 16 -9 16 -17 4 -7 -10 -8 -3 -3 25 4 22 9 45 13 50 3 6 14 39 24 75
10 36 23 81 28 100 6 19 13 47 16 63 3 15 9 30 15 33 5 3 6 -22 2 -63 -3 -37
-12 -122 -20 -187 -8 -65 -12 -142 -10 -170 2 -28 1 -36 -1 -18 -2 17 -8 32
-12 32 -4 0 -13 -16 -20 -36 -7 -20 -18 -66 -23 -103 -6 -36 -12 -88 -14 -116
-1 -27 -7 -68 -13 -89 -5 -22 -8 -43 -6 -46 2 -4 153 -8 335 -9 239 -1 336 1
346 10 11 9 9 18 -15 53 -15 22 -38 60 -50 83 -11 23 -21 46 -21 50 0 4 10 -8
22 -27 12 -19 41 -65 66 -102 29 -46 50 -68 63 -68 11 0 22 7 25 15 3 8 -12
40 -33 72 -21 32 -44 67 -51 78 -7 11 -20 33 -30 48 -9 15 -34 51 -55 79 -20
27 -44 65 -53 84 -9 18 -33 53 -53 76 -21 24 -41 52 -45 63 -8 19 -8 19 -15 2
-6 -16 -9 -16 -18 -5 -6 7 -24 40 -41 73 -16 33 -62 116 -101 183 -39 68 -71
127 -71 130 0 4 15 -11 33 -33 17 -22 56 -66 85 -97 28 -32 52 -63 52 -68 0
-6 18 -34 39 -63 21 -29 55 -69 74 -90 22 -23 33 -44 30 -55 -3 -12 13 -41 42
-78 25 -32 66 -88 89 -124 24 -36 54 -74 66 -85 12 -11 29 -33 37 -49 8 -16
38 -58 65 -93 30 -38 57 -63 69 -63 10 0 19 -4 19 -9 0 -6 -5 -13 -10 -16 -6
-4 3 -23 22 -47 17 -23 40 -43 49 -45 9 -3 19 -17 22 -32 3 -14 15 -39 27 -54
15 -19 30 -27 53 -27 18 0 39 4 47 10 12 7 11 12 -5 30 -11 12 -40 33 -65 46
-25 13 -37 23 -27 24 9 0 17 6 17 14 0 8 -21 33 -47 55 -27 23 -54 41 -61 41
-8 0 -10 8 -7 23 5 17 -7 37 -49 87 -31 36 -56 69 -56 74 0 6 3 6 8 0 5 -5 39
-44 76 -87 38 -42 79 -80 91 -83 16 -4 21 -11 18 -24 -3 -10 8 -32 27 -54 18
-20 43 -39 55 -42 15 -4 22 -11 18 -20 -3 -8 12 -31 36 -55 40 -38 45 -40 94
-37 48 3 52 5 52 28 0 17 -8 29 -29 38 -15 8 -46 17 -67 19 -22 3 -39 10 -39
14 0 5 11 9 25 9 14 0 25 6 25 13 0 7 -17 30 -38 50 -31 31 -45 37 -79 37 -23
0 -44 4 -47 9 -3 5 5 12 19 15 14 4 25 12 25 20 0 7 -17 29 -37 48 -21 20 -58
57 -83 84 l-45 48 41 -32 c22 -17 59 -52 83 -77 25 -27 49 -45 59 -43 15 3 17
33 19 321 l3 317 -23 15 c-12 8 -46 19 -75 25 -28 7 -54 16 -58 21 -3 5 -1 9
4 9 5 0 32 -7 60 -16 28 -9 58 -14 66 -11 9 4 16 15 16 26 0 15 -11 21 -52 30
-29 7 -69 16 -88 21 -19 6 -73 17 -119 25 -46 8 -98 15 -115 15 -18 0 -36 -4
-42 -10 -6 -6 -32 -3 -74 9 -36 11 -110 33 -165 49 -55 17 -129 36 -165 43
-36 7 -58 15 -49 17 9 1 83 -4 165 -13 82 -9 182 -19 222 -22 40 -3 70 -8 67
-11 -3 -3 7 -14 22 -24 17 -11 46 -18 75 -18 26 0 59 -5 74 -10 14 -6 53 -11
85 -11 33 -1 62 -5 65 -10 3 -5 25 -9 50 -9 36 0 44 3 44 19 0 10 -7 22 -16
25 -9 3 -20 4 -24 1 -5 -3 -11 -1 -15 5 -3 6 4 10 17 10 13 0 29 5 36 12 7 7
12 20 12 30 0 10 -9 23 -20 30 -11 7 -20 16 -20 19 0 4 9 9 20 12 20 5 21 11
18 259 l-3 253 -24 -3 c-13 -1 -36 -12 -53 -23 -16 -12 -32 -18 -35 -15 -4 3
-4 8 -2 10 2 2 33 23 69 48 36 24 79 50 96 57 17 6 45 25 62 40 17 16 42 31
56 35 15 4 36 16 47 27 11 11 19 28 17 37 -2 9 -12 18 -23 20 -11 1 -32 -9
-47 -23 -16 -14 -28 -31 -28 -36 0 -6 -7 -8 -16 -5 -8 3 -27 -2 -42 -11 -15
-9 -38 -27 -52 -39 -14 -13 -41 -30 -61 -38 -20 -8 -50 -26 -65 -39 -16 -13
-74 -52 -129 -88 -55 -35 -126 -80 -159 -99 -32 -19 -69 -45 -81 -56 -13 -12
-30 -25 -37 -28 -7 -3 5 -3 27 0 l40 6 -35 -21 c-19 -11 -66 -37 -105 -57 -38
-20 -81 -44 -95 -54 -14 -9 -41 -23 -60 -30 -19 -8 -53 -26 -75 -40 -22 -15
-47 -30 -55 -34 -8 -4 3 7 25 26 22 18 61 52 88 76 27 23 65 53 85 66 20 13
48 35 61 49 13 14 29 23 36 21 7 -3 46 19 86 48 41 29 146 107 235 174 88 67
179 134 202 149 23 15 44 35 47 45 3 11 20 24 38 30 18 6 44 21 59 33 15 12
30 34 33 50 6 23 4 27 -14 27 -12 0 -41 -18 -65 -40 -24 -22 -46 -40 -50 -40
-4 0 -54 -36 -112 -80 -57 -44 -104 -77 -104 -74 0 4 9 14 20 24 11 9 43 38
72 63 29 25 67 57 84 71 20 16 35 41 42 67 6 23 8 48 5 55 -3 8 -12 14 -20 14
-9 0 -42 -26 -75 -57 -33 -32 -80 -77 -104 -100 -23 -24 -60 -57 -81 -75 l-38
-33 34 40 c18 22 56 63 85 92 28 28 60 62 72 75 11 13 36 36 54 50 22 17 31
31 27 42 -6 14 -41 16 -325 16z m-412 -260 c6 0 10 -2 10 -4 0 -3 -4 -8 -10
-11 -5 -3 -10 -1 -10 4 0 6 5 11 10 11z m-12 -41 c1 -8 -2 -26 -7 -40 -9 -23
-10 -23 -10 -2 -1 12 2 30 6 40 6 15 8 15 11 2z m458 -29 c2 0 4 -4 4 -10 0
-5 -5 -10 -11 -10 -5 0 -7 5 -4 10 3 6 8 10 11 10z m157 -181 c4 1 7 -1 7 -3
0 -2 -15 -14 -34 -25 -18 -12 -37 -21 -42 -21 -4 0 -3 5 3 11 6 6 22 17 35 24
12 7 26 13 31 14z m76 -537 c9 -9 13 -19 9 -20 -5 -2 -15 -1 -23 2 -8 3 -12
12 -9 20 5 12 8 12 23 -2z m-892 -9 c2 -13 2 -35 0 -50 -2 -16 -4 -5 -4 22 0
28 2 40 4 28z m778 15 c17 0 24 -2 18 -5 -7 -2 -21 -2 -30 0 -10 3 -4 5 12 5z
m-30 -123 c11 -4 34 -11 50 -15 l30 -8 -31 -1 c-16 -1 -39 6 -50 15 -19 15
-19 16 1 9z m-435 -295 c6 0 10 -6 10 -14 0 -8 3 -23 6 -33 6 -16 5 -16 -9 2
-9 11 -17 26 -17 33 0 6 5 12 10 12z m40 -90 c6 -8 15 -23 21 -32 5 -10 6 -18
1 -18 -5 0 -14 11 -20 25 -7 14 -12 29 -12 33 0 4 5 0 10 -8z m-934 -20 c2 0
4 -2 4 -4 0 -2 -8 -10 -17 -17 -16 -13 -17 -12 -4 4 7 9 15 17 17 17z m1216
-20 c2 0 15 -11 28 -25 13 -14 21 -25 18 -25 -2 0 -15 11 -28 25 -13 14 -21
25 -18 25z m-813 -100 c4 0 6 -11 3 -25 -2 -14 -6 -25 -8 -25 -2 0 -4 11 -4
25 0 14 4 25 9 25z m122 -39 c5 -14 7 -37 4 -52 -4 -15 -1 -36 5 -46 9 -14 8
-26 -4 -53 l-15 -35 -1 32 c0 17 -5 35 -11 39 -8 4 -8 9 0 17 6 6 11 36 12 67
0 46 2 51 10 31z m817 19 c6 0 14 -5 17 -11 4 -6 5 -12 2 -15 -2 -2 -10 2 -17
11 -8 9 -8 15 -2 15z m-737 -120 c5 0 9 -7 9 -15 0 -9 -6 -12 -15 -9 -8 4 -12
10 -9 15 3 5 9 9 15 9z"/>
<path d="M7141 10930 c-4 0 -27 -13 -49 -30 -23 -16 -45 -30 -49 -31 -5 0 -35
-19 -68 -43 -33 -23 -65 -53 -72 -66 -8 -17 -9 -28 -1 -37 8 -10 16 -9 41 5
18 9 52 31 77 47 25 17 59 37 77 44 17 7 38 20 46 29 8 10 17 26 18 37 2 11 0
26 -4 33 -5 6 -12 12 -16 12z"/>
<path d="M6841 10910 c-11 0 -29 -12 -41 -27 -11 -15 -19 -34 -18 -42 2 -9 13
-16 27 -16 14 0 32 11 44 27 11 14 17 34 14 42 -4 9 -15 16 -26 16z"/>
<path d="M7354 10890 c-6 6 -23 3 -49 -10 -22 -11 -53 -31 -70 -44 l-29 -24
-1 -393 c-1 -217 2 -404 7 -416 7 -20 14 -23 67 -23 42 0 64 5 76 16 14 15 16
60 13 450 -2 272 -7 437 -14 444z"/>
<path d="M2104 10850 c0 0 -4 -3 -7 -7 -4 -3 -7 -34 -7 -68 0 -47 4 -66 18
-78 10 -10 32 -17 49 -17 16 0 43 -4 59 -10 16 -5 65 -16 109 -24 44 -8 145
-28 224 -45 109 -24 147 -28 157 -20 8 7 14 31 14 59 0 26 -6 52 -12 58 -7 5
-80 26 -163 46 -82 20 -186 46 -230 57 -44 12 -109 27 -145 35 -36 8 -65 14
-66 14z"/>
<path d="M7141 10790 c-4 -1 -22 -12 -41 -26 -19 -13 -67 -41 -107 -60 -40
-20 -77 -41 -82 -48 -6 -7 -11 -141 -12 -341 l-1 -329 23 -6 c13 -3 72 -4 130
-2 l107 4 6 30 c3 17 6 193 6 392 0 268 -3 365 -12 374 -7 7 -14 12 -17 12z"/>
<path d="M2868 10664 c-21 5 -30 2 -39 -15 -6 -12 -9 -37 -6 -56 4 -19 11 -41
18 -49 6 -8 23 -14 38 -14 15 0 32 5 39 12 7 7 12 31 12 55 0 30 -5 45 -17 51
-10 5 -30 12 -45 16z"/>
<path d="M3055 10616 c-5 1 -16 0 -22 -3 -8 -3 -13 -23 -13 -48 0 -23 6 -47
13 -53 6 -6 30 -13 52 -17 22 -4 62 -13 89 -21 27 -8 56 -14 63 -14 9 0 13 16
13 55 l0 54 -37 9 c-21 5 -63 15 -93 22 -30 7 -59 14 -65 16z"/>
<path d="M6850 10617 c-8 2 -24 -3 -35 -9 -11 -6 -23 -16 -27 -22 -4 -6 -8
-143 -8 -304 l0 -292 26 -12 c18 -9 30 -9 42 -1 15 9 17 42 17 324 0 271 -2
314 -15 316z"/>
<path d="M6731 10560 c-11 0 -29 -8 -41 -18 -21 -17 -22 -25 -27 -285 l-5
-266 26 -13 c18 -8 35 -9 52 -2 l26 9 -1 279 c-1 154 -4 283 -7 288 -3 4 -13
8 -23 8z"/>
<path d="M3385 10544 c-12 3 -26 1 -33 -6 -7 -7 -12 -26 -12 -44 0 -17 7 -38
16 -45 9 -8 49 -19 88 -25 39 -7 94 -19 123 -27 29 -8 79 -18 112 -22 61 -7
61 -7 61 19 0 14 -9 35 -20 46 -11 11 -32 22 -47 26 -16 3 -61 15 -102 25 -41
11 -82 19 -91 19 -9 0 -30 6 -46 14 -16 8 -38 17 -49 20z"/>
<path d="M2167 10505 c-57 6 -68 5 -73 -9 -4 -9 -4 -43 -2 -76 2 -33 6 -62 9
-64 3 -3 61 -12 129 -19 69 -8 132 -15 140 -15 8 0 72 -8 142 -17 70 -9 144
-15 165 -13 l38 3 3 57 c2 47 0 58 -15 66 -10 5 -81 17 -158 26 -77 10 -154
22 -171 27 -17 5 -44 9 -62 9 -17 0 -41 4 -54 9 -13 5 -54 12 -91 16z"/>
<path d="M3844 10426 c-16 3 -32 2 -37 -2 -4 -4 -7 -20 -7 -34 0 -15 7 -33 16
-40 8 -8 34 -14 57 -14 38 -1 42 1 45 26 2 19 -3 31 -20 42 -13 9 -37 18 -54
22z"/>
<path d="M2863 10400 c-5 0 -17 -6 -27 -13 -13 -10 -17 -24 -14 -62 3 -43 6
-49 29 -56 15 -4 38 -4 53 -2 23 5 26 10 26 47 0 22 -4 46 -8 52 -4 6 -17 16
-29 23 -12 6 -26 11 -30 11z"/>
<path d="M4003 10380 c-23 0 -33 -5 -38 -20 -4 -12 -2 -27 4 -34 7 -8 31 -19
56 -25 24 -6 57 -11 74 -11 16 0 33 5 36 10 4 6 0 22 -9 35 -9 13 -33 29 -53
34 -21 6 -52 11 -70 11z"/>
<path d="M3104 10356 c-69 6 -71 6 -77 -17 -4 -13 -7 -36 -7 -51 0 -25 6 -29
53 -42 28 -8 78 -16 111 -18 45 -2 61 1 69 13 5 9 7 32 3 52 -6 31 -12 38 -44
46 -20 6 -69 13 -108 17z"/>
<path d="M4225 10334 c-11 2 -28 1 -37 -1 -9 -2 -20 -13 -23 -24 -4 -11 -2
-26 4 -33 7 -8 41 -17 78 -21 37 -4 86 -16 109 -28 42 -20 44 -20 64 -2 11 10
20 26 20 37 0 10 -10 22 -22 27 -13 5 -39 13 -58 19 -19 6 -53 14 -75 17 -22
3 -49 8 -60 9z"/>
<path d="M3365 10320 c-1 0 -6 -5 -13 -12 -7 -7 -12 -26 -12 -42 0 -17 4 -36
8 -42 4 -6 77 -19 162 -29 85 -10 171 -19 190 -19 33 -1 35 1 35 34 0 27 -5
37 -25 47 -14 6 -61 16 -105 22 -44 6 -116 17 -160 25 -44 9 -80 16 -80 16z"/>
<path d="M4487 10279 c-1 0 -8 -3 -14 -6 -7 -2 -13 -10 -13 -17 0 -8 9 -25 21
-40 16 -21 26 -25 47 -20 15 4 28 8 30 9 1 1 -2 14 -9 28 -6 13 -22 30 -36 36
-13 6 -25 11 -26 10z"/>
<path d="M3854 10240 c-34 0 -44 -4 -49 -20 -3 -11 -4 -29 0 -39 3 -11 14 -22
23 -25 9 -2 34 -7 55 -11 l37 -6 0 39 c0 21 -5 43 -12 50 -7 7 -31 12 -54 12z"/>
<path d="M2205 10215 c-49 3 -96 2 -102 -1 -9 -4 -13 -32 -13 -87 0 -45 4 -87
8 -93 5 -8 101 -14 302 -18 162 -4 300 -3 307 1 7 5 13 37 14 74 1 36 -1 70
-4 76 -4 6 -35 13 -69 17 -35 4 -128 11 -208 17 -80 5 -185 12 -235 14z"/>
<path d="M4003 10220 c-27 0 -34 -5 -39 -27 -4 -14 -2 -33 3 -42 8 -12 30 -17
85 -19 68 -3 76 -1 81 17 3 11 0 27 -7 35 -6 8 -29 19 -51 25 -22 6 -55 11
-72 11z"/>
<path d="M4227 10183 c-45 6 -48 5 -58 -20 -5 -14 -8 -34 -7 -42 2 -12 21 -18
73 -22 39 -4 100 -7 138 -8 66 -1 67 0 67 25 0 19 -8 28 -36 40 -21 9 -48 13
-64 9 -16 -4 -37 -2 -47 3 -10 5 -40 12 -66 15z"/>
<path d="M2856 10170 c-12 0 -26 -3 -29 -7 -4 -3 -7 -37 -7 -73 0 -47 4 -71
15 -80 9 -7 26 -9 45 -5 16 4 35 15 40 25 6 10 10 42 10 70 0 45 -3 52 -26 60
-14 6 -36 10 -48 10z"/>
<path d="M3088 10155 c-25 4 -42 0 -52 -11 -9 -9 -16 -32 -16 -54 0 -21 4 -50
10 -64 9 -26 11 -26 114 -26 85 0 105 3 110 16 3 9 6 35 6 59 0 23 -6 47 -13
53 -7 6 -37 13 -67 17 -30 3 -72 8 -92 10z"/>
<path d="M4525 10135 c-11 6 -28 10 -37 8 -11 -3 -18 -14 -18 -28 0 -14 9 -29
20 -35 14 -8 26 -8 41 0 11 6 19 18 17 27 -2 9 -12 21 -23 28z"/>
<path d="M4616 10140 c-8 0 -22 -7 -30 -16 -9 -8 -16 -22 -16 -29 0 -8 9 -19
21 -26 l21 -11 -21 -14 c-12 -9 -21 -23 -21 -33 0 -9 5 -22 12 -29 7 -7 23
-12 36 -12 13 0 32 5 43 10 10 6 19 21 19 33 0 13 -5 28 -12 35 -7 7 -21 12
-32 13 -17 0 -16 2 7 11 16 6 27 17 27 28 0 11 -9 24 -19 30 -11 5 -26 10 -35
10z"/>
<path d="M3535 10124 c-93 3 -176 3 -182 0 -8 -3 -13 -25 -13 -55 0 -39 4 -51
23 -63 17 -12 60 -16 189 -16 92 -1 172 1 178 5 5 3 10 25 10 49 0 28 -6 48
-17 58 -14 12 -55 17 -188 22z"/>
<path d="M3854 10100 c-29 0 -44 -5 -48 -16 -3 -9 -6 -30 -6 -48 0 -18 5 -37
12 -44 7 -7 28 -12 48 -12 20 0 41 5 48 12 7 7 12 28 12 48 0 20 -5 41 -12 48
-7 7 -31 12 -54 12z"/>
<path d="M4039 10088 c-35 2 -68 0 -72 -4 -4 -4 -7 -20 -7 -36 0 -16 5 -38 10
-49 9 -16 22 -19 80 -19 65 0 70 1 76 24 3 14 0 37 -8 53 -12 26 -18 28 -79
31z"/>
<path d="M4220 10080 c-34 0 -50 -4 -54 -16 -3 -9 -6 -26 -6 -39 0 -13 7 -31
16 -39 12 -13 39 -16 124 -16 60 0 115 3 124 6 10 4 16 18 16 40 0 28 -5 36
-27 45 -16 6 -52 9 -81 7 -29 -3 -55 -1 -58 4 -3 4 -27 8 -54 8z"/>
<path d="M4500 10060 c-14 0 -30 -3 -33 -7 -4 -3 -7 -21 -7 -39 0 -28 4 -35
27 -40 14 -4 33 -2 42 3 9 6 17 20 19 32 2 12 -2 29 -8 37 -7 7 -25 14 -40 14z"/>
<path d="M6704 9960 c-12 0 -27 -7 -34 -15 -7 -9 -10 -25 -6 -40 6 -24 11 -26
49 -23 36 3 42 7 45 27 3 15 -3 30 -14 38 -10 7 -28 13 -40 13z"/>
<path d="M6807 9960 c-10 0 -20 -6 -23 -14 -3 -8 -4 -25 -2 -37 2 -12 11 -27
20 -32 12 -8 24 -7 42 1 19 9 26 19 26 41 0 21 -6 30 -22 35 -13 3 -31 6 -41
6z"/>
<path d="M7053 9952 c-56 2 -113 1 -125 -2 -17 -4 -24 -14 -26 -39 -2 -19 0
-37 5 -42 4 -4 59 -11 120 -15 85 -5 116 -4 128 6 8 7 15 24 15 39 0 14 -4 31
-8 38 -5 7 -45 13 -109 15z"/>
<path d="M3858 9950 c-27 0 -40 -5 -48 -19 -6 -13 -10 -183 -10 -485 0 -255 3
-471 6 -480 3 -9 15 -16 25 -16 10 0 34 14 54 31 l35 31 0 457 c0 342 -3 460
-12 469 -7 7 -29 12 -50 12z"/>
<path d="M4059 9948 c-50 2 -71 -1 -82 -13 -14 -13 -16 -71 -17 -455 l-1 -440
22 0 c12 0 48 14 80 31 37 20 61 40 64 53 3 12 4 201 3 421 l-3 400 -66 3z"/>
<path d="M4301 9950 c-94 0 -121 -3 -131 -15 -10 -12 -12 -96 -7 -389 2 -206
8 -379 12 -385 3 -6 14 -11 24 -11 9 0 32 11 51 25 18 14 69 41 112 61 43 21
78 40 79 43 0 3 1 150 3 325 1 257 -1 322 -12 332 -10 10 -46 14 -131 14z"/>
<path d="M7286 9950 c-40 0 -68 -5 -74 -13 -7 -8 -9 -29 -5 -50 3 -21 9 -40
14 -42 4 -3 31 -7 59 -9 28 -3 58 -2 65 0 7 3 16 21 19 40 4 18 2 43 -4 54 -9
17 -21 20 -74 20z"/>
<path d="M7463 9950 c-22 0 -44 -5 -51 -12 -7 -7 -12 -29 -12 -49 0 -20 6 -42
13 -48 8 -6 28 -14 45 -17 22 -4 40 -1 57 10 20 13 25 25 25 56 0 29 -5 42
-19 50 -11 5 -37 10 -58 10z"/>
<path d="M3695 9938 c-23 2 -44 0 -47 -3 -3 -4 -67 -6 -142 -6 -108 0 -139 -3
-151 -15 -13 -13 -15 -91 -15 -609 0 -588 0 -594 20 -600 13 -4 35 2 58 16 20
12 53 31 72 42 19 11 72 39 118 63 45 24 94 51 107 61 l25 18 -3 515 -2 515
-40 3z"/>
<path d="M7762 9940 c-133 1 -163 -1 -168 -13 -3 -8 -4 -34 -2 -58 3 -38 6
-44 33 -51 17 -5 99 -13 183 -18 83 -5 159 -7 166 -4 8 3 18 19 21 36 4 16 4
44 1 63 -6 28 -12 34 -39 38 -17 3 -105 6 -195 7z"/>
<path d="M8196 9929 c-50 0 -97 -3 -103 -6 -8 -3 -13 -25 -13 -62 0 -31 5 -62
12 -69 8 -8 48 -12 115 -12 l103 0 0 63 c0 36 -5 68 -12 75 -8 8 -44 12 -102
11z"/>
<path d="M8442 9930 c-4 0 -12 -4 -19 -8 -6 -4 -15 -35 -19 -70 -5 -44 -3 -66
6 -77 7 -8 29 -15 50 -15 l37 0 7 58 c4 32 4 67 0 76 -4 10 -18 22 -31 27 -13
5 -27 9 -31 9z"/>
<path d="M3143 9919 c-43 0 -88 -4 -101 -9 l-22 -9 2 -683 c3 -682 3 -683 24
-686 11 -2 61 21 111 49 58 33 94 60 97 73 3 12 6 296 6 633 0 595 -1 613 -19
623 -11 5 -55 10 -98 9z"/>
<path d="M8919 9914 c-248 6 -278 5 -293 -9 -11 -11 -16 -34 -16 -71 0 -31 5
-64 10 -75 9 -15 21 -19 63 -19 29 0 159 -7 289 -17 194 -13 240 -14 253 -3
11 9 15 32 15 91 0 73 -2 80 -22 88 -13 4 -147 11 -299 15z"/>
<path d="M2607 9908 c-45 -1 -179 -5 -297 -8 l-215 -5 -3 -931 c-2 -775 0
-933 11 -943 11 -8 34 1 103 40 49 29 139 77 199 109 61 31 142 74 180 95 39
20 85 48 103 62 l32 24 0 773 c0 696 -2 774 -16 780 -9 3 -52 5 -97 4z"/>
<path d="M2875 9910 c-17 0 -36 -5 -43 -12 -9 -9 -12 -187 -12 -739 0 -619 2
-728 14 -738 12 -10 21 -9 43 5 15 10 34 24 41 33 9 11 12 171 12 721 0 536
-3 709 -12 718 -7 7 -26 12 -43 12z"/>
<path d="M6716 9860 c-19 0 -39 -6 -45 -14 -6 -7 -9 -21 -5 -30 4 -11 18 -16
44 -16 22 0 42 5 45 10 3 6 3 19 0 30 -5 15 -15 20 -39 20z"/>
<path d="M6826 9850 c-18 0 -36 -3 -39 -7 -4 -3 -7 -12 -7 -19 0 -8 14 -21 31
-30 28 -14 33 -14 46 -1 9 9 13 23 8 36 -5 16 -15 21 -39 21z"/>
<path d="M6975 9834 c-27 3 -56 2 -63 -3 -8 -4 -12 -19 -10 -32 2 -15 12 -26
28 -30 14 -4 52 -7 86 -8 33 -1 65 -6 71 -12 6 -6 26 -9 44 -7 31 3 34 5 31
33 -2 17 -8 34 -13 39 -5 6 -35 11 -66 13 -32 1 -80 5 -108 7z"/>
<path d="M7245 9800 c-12 0 -28 -7 -35 -15 -6 -8 -9 -23 -5 -34 3 -11 14 -22
23 -25 9 -2 40 -8 69 -11 44 -6 53 -4 62 13 5 10 8 28 5 39 -4 16 -17 22 -51
27 -25 3 -56 6 -68 6z"/>
<path d="M7429 9784 c-8 4 -18 3 -22 0 -4 -4 -7 -19 -7 -34 0 -14 6 -33 13
-42 6 -9 28 -18 47 -21 19 -2 45 -1 58 4 19 7 23 15 20 41 -3 31 -6 33 -48 39
-25 3 -52 9 -61 13z"/>
<path d="M6692 9750 c-17 0 -32 -6 -36 -15 -3 -9 4 -21 19 -31 14 -9 44 -17
67 -17 24 -1 49 -8 56 -14 7 -7 24 -13 38 -13 14 0 27 7 31 16 3 9 -3 24 -15
36 -20 20 -22 20 -46 4 -14 -9 -26 -12 -26 -6 0 5 -13 16 -30 25 -16 8 -42 15
-58 15z"/>
<path d="M7712 9746 l-122 7 0 -36 c0 -20 6 -39 13 -44 6 -4 68 -16 137 -25
69 -10 150 -22 180 -27 44 -9 57 -8 69 4 11 11 13 23 5 52 -8 33 -13 38 -39
39 -16 1 -51 6 -76 12 -25 6 -100 14 -167 18z"/>
<path d="M6945 9705 c-11 3 -26 0 -32 -6 -7 -7 -13 -21 -13 -31 0 -10 6 -20
13 -22 6 -2 53 -15 104 -30 51 -14 103 -26 117 -26 16 0 27 7 31 21 4 13 0 27
-11 40 -10 11 -31 19 -48 19 -17 1 -56 7 -86 15 -30 7 -64 17 -75 20z"/>
<path d="M8116 9706 c-6 2 -17 0 -24 -5 -9 -5 -12 -25 -10 -57 l3 -49 100 -17
c70 -11 104 -13 113 -6 6 6 12 30 12 53 0 40 -2 44 -32 53 -18 6 -60 13 -92
17 -33 4 -64 9 -70 11z"/>
<path d="M6699 9670 c-15 0 -30 -3 -32 -7 -3 -5 -4 -93 -2 -198 1 -104 3 -256
4 -337 l1 -147 37 -36 c20 -19 41 -35 47 -35 8 0 10 106 8 367 -2 331 -4 369
-19 381 -9 6 -29 12 -44 12z"/>
<path d="M8445 9670 c-12 0 -26 -5 -33 -12 -7 -7 -12 -31 -12 -54 0 -24 6 -47
14 -53 8 -7 32 -11 53 -9 37 3 38 4 41 47 3 37 -1 48 -20 63 -13 10 -32 18
-43 18z"/>
<path d="M6813 9640 c-11 0 -23 -3 -26 -7 -4 -3 -7 -170 -7 -370 0 -303 3
-369 15 -393 8 -16 24 -32 36 -35 14 -5 25 -2 30 6 5 8 9 183 9 390 0 352 -1
377 -18 392 -10 10 -28 17 -39 17z"/>
<path d="M7263 9635 c-34 5 -44 3 -49 -9 -3 -8 -4 -23 -2 -33 2 -12 22 -24 61
-36 32 -10 65 -16 73 -13 8 3 14 18 14 34 0 23 -6 32 -27 40 -16 6 -47 14 -70
17z"/>
<path d="M8660 9639 c-8 0 -23 -4 -32 -10 -13 -7 -18 -23 -18 -53 0 -24 6 -48
13 -54 7 -6 32 -15 57 -20 25 -6 77 -15 115 -21 39 -6 104 -15 145 -21 41 -6
84 -13 95 -15 11 -2 57 -10 103 -16 71 -11 85 -11 93 2 5 8 9 40 9 71 0 47 -4
59 -20 68 -11 6 -84 17 -162 25 -79 8 -197 21 -263 30 -66 8 -127 15 -135 14z"/>
<path d="M6922 9610 c-5 0 -12 -3 -15 -7 -4 -3 -7 -188 -7 -409 0 -222 4 -413
9 -426 5 -13 20 -34 34 -48 13 -14 43 -40 66 -58 22 -19 60 -54 83 -78 23 -24
47 -44 54 -44 6 0 15 7 18 16 3 9 6 229 6 489 0 406 -2 476 -15 488 -8 9 -29
18 -47 22 -18 4 -65 18 -105 31 -39 13 -75 24 -81 24z"/>
<path d="M7452 9596 c-27 5 -33 3 -43 -20 -9 -20 -9 -29 0 -40 7 -8 38 -20 68
-26 45 -10 57 -9 64 2 5 7 9 18 9 25 0 7 -10 21 -22 33 -12 11 -27 20 -34 20
-6 0 -25 3 -42 6z"/>
<path d="M7651 9556 c-25 3 -49 2 -53 -2 -5 -4 -8 -20 -8 -34 0 -15 6 -32 13
-37 6 -6 23 -13 37 -16 14 -3 54 -12 90 -21 36 -9 83 -21 105 -27 22 -7 59
-18 82 -25 23 -8 49 -11 57 -8 8 3 17 15 20 27 3 12 6 28 6 35 0 6 -9 21 -19
31 -12 12 -41 22 -78 26 -32 4 -91 15 -132 26 -40 10 -94 21 -120 25z"/>
<path d="M7236 9516 c-11 4 -19 -3 -25 -20 -7 -16 -8 -211 -5 -523 l5 -498 60
-57 c32 -32 66 -58 74 -58 12 0 15 17 16 88 0 48 2 292 4 542 3 250 2 463 -1
472 -3 10 -27 23 -59 33 -30 8 -61 18 -69 21z"/>
<path d="M8098 9460 c-10 0 -20 -10 -24 -25 -3 -14 -3 -36 0 -49 4 -18 18 -28
53 -39 27 -9 71 -21 99 -28 28 -7 59 -9 68 -6 11 5 16 19 16 51 0 35 -5 48
-19 56 -11 5 -55 17 -98 25 -43 8 -86 15 -95 15z"/>
<path d="M7440 9450 c-24 0 -31 -5 -36 -27 -4 -14 -5 -276 -2 -581 l6 -554 50
-51 c34 -33 55 -48 66 -44 14 6 16 67 16 609 0 332 -4 608 -8 615 -4 6 -20 17
-35 22 -16 6 -41 11 -57 11z"/>
<path d="M7621 9400 c-10 0 -21 -3 -24 -7 -4 -3 -7 -289 -7 -635 0 -529 2
-633 14 -657 8 -15 73 -81 143 -147 70 -65 148 -138 173 -161 25 -24 50 -43
56 -43 6 0 14 14 18 31 3 17 6 362 6 765 l0 734 -24 15 c-13 9 -41 19 -62 22
-22 3 -92 23 -157 44 -65 22 -126 39 -136 39z"/>
<path d="M8447 9397 c-26 4 -36 1 -41 -12 -3 -9 -6 -31 -6 -49 0 -18 6 -40 13
-49 6 -9 26 -18 42 -19 17 -1 36 1 43 6 7 4 12 27 12 50 0 25 -6 48 -14 55 -8
7 -30 14 -49 18z"/>
<path d="M8678 9345 l-58 7 0 -33 c0 -19 -3 -44 -6 -56 -5 -18 0 -25 27 -37
19 -8 59 -21 89 -30 30 -9 78 -20 105 -26 28 -6 124 -29 214 -51 128 -31 167
-37 178 -28 10 9 13 30 11 73 l-3 61 -40 14 c-22 8 -62 17 -90 21 -27 5 -68
13 -90 18 -22 6 -78 18 -125 27 -47 9 -101 20 -120 25 -19 5 -61 12 -92 15z"/>
<path d="M4548 9299 c-7 0 -28 -10 -46 -22 -18 -12 -35 -32 -38 -44 -3 -12 -3
-27 1 -32 3 -6 14 -11 24 -11 9 0 29 13 44 28 16 16 27 39 27 55 0 15 -5 27
-12 26z"/>
<path d="M8098 9260 c-4 0 -10 -5 -13 -11 -4 -5 -6 -371 -6 -812 l2 -802 28
-25 c15 -14 61 -56 101 -93 53 -49 76 -65 84 -57 8 8 12 264 14 870 l3 859
-22 11 c-11 7 -58 22 -102 36 -45 13 -85 24 -89 24z"/>
<path d="M4407 9220 c-1 0 -13 -9 -27 -20 -14 -11 -30 -20 -36 -20 -5 0 -19
-9 -31 -19 -11 -11 -43 -31 -70 -45 -27 -13 -58 -37 -67 -51 -10 -14 -16 -34
-14 -43 2 -9 10 -18 19 -20 8 -1 44 14 80 35 35 21 90 57 122 81 41 31 57 49
57 66 0 13 -7 27 -16 30 -9 3 -16 6 -17 6z"/>
<path d="M4647 9220 c-7 0 -27 -15 -44 -32 -17 -18 -32 -40 -33 -48 -1 -8 -2
-23 -1 -32 0 -10 8 -18 16 -18 9 0 35 18 57 39 39 36 41 41 30 65 -6 14 -18
26 -25 26z"/>
<path d="M8440 9160 c-22 0 -31 -5 -35 -22 -3 -13 -4 -424 -3 -913 l3 -891 25
-31 c14 -17 33 -33 42 -36 10 -3 21 0 25 6 5 7 10 424 11 929 l4 916 -21 21
c-12 12 -34 21 -51 21z"/>
<path d="M4531 9140 c-4 0 -21 -15 -39 -33 -18 -18 -32 -41 -32 -51 0 -9 5
-27 11 -39 7 -12 13 -24 15 -26 2 -2 14 10 28 25 14 16 28 41 31 56 4 15 4 37
0 48 -3 11 -10 20 -14 20z"/>
<path d="M4668 9062 c-3 42 -5 45 -24 37 -12 -4 -33 -23 -47 -41 -14 -18 -28
-45 -32 -60 -6 -23 -9 -25 -25 -15 -15 9 -23 7 -41 -8 -12 -11 -27 -34 -34
-50 -9 -20 -11 -44 -5 -73 4 -24 10 -46 14 -50 4 -3 15 -1 24 4 9 6 25 25 36
43 10 18 19 45 21 62 1 16 5 32 9 36 3 3 6 -3 6 -15 0 -11 5 -24 11 -28 7 -4
26 9 46 32 18 21 36 48 39 60 3 11 4 41 2 66z"/>
<path d="M8643 9100 c-6 0 -16 -6 -23 -14 -9 -11 -11 -243 -9 -978 1 -627 5
-970 12 -983 5 -11 13 -22 17 -25 4 -3 72 -66 150 -140 79 -74 157 -148 174
-163 17 -16 63 -59 101 -96 39 -37 87 -82 108 -100 31 -25 42 -30 53 -20 12
10 14 186 14 1175 0 1143 0 1163 -20 1174 -10 5 -72 26 -137 44 -65 19 -188
55 -274 80 -86 25 -161 46 -166 46z"/>
<path d="M4428 9036 c-11 10 -34 -3 -126 -73 -62 -46 -120 -96 -128 -109 -10
-15 -14 -33 -10 -49 4 -15 14 -25 24 -25 9 0 28 14 41 30 13 17 29 29 35 28 6
-2 27 8 46 21 19 13 54 44 77 68 22 25 44 56 48 70 4 16 1 31 -7 39z"/>
<path d="M4105 9018 c-11 1 -43 -12 -72 -30 -28 -17 -56 -42 -62 -55 -6 -13
-11 -32 -11 -43 0 -10 5 -22 10 -25 6 -4 45 14 86 40 70 44 75 49 72 79 -2 22
-9 32 -23 34z"/>
<path d="M6285 8980 c-8 0 -16 -4 -19 -9 -3 -5 4 -28 16 -50 12 -23 25 -41 30
-41 4 0 8 -9 8 -21 0 -12 14 -39 31 -61 25 -30 37 -38 58 -36 16 2 27 10 29
21 2 10 -4 27 -14 38 -9 10 -25 19 -34 19 -10 0 -24 7 -31 17 -11 13 -11 17
-1 20 6 3 12 12 12 20 0 9 -16 31 -36 49 -19 19 -42 34 -49 34z"/>
<path d="M5027 8968 l-338 2 -34 -37 c-19 -21 -35 -41 -35 -45 0 -4 4 -9 9
-12 4 -3 167 -6 360 -6 266 -1 356 2 367 11 10 8 14 26 12 48 l-3 36 -338 3z"/>
<path d="M5445 8966 c-5 2 -18 -1 -27 -6 -9 -6 -19 -24 -23 -40 -4 -19 -2 -37
6 -46 10 -12 9 -17 -4 -27 -9 -7 -21 -25 -27 -41 -6 -18 -7 -33 -2 -38 5 -5
22 -8 38 -6 23 2 30 9 35 38 5 20 3 40 -3 47 -7 9 -7 17 1 27 6 7 12 30 14 51
1 21 -2 39 -8 41z"/>
<path d="M5539 8968 c-9 2 -21 -3 -27 -10 -6 -7 -14 -26 -17 -41 -4 -16 -3
-33 4 -41 8 -10 7 -21 -5 -44 -9 -18 -13 -41 -9 -52 5 -17 14 -20 38 -18 28 3
32 7 35 36 2 18 -2 40 -9 48 -9 11 -9 17 0 28 7 8 11 32 9 53 -2 25 -8 39 -19
41z"/>
<path d="M5626 8970 c-19 0 -37 -3 -39 -7 -2 -5 -7 -20 -11 -35 -3 -14 -3 -34
0 -42 4 -10 18 -16 39 -16 19 0 37 5 40 10 4 7 12 7 25 0 11 -6 130 -10 292
-11 150 0 279 0 286 0 6 1 12 6 12 11 0 6 -11 28 -25 50 l-25 40 -265 0 c-227
0 -266 -2 -271 -15 -4 -8 -10 -15 -15 -15 -5 0 -9 7 -9 15 0 10 -10 15 -34 15z"/>
<path d="M3901 8900 c-3 -1 -23 -10 -43 -21 -21 -10 -42 -28 -48 -40 -6 -11
-10 -32 -8 -47 2 -18 10 -28 24 -30 11 -2 33 7 48 19 16 12 35 38 43 57 11 26
11 37 2 48 -6 8 -14 14 -18 14z"/>
<path d="M4415 8877 c-12 2 -38 -14 -65 -38 -25 -23 -74 -68 -109 -101 -60
-55 -65 -62 -72 -114 -4 -31 -5 -62 -2 -70 3 -8 12 -14 20 -14 8 0 39 24 69
53 31 28 82 78 114 109 33 31 62 68 65 81 4 13 5 39 3 58 -2 25 -8 35 -23 36z"/>
<path d="M4959 8850 l-381 0 -29 -29 c-16 -16 -29 -37 -29 -45 0 -14 42 -16
400 -16 385 0 400 1 410 19 5 11 10 31 10 45 l0 26 -381 0z"/>
<path d="M5615 8850 c-28 0 -36 -4 -41 -24 -3 -14 -4 -33 -2 -43 2 -13 14 -19
40 -21 30 -3 38 1 43 18 4 12 4 32 1 46 -5 20 -13 24 -41 24z"/>
<path d="M5984 8850 l-294 0 -12 -26 c-9 -18 -9 -30 -1 -42 9 -15 42 -17 328
-17 227 0 319 3 322 11 2 6 -8 26 -22 43 l-27 31 -294 0z"/>
<path d="M4113 8807 c-4 2 -20 -5 -34 -15 -15 -9 -43 -28 -63 -42 -20 -14 -39
-33 -42 -44 -3 -10 -6 -34 -6 -53 0 -19 3 -37 6 -40 3 -3 37 19 76 48 65 50
70 57 70 91 0 21 0 41 1 45 0 4 -3 9 -8 10z"/>
<path d="M3720 8787 c-8 1 -33 -8 -55 -20 -22 -12 -65 -38 -95 -58 -30 -20
-77 -48 -103 -62 -26 -15 -60 -35 -75 -44 -15 -10 -33 -25 -39 -33 -8 -9 -12
-36 -10 -65 1 -39 6 -51 20 -53 10 -2 46 17 80 43 34 25 87 61 117 80 30 19
78 49 107 67 28 18 57 45 63 59 6 15 10 40 8 55 -2 16 -10 30 -18 31z"/>
<path d="M6860 8770 c-5 0 -10 -4 -10 -10 0 -5 5 -10 10 -10 6 0 10 5 10 10 0
6 -4 10 -10 10z"/>
<path d="M5065 8737 c-93 -1 -268 -4 -388 -7 l-218 -5 -50 -55 c-27 -30 -79
-85 -116 -122 -37 -37 -64 -71 -59 -75 4 -4 231 -9 503 -11 357 -3 498 -1 507
8 6 6 16 32 22 58 7 26 19 73 28 105 9 32 16 66 16 77 0 14 -9 19 -37 23 -21
3 -114 4 -208 4z"/>
<path d="M5508 8740 c-5 0 -17 -9 -28 -20 -11 -11 -20 -32 -21 -47 -1 -16 -3
-46 -5 -68 -1 -22 -6 -61 -9 -87 -6 -40 -4 -48 14 -57 15 -8 27 -9 40 -2 13 7
21 26 25 58 3 27 8 83 12 127 5 61 4 80 -7 87 -8 5 -17 9 -21 9z"/>
<path d="M5614 8732 c-25 3 -38 0 -44 -12 -5 -9 -11 -67 -15 -129 -4 -79 -2
-117 6 -127 7 -9 21 -12 38 -8 14 4 31 11 37 16 7 5 15 55 19 112 4 58 4 113
1 124 -5 14 -18 21 -42 24z"/>
<path d="M6018 8739 c-229 -1 -322 -4 -333 -13 -14 -10 -16 -24 -11 -87 3 -40
6 -95 6 -120 0 -29 5 -51 15 -59 8 -7 22 -10 30 -6 8 3 175 6 371 6 196 1 362
4 370 7 8 3 14 14 14 25 0 11 -8 32 -19 46 -10 15 -35 61 -55 102 -20 41 -45
81 -54 88 -13 10 -88 13 -334 11z"/>
<path d="M6427 8740 c-1 0 -8 -4 -16 -9 -11 -7 -10 -16 9 -47 13 -22 39 -59
59 -84 20 -24 35 -49 33 -53 -1 -5 9 -25 24 -44 14 -19 36 -38 48 -43 14 -5
26 -4 35 5 7 7 10 21 7 31 -3 11 -19 33 -36 51 -16 18 -30 37 -30 43 0 6 -18
38 -41 71 -22 33 -52 64 -65 70 -14 5 -26 9 -27 9z"/>
<path d="M6632 8732 c-23 3 -36 0 -39 -9 -3 -7 2 -25 12 -39 9 -14 31 -42 49
-62 17 -20 40 -50 50 -67 10 -16 30 -42 44 -57 19 -21 35 -28 63 -28 21 0 41
5 44 10 4 6 -9 26 -29 44 -20 18 -36 36 -36 40 0 4 -20 35 -44 70 -25 34 -53
69 -63 78 -10 8 -33 18 -51 20z"/>
<path d="M5378 8728 c-19 2 -30 -3 -37 -17 -6 -11 -15 -46 -20 -78 -5 -32 -16
-79 -25 -105 -13 -41 -13 -50 -1 -62 8 -8 24 -12 36 -9 11 3 25 17 30 30 5 13
9 38 9 54 0 17 6 42 14 57 8 15 15 50 17 77 4 48 3 50 -23 53z"/>
<path d="M6803 8730 c-26 0 -55 -4 -62 -9 -12 -8 -5 -20 34 -63 28 -29 63 -67
80 -84 16 -17 45 -47 63 -66 28 -29 43 -37 87 -42 29 -3 61 -3 69 0 9 3 16 12
16 19 0 7 -21 32 -47 56 -27 24 -67 70 -90 101 -23 31 -56 64 -72 73 -17 8
-52 15 -78 15z"/>
<path d="M3905 8656 c-5 2 -22 -3 -36 -11 -14 -8 -34 -26 -43 -40 -10 -15 -18
-45 -19 -68 -2 -32 2 -42 16 -45 11 -2 34 12 58 37 36 36 40 44 37 82 -2 23
-7 44 -13 45z"/>
<path d="M4102 8608 c-7 2 -40 -23 -73 -55 -61 -59 -61 -59 -65 -125 -3 -50 0
-69 11 -78 13 -11 26 -3 81 52 l65 66 -3 68 c-2 43 -8 69 -16 72z"/>
<path d="M3715 8517 c-12 2 -68 -34 -145 -93 -69 -52 -142 -104 -162 -115 -21
-11 -45 -30 -53 -43 -11 -17 -15 -42 -13 -82 2 -31 8 -59 14 -61 6 -2 25 7 42
19 17 13 84 63 147 112 64 49 134 106 156 128 37 36 40 43 37 86 -2 38 -7 47
-23 49z"/>
<path d="M3220 8499 c-3 0 -41 -23 -85 -51 -43 -27 -89 -60 -101 -73 -18 -20
-21 -32 -17 -67 2 -24 7 -49 9 -56 3 -9 11 -11 26 -6 13 4 60 32 106 62 45 30
86 60 89 65 4 6 6 33 6 60 0 30 -6 53 -14 58 -8 5 -16 8 -19 8z"/>
<path d="M3911 8434 c-5 3 -28 -11 -50 -32 -29 -25 -45 -49 -51 -77 -5 -22
-10 -61 -10 -87 0 -26 5 -50 12 -54 6 -4 31 14 60 44 l48 51 0 75 c0 41 -4 77
-9 80z"/>
<path d="M4692 8420 l-519 0 -63 -66 c-53 -56 -60 -68 -48 -80 11 -11 110 -14
557 -14 360 -1 547 2 555 9 7 6 21 35 31 64 10 30 15 62 12 71 -6 15 -54 16
-525 16z"/>
<path d="M5309 8418 c-14 2 -30 -3 -36 -10 -5 -7 -15 -37 -22 -67 -10 -46 -9
-57 3 -69 9 -9 24 -12 39 -9 19 5 26 17 36 60 7 29 12 62 10 73 -3 12 -14 20
-30 22z"/>
<path d="M5458 8420 c-21 0 -29 -6 -33 -23 -4 -13 -5 -48 -3 -78 3 -52 4 -54
32 -54 24 0 31 6 42 35 7 19 13 49 13 66 1 16 -4 35 -11 42 -7 7 -25 12 -40
12z"/>
<path d="M5598 8418 c-25 2 -48 -1 -51 -5 -3 -4 -8 -34 -12 -66 -5 -40 -4 -62
5 -72 7 -8 29 -15 50 -15 21 0 43 6 49 14 7 9 11 40 9 78 l-3 63 -47 3z"/>
<path d="M6105 8420 l-415 0 0 -74 c0 -43 5 -78 11 -82 6 -3 207 -6 446 -6
337 1 438 4 444 13 4 8 -3 32 -18 58 -14 25 -32 56 -40 69 l-13 22 -415 0z"/>
<path d="M6643 8420 c-13 0 -26 -7 -30 -16 -3 -9 0 -26 7 -38 8 -11 22 -37 31
-57 13 -26 27 -38 48 -42 17 -4 38 -4 46 -1 8 4 15 12 15 18 0 7 -14 34 -31
62 -17 27 -38 55 -47 62 -9 6 -26 12 -39 12z"/>
<path d="M6865 8420 c-19 0 -35 -6 -38 -14 -3 -7 10 -35 29 -62 19 -27 42 -55
51 -61 9 -7 36 -13 59 -13 24 0 45 4 49 9 3 5 -13 31 -36 58 -22 26 -50 56
-61 66 -11 9 -35 17 -53 17z"/>
<path d="M7081 8420 c-51 0 -61 -3 -61 -17 0 -10 23 -44 51 -75 l51 -58 79 0
c69 0 79 2 79 18 0 10 -21 38 -47 64 -27 25 -58 51 -70 57 -12 6 -49 11 -82
11z"/>
<path d="M2914 8298 c-10 1 -33 -6 -50 -17 -20 -12 -33 -30 -38 -51 -3 -18 -6
-47 -6 -64 0 -18 6 -41 14 -51 13 -18 14 -18 43 3 16 12 35 27 41 34 6 7 12
42 13 78 2 58 1 65 -17 68z"/>
<path d="M3718 8268 c-11 2 -41 -18 -75 -50 -32 -30 -95 -85 -140 -123 -44
-39 -100 -85 -122 -103 l-42 -34 3 -101 c3 -89 5 -102 21 -105 13 -3 49 26
110 86 51 50 121 116 157 148 36 32 75 69 88 83 20 23 22 35 20 111 -3 71 -6
85 -20 88z"/>
<path d="M4580 8220 l-590 0 -45 -41 c-25 -23 -45 -50 -45 -60 0 -18 19 -19
528 -21 290 0 562 -1 605 -2 44 -1 83 1 87 4 5 3 18 27 29 54 12 26 21 52 21
57 0 5 -239 9 -590 9z"/>
<path d="M5266 8220 c-32 0 -35 -3 -51 -50 -13 -40 -14 -54 -5 -65 7 -8 21
-15 32 -15 13 0 25 14 38 43 11 23 20 52 20 65 0 18 -5 22 -34 22z"/>
<path d="M5439 8218 c-31 3 -37 -1 -43 -20 -3 -13 -6 -37 -6 -54 0 -17 7 -37
15 -44 12 -10 21 -10 40 -2 13 6 27 22 31 35 3 14 4 38 2 53 -3 25 -8 29 -39
32z"/>
<path d="M5588 8218 c-38 2 -49 -1 -57 -17 -6 -11 -11 -32 -11 -48 0 -15 4
-34 9 -42 5 -8 26 -14 51 -14 23 0 46 5 51 10 6 6 9 32 7 59 l-3 49 -47 3z"/>
<path d="M6158 8220 l-469 0 3 -57 3 -58 493 -3 c489 -2 492 -2 492 18 0 11
-12 38 -26 60 l-27 40 -469 0z"/>
<path d="M6757 8220 c-35 0 -38 -2 -31 -22 4 -13 18 -40 31 -60 21 -35 27 -38
68 -38 36 0 45 3 45 18 0 9 -8 29 -18 45 -10 15 -27 34 -38 42 -10 8 -36 15
-57 15z"/>
<path d="M7015 8220 c-19 0 -36 -3 -36 -7 -1 -5 0 -17 1 -28 1 -11 16 -35 33
-52 26 -28 38 -33 79 -33 29 0 48 4 48 11 0 7 -9 26 -20 44 -11 18 -31 40 -45
49 -13 9 -40 16 -60 16z"/>
<path d="M7260 8220 c-54 0 -60 -2 -60 -20 0 -12 17 -39 38 -62 l38 -40 77 -1
c43 0 82 4 88 10 7 7 0 22 -23 48 -18 21 -47 44 -65 51 -18 8 -60 14 -93 14z"/>
<path d="M2691 8170 c-9 0 -83 -41 -166 -91 -82 -50 -162 -100 -177 -110 -14
-11 -30 -19 -35 -19 -6 0 -18 -9 -28 -20 -10 -11 -24 -20 -30 -20 -7 0 -38
-16 -70 -35 -32 -19 -66 -42 -76 -51 -16 -14 -19 -32 -19 -98 0 -45 4 -88 10
-96 8 -12 13 -12 42 3 18 10 50 28 71 41 20 12 50 34 65 48 15 14 35 28 46 32
10 3 30 15 45 26 14 12 88 61 164 111 77 49 150 102 163 116 19 21 24 37 24
79 0 29 -3 59 -6 68 -3 9 -14 16 -23 16z"/>
<path d="M3230 8167 c-8 2 -36 -14 -62 -35 -26 -20 -70 -54 -98 -75 l-50 -38
0 -75 c0 -64 2 -74 18 -74 10 0 29 8 42 17 14 9 58 44 98 77 l73 61 -3 70 c-2
53 -7 70 -18 72z"/>
<path d="M5019 8037 c-24 -1 -308 -3 -630 -5 l-586 -2 -79 -83 c-43 -45 -119
-126 -169 -180 -49 -54 -90 -105 -90 -115 0 -16 48 -17 764 -17 669 0 765 2
771 15 5 8 13 33 18 55 6 22 15 60 20 85 6 25 19 69 30 97 11 29 23 71 27 92
5 33 3 41 -13 50 -10 5 -39 9 -63 8z"/>
<path d="M5217 8040 c-7 0 -17 -4 -23 -8 -5 -4 -15 -20 -21 -37 -6 -16 -17
-55 -23 -85 -7 -30 -23 -100 -37 -154 -24 -95 -24 -100 -7 -113 10 -7 28 -13
40 -13 12 0 26 6 31 13 6 6 13 25 17 42 4 16 9 43 11 60 3 17 16 74 30 126 14
52 25 108 25 125 0 20 -6 34 -16 38 -9 3 -21 6 -27 6z"/>
<path d="M5421 8040 c-10 0 -25 -6 -34 -12 -11 -9 -21 -46 -32 -113 -8 -55
-20 -122 -25 -150 -5 -27 -11 -67 -14 -87 -3 -23 0 -41 8 -47 7 -6 27 -8 44
-5 18 4 36 12 42 19 6 7 17 78 25 156 8 79 17 159 21 177 3 20 0 40 -7 48 -6
8 -19 14 -28 14z"/>
<path d="M5580 8035 c-31 3 -42 0 -50 -15 -6 -11 -15 -73 -20 -137 -6 -65 -13
-142 -16 -170 -5 -36 -2 -58 6 -68 8 -10 30 -15 61 -15 38 0 51 4 59 20 6 12
13 98 16 195 3 114 1 176 -6 180 -6 3 -28 8 -50 10z"/>
<path d="M6538 8038 c-95 -2 -321 -4 -502 -5 -196 -2 -332 -7 -336 -13 -3 -5
-3 -42 1 -82 4 -40 8 -120 8 -178 1 -68 5 -110 13 -118 9 -9 155 -12 594 -12
320 0 589 3 598 6 9 3 16 13 16 21 0 8 -22 54 -48 102 -26 47 -64 117 -83 155
-18 38 -46 82 -61 97 l-26 29 -174 -2z"/>
<path d="M6893 8033 c-23 3 -44 2 -47 -1 -3 -3 -6 -11 -6 -18 0 -7 19 -45 42
-86 23 -40 52 -86 65 -101 13 -16 40 -62 59 -103 32 -65 41 -75 73 -84 20 -5
48 -10 64 -10 22 0 27 4 27 25 0 15 -26 64 -60 115 -33 49 -60 93 -60 98 0 5
-8 16 -19 26 -10 9 -28 37 -41 61 -13 24 -30 51 -39 58 -9 8 -35 17 -58 20z"/>
<path d="M7175 8036 c-22 2 -48 0 -57 -6 -11 -7 -15 -17 -11 -28 4 -9 28 -44
54 -77 27 -33 78 -104 114 -157 36 -53 77 -106 91 -117 19 -15 41 -21 74 -21
30 0 52 6 60 15 10 12 9 20 -4 41 -10 14 -26 34 -37 45 -11 11 -33 37 -47 58
-15 21 -46 62 -69 92 -22 30 -61 76 -85 102 -35 39 -51 49 -83 53z"/>
<path d="M7460 8033 c-30 2 -65 2 -77 -1 -13 -2 -23 -10 -23 -17 0 -8 19 -35
42 -62 22 -26 64 -71 91 -100 27 -29 72 -81 98 -117 27 -36 62 -74 79 -86 25
-18 41 -20 121 -18 61 2 94 7 96 15 3 7 -73 95 -168 197 -94 102 -179 186
-188 186 -9 1 -41 2 -71 3z"/>
<path d="M2905 7928 c-11 1 -33 -9 -49 -23 -27 -23 -29 -29 -30 -107 -1 -76 1
-83 19 -85 11 -2 34 9 50 24 29 25 30 30 30 107 0 73 -2 81 -20 84z"/>
<path d="M3234 7857 c-5 1 -29 -16 -54 -39 -25 -22 -71 -64 -102 -93 l-58 -53
0 -110 c0 -66 4 -113 10 -117 6 -4 21 0 33 8 12 9 60 51 105 94 l84 78 4 85
c2 47 0 98 -4 114 -5 16 -12 31 -18 33z"/>
<path d="M2686 7780 c-2 0 -67 -48 -145 -107 -78 -60 -159 -121 -179 -136 -20
-15 -44 -33 -52 -40 -8 -7 -33 -23 -55 -37 -22 -13 -60 -39 -85 -58 -25 -18
-53 -40 -63 -48 -15 -12 -17 -29 -15 -122 3 -98 5 -107 23 -110 11 -1 33 10
50 26 17 15 72 64 123 107 52 44 109 89 127 100 17 11 91 68 162 127 72 59
133 115 137 123 3 9 6 50 6 90 0 57 -3 74 -16 79 -9 3 -17 6 -18 6z"/>
<path d="M2904 7558 c-12 2 -34 -9 -52 -27 l-32 -29 0 -131 c0 -84 4 -131 10
-131 6 0 22 7 35 16 14 9 34 31 45 49 18 29 20 47 18 142 -3 101 -4 108 -24
111z"/>
<path d="M4163 7559 c-552 -1 -794 -5 -808 -13 -11 -6 -63 -55 -114 -109 -55
-58 -90 -102 -85 -107 6 -6 367 -10 839 -10 457 0 847 -1 868 0 29 0 39 5 46
23 5 12 19 59 32 103 12 45 19 89 16 98 -6 16 -69 17 -794 15z"/>
<path d="M5111 7560 c-36 0 -40 -3 -54 -37 -8 -21 -23 -73 -33 -115 -9 -43
-16 -80 -13 -82 2 -2 25 -7 52 -11 l47 -7 15 37 c9 20 22 70 29 110 7 43 9 81
4 90 -6 9 -23 15 -47 15z"/>
<path d="M5370 7556 c-14 1 -35 0 -47 -3 -16 -3 -25 -15 -32 -41 -5 -20 -15
-68 -21 -105 -11 -58 -10 -71 2 -83 10 -10 27 -12 61 -8 39 6 48 11 53 31 4
13 7 65 8 116 1 92 1 92 -24 93z"/>
<path d="M5571 7555 c-28 1 -58 -3 -67 -10 -14 -9 -18 -34 -22 -118 l-5 -106
37 -6 c20 -4 51 -4 70 -1 19 4 37 13 40 21 3 8 8 54 11 102 4 50 2 94 -3 102
-6 8 -31 15 -61 16z"/>
<path d="M6356 7559 c-341 0 -627 -3 -633 -6 -9 -3 -13 -34 -13 -106 0 -56 4
-108 9 -115 6 -10 145 -13 695 -15 378 -2 690 1 692 5 3 5 -15 50 -41 101 -26
50 -56 102 -67 114 l-21 22 -621 0z"/>
<path d="M7198 7555 c-45 3 -58 0 -63 -12 -3 -10 12 -48 40 -94 25 -43 45 -82
45 -87 0 -5 8 -16 18 -24 9 -8 45 -18 80 -22 51 -5 64 -3 68 9 4 9 -15 50 -42
95 -27 45 -58 92 -69 106 -17 21 -31 27 -77 29z"/>
<path d="M7524 7558 c-35 0 -67 -4 -70 -9 -3 -6 7 -30 22 -54 16 -24 48 -70
71 -103 23 -33 54 -64 70 -70 15 -6 44 -10 63 -8 19 2 47 4 63 5 15 0 27 6 27
12 0 5 -35 54 -77 107 -42 53 -83 102 -91 108 -8 6 -43 11 -78 12z"/>
<path d="M7885 7559 c-44 -1 -88 -3 -97 -6 -10 -2 -18 -8 -18 -12 0 -5 16 -30
36 -57 21 -27 58 -71 83 -98 25 -26 58 -53 72 -60 16 -7 68 -10 132 -8 64 2
107 7 107 13 0 6 -35 48 -77 93 -43 45 -96 95 -118 109 -35 24 -48 27 -120 26z"/>
<path d="M2702 7380 c-10 0 -40 -19 -67 -42 -27 -24 -92 -80 -144 -126 -53
-46 -129 -113 -169 -150 -41 -37 -82 -72 -92 -77 -11 -6 -46 -37 -80 -69 l-60
-59 2 -161 c2 -125 6 -161 16 -161 7 0 82 66 165 147 84 81 218 211 300 289
l147 142 0 133 c0 123 -2 134 -18 134z"/>
<path d="M7790 7221 c-30 3 -65 3 -77 1 -13 -2 -23 -6 -23 -8 0 -3 7 -18 14
-33 8 -15 26 -35 40 -45 18 -11 47 -16 96 -16 52 0 72 4 76 14 3 8 1 24 -6 35
-6 11 -23 27 -38 35 -15 7 -52 15 -82 17z"/>
<path d="M8204 7222 c-55 3 -110 1 -122 -3 -12 -5 -22 -12 -22 -16 0 -5 7 -19
16 -32 9 -13 32 -29 50 -37 22 -9 72 -14 144 -14 l110 0 0 25 c0 18 -11 32
-37 49 -32 20 -54 25 -139 28z"/>
<path d="M3944 7220 l-901 0 -34 -23 c-23 -16 -34 -31 -34 -47 l0 -25 919 -3
c788 -2 923 0 941 12 13 8 25 26 27 40 3 14 0 30 -5 35 -8 8 -295 11 -913 11z"/>
<path d="M5041 7220 c-27 0 -53 -6 -58 -12 -6 -7 -13 -24 -16 -38 -3 -14 -3
-31 2 -38 5 -9 25 -12 57 -10 42 3 51 7 62 31 7 15 10 36 7 47 -5 16 -15 20
-54 20z"/>
<path d="M5311 7220 c-27 0 -53 -6 -59 -12 -5 -7 -12 -22 -16 -34 -4 -12 -4
-29 0 -38 5 -12 19 -16 60 -16 50 0 55 2 65 27 5 15 8 38 4 50 -5 20 -12 23
-54 23z"/>
<path d="M5550 7218 c-36 1 -71 -2 -78 -6 -8 -6 -12 -24 -10 -48 l3 -39 75 0
75 0 0 45 0 45 -65 3z"/>
<path d="M6449 7220 l-719 0 -12 -25 c-8 -19 -8 -31 0 -50 l12 -25 737 2 c736
3 738 3 741 24 2 11 -7 32 -18 47 l-21 27 -720 0z"/>
<path d="M7411 7220 c-37 0 -71 -3 -74 -7 -4 -3 -7 -12 -7 -19 0 -7 12 -26 26
-43 24 -29 30 -31 95 -31 63 0 69 2 69 21 0 11 -9 34 -21 50 -19 27 -25 29
-88 29z"/>
<path d="M4405 7012 c-209 1 -647 2 -973 0 l-594 -2 -71 -73 c-40 -40 -168
-173 -285 -295 -142 -147 -212 -227 -208 -237 5 -13 152 -15 1174 -15 924 0
1171 3 1179 13 5 6 19 42 32 79 13 37 20 72 16 77 -3 6 1 23 9 38 8 16 25 62
37 103 12 41 29 100 39 130 9 30 23 79 30 108 9 32 10 56 4 61 -5 5 -180 11
-389 13z"/>
<path d="M5808 7013 c-7 2 -26 2 -43 0 -16 -3 -34 -10 -38 -16 -4 -7 -5 -140
-1 -297 4 -165 11 -290 16 -297 8 -10 207 -13 935 -13 814 0 924 2 929 15 4 8
-12 45 -34 83 -22 37 -78 141 -124 232 -47 91 -102 193 -122 228 l-37 62 -734
0 c-403 0 -739 2 -747 3z"/>
<path d="M7585 7011 c-11 2 -46 3 -77 1 -34 -2 -58 -8 -58 -14 0 -6 35 -70 78
-142 44 -72 101 -167 128 -211 28 -44 66 -109 86 -145 20 -36 46 -75 58 -88
20 -21 29 -23 108 -20 79 3 87 5 90 24 2 12 -20 53 -55 102 -32 46 -70 102
-85 125 -15 23 -33 51 -40 62 -7 11 -38 58 -69 105 -31 47 -65 101 -77 120
-11 20 -31 45 -44 56 -13 12 -32 23 -43 25z"/>
<path d="M4986 7010 c-42 0 -55 -4 -61 -17 -3 -10 -22 -79 -40 -153 -18 -74
-36 -151 -40 -170 -4 -19 -20 -84 -37 -143 -16 -60 -27 -115 -24 -123 4 -10
24 -14 75 -14 59 0 72 3 80 19 6 10 18 70 27 132 9 63 25 148 36 189 12 41 28
114 36 161 9 47 13 93 9 102 -5 13 -19 17 -61 17z"/>
<path d="M5276 7010 c-30 0 -58 -5 -61 -10 -4 -6 -11 -39 -16 -73 -5 -34 -16
-107 -24 -162 -9 -55 -23 -140 -31 -190 -9 -49 -17 -110 -18 -135 l-1 -45 72
-3 c61 -2 73 0 81 15 5 10 12 75 16 144 3 69 10 139 15 155 5 16 15 84 22 151
6 67 9 128 6 137 -5 12 -20 16 -61 16z"/>
<path d="M5538 7008 c-42 2 -78 -1 -81 -5 -3 -4 -7 -21 -11 -38 -3 -16 -8 -88
-11 -160 -3 -71 -11 -187 -17 -257 -9 -102 -9 -130 2 -142 9 -12 31 -16 84
-16 39 0 78 5 86 10 12 7 16 39 19 152 3 79 5 213 5 298 l1 155 -77 3z"/>
<path d="M7953 7008 c-54 2 -94 -1 -98 -7 -3 -6 -1 -20 6 -32 6 -12 50 -74 97
-138 47 -64 88 -118 92 -121 4 -3 26 -34 51 -69 24 -35 61 -89 81 -118 21 -30
47 -66 58 -81 12 -15 31 -32 43 -39 13 -7 61 -12 115 -13 74 0 94 3 98 15 4
10 -22 51 -67 110 -41 52 -119 151 -174 221 -55 69 -125 158 -156 197 l-55 72
-91 3z"/>
<path d="M8388 7010 c-106 0 -130 -3 -135 -15 -3 -9 1 -23 9 -33 8 -9 61 -70
119 -136 57 -65 120 -137 139 -160 19 -22 79 -92 133 -153 54 -62 108 -115
120 -118 12 -3 85 -4 162 -3 124 3 140 5 140 20 0 9 -63 83 -140 164 -77 81
-160 168 -185 194 -25 25 -87 90 -139 143 l-94 97 -129 0z"/>
<path d="M4819 6250 c-41 0 -70 -5 -77 -12 -5 -7 -15 -31 -21 -53 -6 -22 -22
-90 -37 -152 -14 -61 -24 -120 -22 -130 3 -15 17 -19 78 -25 62 -6 77 -4 87 9
7 9 17 41 23 72 6 31 22 105 36 165 18 86 21 112 11 118 -6 4 -42 8 -78 8z"/>
<path d="M5175 6250 c-70 0 -73 -1 -83 -27 -5 -16 -15 -57 -21 -93 -6 -36 -16
-102 -23 -148 -9 -62 -9 -85 0 -94 7 -7 40 -11 84 -10 40 1 76 6 80 10 5 5 15
51 22 103 8 52 17 123 21 159 3 36 3 73 -1 83 -5 14 -19 17 -79 17z"/>
<path d="M5498 6248 l-96 3 -6 -38 c-3 -21 -11 -101 -16 -178 -10 -128 -9
-141 7 -152 10 -8 49 -13 98 -13 49 0 88 5 98 13 16 11 17 31 15 187 l-3 175
-97 3z"/>
<path d="M6724 6250 l-974 0 -6 -26 c-4 -14 -4 -94 0 -177 5 -122 9 -154 22
-164 11 -8 277 -10 1067 -6 836 4 1053 7 1055 17 2 7 -10 37 -26 67 -15 30
-41 77 -57 104 -15 28 -38 69 -51 93 -13 23 -31 54 -40 67 l-16 25 -974 0z"/>
<path d="M8023 6248 c-75 2 -102 -1 -106 -10 -2 -7 7 -33 21 -58 13 -25 33
-57 43 -72 11 -14 19 -29 19 -32 0 -3 23 -44 51 -90 28 -47 56 -89 62 -94 7
-6 59 -12 117 -14 l105 -3 2 25 c1 17 -31 74 -105 185 l-107 160 -102 3z"/>
<path d="M8524 6250 c-72 0 -115 -4 -120 -11 -3 -6 13 -39 37 -73 24 -33 80
-111 125 -172 l82 -111 119 -5 c73 -4 123 -2 131 4 6 6 12 16 12 22 0 6 -50
74 -111 151 -61 77 -122 152 -137 168 -25 26 -28 27 -138 27z"/>
<path d="M4701 5720 c-51 0 -82 -4 -89 -12 -5 -7 -15 -31 -20 -53 -6 -22 -12
-58 -14 -80 l-3 -40 75 -3 c41 -2 85 0 97 3 16 4 24 15 28 43 3 20 10 53 14
73 5 21 4 44 -1 53 -7 13 -25 16 -87 16z"/>
<path d="M5108 5718 c-75 2 -88 0 -96 -15 -5 -10 -12 -50 -16 -90 -7 -70 -6
-73 16 -78 13 -3 55 -5 93 -3 65 3 69 4 76 30 4 15 9 55 11 90 l3 63 -87 3z"/>
<path d="M5469 5720 c-97 0 -109 -2 -110 -17 0 -10 -3 -43 -5 -73 -3 -29 -3
-65 1 -77 5 -23 8 -24 118 -21 l112 3 7 79 c5 53 4 84 -4 93 -7 9 -42 13 -119
13z"/>
<path d="M6876 5720 c-612 0 -1116 -3 -1119 -7 -4 -3 -7 -35 -7 -69 0 -34 4
-74 10 -88 l10 -26 1150 0 c1064 0 1151 1 1157 17 4 9 -6 39 -22 70 -15 30
-37 65 -47 79 l-19 24 -1113 0z"/>
<path d="M8357 5718 c-95 2 -118 0 -123 -12 -3 -8 14 -45 37 -83 24 -37 50
-74 59 -80 10 -9 49 -12 125 -10 102 2 110 4 113 22 1 11 -18 51 -45 90 l-48
70 -118 3z"/>
<path d="M8924 5720 c-101 0 -134 -3 -134 -13 0 -7 16 -37 36 -67 20 -30 48
-67 62 -82 26 -28 26 -28 163 -28 76 0 140 4 143 8 3 5 -3 22 -13 38 -10 16
-41 55 -70 87 l-53 57 -134 0z"/>
<path d="M5462 5352 c-98 3 -115 1 -123 -13 -4 -9 -13 -88 -19 -175 -6 -88
-15 -235 -21 -329 -5 -93 -14 -219 -18 -280 -4 -60 -6 -116 -3 -122 3 -9 35
-13 111 -13 58 0 115 -3 127 -6 12 -3 27 1 36 9 13 13 16 75 22 379 3 200 9
399 12 443 3 44 1 85 -3 91 -5 7 -52 13 -121 16z"/>
<path d="M4627 5350 c-63 0 -98 -4 -105 -13 -6 -6 -22 -57 -36 -112 -14 -55
-48 -194 -76 -310 -28 -115 -60 -248 -71 -295 -11 -47 -25 -101 -31 -121 -5
-20 -8 -44 -6 -55 3 -17 14 -19 114 -22 81 -2 114 1 121 10 6 7 30 110 53 228
23 118 45 233 50 255 4 22 13 63 19 90 6 28 20 93 32 145 11 52 23 119 26 148
l5 52 -95 0z"/>
<path d="M5055 5350 c-54 0 -97 -4 -100 -10 -4 -6 -13 -52 -21 -103 -8 -51
-21 -135 -30 -187 -8 -52 -19 -129 -24 -170 -5 -41 -16 -115 -25 -165 -10 -49
-21 -110 -25 -135 -4 -25 -11 -66 -15 -92 -5 -33 -4 -52 5 -63 10 -12 33 -14
117 -11 76 2 107 7 114 17 4 8 11 32 13 54 3 22 10 83 16 135 5 52 17 158 26
235 9 77 20 174 25 215 6 41 14 116 18 165 5 50 6 96 4 103 -4 8 -33 12 -98
12z"/>
<path d="M6986 5348 c-1116 2 -1217 1 -1223 -14 -3 -9 -3 -107 1 -218 4 -110
9 -298 12 -416 2 -118 6 -230 9 -247 6 -31 9 -33 48 -34 23 0 672 0 1442 0
861 1 1403 5 1409 11 6 6 4 20 -5 37 -8 16 -56 105 -108 198 -51 94 -113 206
-136 250 -23 44 -73 136 -110 205 -38 69 -80 148 -95 175 l-27 50 -1217 3z"/>
<path d="M8594 5350 c-101 0 -126 -3 -130 -15 -3 -8 16 -52 42 -97 26 -46 81
-137 122 -203 40 -66 77 -127 82 -135 5 -8 47 -78 94 -155 46 -77 91 -153 100
-170 9 -16 31 -54 49 -83 18 -29 40 -57 48 -63 7 -5 83 -9 167 -9 133 0 152 2
152 16 0 9 -13 33 -28 53 -15 20 -51 70 -79 111 -28 41 -79 119 -114 172 -35
53 -101 155 -147 225 -45 70 -100 155 -122 188 -22 33 -56 84 -76 113 l-35 52
-125 0z"/>
<path d="M4361 4198 c-81 2 -102 -1 -119 -16 -14 -12 -34 -77 -71 -227 -28
-115 -51 -218 -51 -227 0 -16 13 -18 134 -18 82 0 137 4 141 10 4 6 27 111 51
233 39 194 43 223 30 233 -9 6 -60 11 -115 12z"/>
<path d="M4904 4196 c-60 2 -114 0 -120 -4 -6 -4 -14 -19 -17 -33 -4 -15 -11
-55 -16 -90 -5 -35 -17 -103 -25 -150 -9 -47 -17 -112 -18 -145 l-3 -59 135 0
135 0 6 45 c4 25 12 87 18 138 6 50 16 133 23 182 9 65 9 93 1 101 -6 6 -59
13 -119 15z"/>
<path d="M5369 4199 c-47 0 -91 -4 -97 -8 -7 -4 -16 -43 -21 -87 -6 -43 -15
-143 -21 -222 -9 -110 -8 -147 1 -158 9 -11 43 -14 160 -14 136 0 149 2 159
19 6 12 10 107 10 239 l0 220 -52 6 c-29 3 -92 5 -139 5z"/>
<path d="M7320 4198 c-811 -1 -1488 -4 -1504 -6 l-29 -4 6 -223 c4 -123 10
-230 13 -239 6 -15 150 -16 1635 -16 l1629 0 0 22 c0 12 -21 60 -46 107 -26
47 -63 115 -82 151 -20 36 -50 92 -68 125 -17 33 -42 66 -55 73 -19 10 -327
12 -1499 10z"/>
<path d="M4196 3460 c-66 0 -127 -4 -134 -9 -8 -4 -23 -39 -33 -77 -11 -38
-25 -97 -31 -131 -7 -34 -8 -66 -4 -70 4 -4 67 -9 139 -10 73 -1 138 1 146 6
8 6 23 60 37 137 18 95 21 130 13 141 -9 9 -43 13 -133 13z"/>
<path d="M4796 3460 c-94 0 -126 -3 -135 -14 -6 -8 -19 -68 -28 -134 -9 -66
-13 -128 -9 -138 6 -15 19 -16 142 -11 75 3 140 9 145 14 5 5 14 56 19 113 6
58 13 112 16 121 2 9 -3 24 -11 33 -13 13 -40 16 -139 16z"/>
<path d="M5380 3460 c-101 0 -151 -4 -163 -12 -14 -11 -17 -36 -19 -148 l-3
-135 169 2 c127 1 171 5 177 15 5 7 9 67 9 134 0 80 -4 124 -12 132 -8 8 -58
12 -158 12z"/>
<path d="M4090 2882 c-69 2 -137 2 -152 0 -18 -2 -29 -12 -36 -30 -6 -15 -27
-97 -47 -182 -21 -85 -41 -171 -45 -190 -5 -19 -15 -60 -23 -90 -8 -30 -24
-98 -36 -150 -12 -52 -58 -237 -101 -410 -44 -173 -85 -338 -93 -366 -7 -28
-11 -56 -9 -62 3 -9 57 -12 192 -12 104 0 191 4 194 8 2 4 12 48 21 97 9 50
25 135 35 190 10 55 30 159 44 230 14 72 35 168 46 215 10 47 31 148 45 225
14 77 30 156 35 175 5 19 18 85 30 145 12 61 26 127 31 149 6 21 7 42 2 47 -4
4 -64 9 -133 11z"/>
<path d="M4721 2882 l-143 3 -10 -25 c-5 -14 -14 -52 -19 -85 -5 -33 -16 -103
-24 -155 -9 -52 -31 -203 -50 -335 -20 -132 -40 -262 -45 -290 -5 -27 -14 -86
-20 -130 -6 -44 -20 -123 -30 -175 -10 -52 -23 -134 -30 -181 -7 -48 -10 -94
-7 -103 5 -13 34 -16 178 -18 104 -2 177 1 185 7 8 6 18 54 24 120 7 61 16
129 21 152 5 23 9 71 9 106 0 35 4 88 10 118 5 30 17 113 25 184 9 72 27 229
40 350 13 121 30 268 36 328 8 66 9 111 3 116 -5 5 -74 11 -153 13z"/>
<path d="M5393 2884 c-76 0 -159 0 -185 -2 l-48 -3 0 -47 c0 -26 -4 -92 -10
-147 -5 -55 -17 -210 -25 -345 -9 -135 -18 -285 -21 -335 -3 -49 -7 -124 -9
-165 -2 -41 -10 -150 -19 -241 -8 -92 -12 -176 -9 -188 5 -21 8 -21 222 -19
l216 3 7 45 c3 25 7 171 8 325 1 154 6 466 12 693 6 227 8 415 5 418 -3 4 -68
7 -144 8z"/>
</g>
</svg>
